<svg width="28" height="43" viewBox="0 0 28 43" fill="none" xmlns="http://www.w3.org/2000/svg">
<path fill-rule="evenodd" clip-rule="evenodd" d="M16.1441 1.17618C16.8192 1.80057 17.2615 2.77501 17.2615 3.89702V4.42471C17.7267 4.2182 18.2182 4.12788 18.714 4.12788C19.5652 4.12788 20.4317 4.40786 21.1083 5.03483C21.7849 5.6618 22.2257 6.64595 22.2257 7.77217V9.93236C22.6909 9.72557 23.1982 9.63553 23.6942 9.63553C24.5427 9.63553 25.3975 9.91809 26.0725 10.5425C26.7475 11.1669 27.1898 12.1413 27.1898 13.2633V28.3022C27.1898 32.8693 25.514 36.4265 22.9758 38.7733C20.4378 41.1202 17.0823 42.2692 13.7498 42.2692C10.4173 42.2692 7.07786 41.1202 4.53976 38.7733C2.0017 36.4265 0.309814 32.8693 0.309814 28.3022V19.0184C0.309814 17.8954 0.766156 16.9214 1.44315 16.2975C2.12012 15.6736 2.97152 15.3905 3.82145 15.3905C4.31825 15.3905 4.82387 15.4809 5.28997 15.6874V7.75568C5.28997 6.63367 5.73229 5.65922 6.40736 5.03483C7.08234 4.41043 7.95308 4.11139 8.80162 4.11139C9.29883 4.11139 9.78787 4.21677 10.2542 4.42471V3.89702C10.2542 2.77501 10.6965 1.80057 11.3715 1.17618C12.0465 0.551762 12.9013 0.269226 13.7498 0.269226C14.6247 0.288556 15.5865 0.674063 16.1441 1.17618ZM13.7498 2.37994C13.3586 2.37994 12.9831 2.50706 12.7283 2.74272C12.4735 2.97839 12.2973 3.29887 12.2973 3.89702V20.7333C12.305 21.2909 11.8155 21.8037 11.2757 21.8037C10.736 21.8037 10.2465 21.2909 10.2542 20.7333V7.83812C10.291 7.33273 10.0365 6.93114 9.82315 6.60138C9.56844 6.36571 9.19282 6.2221 8.80162 6.2221C8.41043 6.2221 8.01887 6.36571 7.7641 6.60138C7.50932 6.83704 7.3331 7.15753 7.3331 7.75568C7.3331 14.5114 7.3331 21.2532 7.3331 28.0054C7.34075 28.563 6.85128 29.0758 6.31152 29.0758C5.77178 29.0758 5.28235 28.563 5.28997 28.0054V19.1173C5.32928 18.6116 5.07523 18.2077 4.85902 17.8805C4.6028 17.6444 4.21579 17.5013 3.82145 17.5013C3.42717 17.5013 3.05614 17.6444 2.7999 17.8805C2.54368 18.1167 2.35296 18.4212 2.35296 19.0184V28.3022C2.35296 32.3452 3.77876 35.2486 5.89657 37.2068C8.01434 39.165 10.8745 40.1585 13.7498 40.1585C16.6252 40.1585 19.4854 39.165 21.6032 37.2068C23.7209 35.2486 25.1467 32.3452 25.1467 28.3022V13.2633C25.1467 12.6652 24.9705 12.3612 24.7157 12.1255C24.4609 11.8899 24.0854 11.7463 23.6942 11.7463C23.303 11.7463 22.9274 11.8899 22.6726 12.1255C22.2643 12.5282 22.2305 12.8886 22.2257 13.3788V22.6297C22.2333 23.1872 21.7438 23.7 21.2041 23.7C20.6643 23.7 20.1749 23.1872 20.1825 22.6297C20.1825 17.6728 20.1825 12.7249 20.1825 7.77217C20.1825 7.16887 20.0081 6.83916 19.7516 6.60138C19.4949 6.3636 19.1071 6.2221 18.714 6.2221C18.321 6.2221 17.9491 6.3636 17.6924 6.60138C17.4358 6.83916 17.2615 7.16887 17.2615 7.77217V20.8982C17.2692 21.4558 16.7797 21.9686 16.24 21.9686C15.7002 21.9686 15.2108 21.4558 15.2184 20.8982C15.2133 15.2265 15.2184 9.55762 15.2184 3.89702C15.2184 3.29887 15.0262 2.97839 14.7714 2.74272C14.5167 2.50706 14.141 2.37994 13.7498 2.37994Z" fill="#232586"/>
</svg>
