<svg width="28" height="43" viewBox="0 0 28 43" fill="none" xmlns="http://www.w3.org/2000/svg">
<path fill-rule="evenodd" clip-rule="evenodd" d="M4.46877 4.60866C4.30674 3.83241 4.81012 3.06904 5.59188 2.90768C6.3746 2.74822 7.14241 3.24663 7.30491 4.02337L10.6454 19.9858C10.7536 20.5019 11.2618 20.8342 11.7825 20.7263C11.9204 20.6981 12.0435 20.6404 12.1503 20.563C12.4623 20.4379 12.7012 20.1563 12.7469 19.8011L14.8345 3.43664C14.883 3.05567 15.0778 2.71624 15.3835 2.48088C15.6898 2.24552 16.0691 2.14192 16.4528 2.19109C16.8365 2.23931 17.1783 2.43314 17.4153 2.73677C17.6524 3.03992 17.7562 3.41706 17.7077 3.79803L15.6446 19.9725C15.597 20.3448 15.7744 20.6914 16.0696 20.8857C16.2504 21.1087 16.5182 21.2476 16.8091 21.2476C17.3394 21.2476 17.7706 20.8194 17.7706 20.2928V19.0993C17.7706 18.1779 18.526 17.4284 19.4534 17.4284C20.3813 17.4284 21.1361 18.1779 21.1361 19.0993V22.2024C21.1361 22.729 21.5679 23.1572 22.0977 23.1572C22.628 23.1572 23.0593 22.729 23.0593 22.2024V20.4623C23.2184 20.3921 23.6256 20.2928 23.8665 20.2928C24.5526 20.2928 25.1541 20.8504 25.1541 21.4863C25.1541 25.9195 24.7891 33.6773 23.8107 35.6203C22.378 38.4661 20.7751 40.8216 15.647 40.8216C10.9488 40.8216 6.87606 38.5998 4.17933 34.5648C2.45716 31.9882 1.67493 26.6938 4.36924 24.2624C4.64281 24.0156 5.20437 23.68 5.30004 23.6232L5.96978 28.2163C6.03949 28.6918 6.45056 29.0345 6.92029 29.0345C6.96596 29.0345 7.0126 29.0312 7.05924 29.025C7.58473 28.9491 7.94917 28.465 7.8732 27.9432L4.47886 4.66595L4.46877 4.60866ZM23.8353 18.3827C23.6526 18.3827 23.3285 18.419 22.9463 18.5159C22.6626 16.813 21.153 15.5183 19.388 15.5183C18.9524 15.5183 18.5245 15.6057 18.1211 15.757L19.6154 4.03817C19.7289 3.15115 19.487 2.27321 18.9351 1.56665C18.3836 0.859614 17.5879 0.408946 16.6946 0.296756C15.8009 0.183134 14.9172 0.423745 14.2051 0.971804C13.4936 1.51939 13.0392 2.30997 12.9263 3.19698L11.4757 14.5678L9.18767 3.63476C8.80977 1.82779 7.02125 0.662448 5.201 1.03816C3.39133 1.41149 2.2211 3.16929 2.57976 4.96624L4.98753 21.4801C4.1928 21.916 3.262 22.5729 3.21199 22.6087C0.358537 24.6472 -0.550626 30.9055 2.60092 35.6194C5.66544 40.2053 10.3026 42.7308 15.6581 42.7308C21.8679 42.7308 23.9434 39.6396 25.5372 36.4734C27.0632 33.4434 27.0806 21.9728 27.0806 21.4863C27.0806 19.8044 25.5945 18.3832 23.8353 18.3827Z" fill="#FFCC01"/>
</svg>
