<svg width="39" height="43" viewBox="0 0 39 43" fill="none" xmlns="http://www.w3.org/2000/svg">
<path d="M38.6616 10.9477C38.6616 11.6703 38.6362 28.6914 36.4337 33.1362C34.1443 37.7575 31.1629 42.2692 22.2531 42.2692C14.5166 42.2692 7.81645 38.5598 3.38662 31.8249C-0.938801 25.2503 0.314869 16.755 4.14503 13.242C5.30275 12.1814 6.22837 11.6041 6.82805 11.2994L6.82028 8.45837C6.82028 5.36182 8.8613 3.11664 11.6734 3.11664C12.7811 3.11664 13.7575 3.45833 14.5328 4.06696C15.2489 1.58971 17.6674 0.269226 19.9659 0.269226C22.0901 0.269226 23.9054 1.62958 24.601 3.53236C25.4525 2.82833 26.5411 2.40478 27.7264 2.40478C30.3113 2.40478 32.4398 4.41933 32.6486 6.97488C33.2871 6.772 33.9108 6.6759 34.2522 6.6759C36.6425 6.67661 38.6616 8.63278 38.6616 10.9477ZM36.5402 10.9477C36.5402 9.81018 35.52 8.81217 34.2981 8.81217C33.8184 8.81217 32.7608 9.07128 32.7608 9.2706V12.0155C32.7608 12.6049 32.2867 13.0833 31.7026 13.0833C31.1184 13.0833 30.6443 12.6049 30.6443 12.0155V7.38846C30.6443 5.81811 29.3787 4.54105 27.8223 4.54105C26.266 4.54105 25.0003 5.81811 25.0003 7.38846V9.16809C25.0003 9.75751 24.5262 10.2359 23.9421 10.2359C23.3579 10.2359 22.8838 9.75751 22.8838 9.16809V5.25291C22.8838 3.68256 21.6182 2.40549 20.0618 2.40549C18.6438 2.40549 16.5343 3.25829 16.5343 5.60883V8.45624C16.5343 9.04565 15.9798 9.52402 15.3956 9.52402C14.8115 9.52402 14.281 9.04565 14.281 8.45624C14.281 6.97844 13.5585 5.25291 11.6043 5.25291C9.71354 5.25291 8.77382 6.86169 8.77382 8.45624V21.2703C8.77382 22.19 8.4641 22.694 7.82985 22.694C7.19561 22.694 6.89366 22.1601 6.89366 21.2703L6.90424 13.8101C6.90424 13.8101 5.92007 14.3938 5.45091 14.8245C1.32867 18.6044 2.53296 26.7195 5.1158 30.6461C9.13997 36.7652 15.232 40.1351 22.2362 40.1351C29.955 40.1351 32.3756 36.5338 34.5316 32.1823C36.1761 28.8636 36.5402 15.7285 36.5402 10.9477Z" fill="#FFCC01" stroke="#FFCC01" stroke-width="0.307692"/>
</svg>
