<svg width="111" height="70" viewBox="0 0 111 70" fill="none" xmlns="http://www.w3.org/2000/svg">
<path fill-rule="evenodd" clip-rule="evenodd" d="M38.2481 5H72.7519C81.8995 5 88.3109 6.26122 93.7924 8.62952C99.2739 10.9978 103.576 14.4732 106.507 18.9016C109.439 23.3299 111 28.5095 111 35.8996V39.1004C111 46.4905 109.439 51.6701 106.507 56.0984C103.576 60.5268 99.2739 64.0022 93.7924 66.3705C88.3109 68.7388 81.8995 70 72.7519 70H38.2481C29.1005 70 22.6891 68.7388 17.2076 66.3705C11.7261 64.0022 7.42421 60.5268 4.49269 56.0984C1.56116 51.6701 0 46.4905 0 39.1004L0 35.8996C0 28.5095 1.56116 23.3299 4.49269 18.9016C7.42421 14.4732 11.7261 10.9978 17.2076 8.62952C22.6891 6.26122 29.1005 5 38.2481 5Z" fill="#EA9975"/>
<path d="M37.65 0L73.35 0C81.7799 0 88.3109 1.25113 93.7924 3.60048C99.2739 5.94984 103.576 9.39743 106.507 13.7903C109.439 18.1833 111 23.4173 111 30.1731V31.8269C111 38.5827 109.439 43.8167 106.507 48.2097C103.576 52.6026 99.2739 56.0502 93.7924 58.3995C88.3109 60.7489 81.7799 62 73.35 62H37.65C29.2201 62 22.6891 60.7489 17.2076 58.3995C11.7261 56.0502 7.42421 52.6026 4.49269 48.2097C1.56116 43.8167 0 38.5827 0 31.8269L0 30.1731C0 23.4173 1.56116 18.1833 4.49269 13.7903C7.42421 9.39743 11.7261 5.94984 17.2076 3.60048C22.6891 1.25113 29.2201 0 37.65 0Z" fill="#FBC399"/>
<path d="M9.07636 28.6069C7.63497 30.0382 7.64326 32.3602 9.08882 33.7834L18.8252 43.3719C22.8336 47.2838 28.8524 41.416 24.8398 37.5042L24.7983 37.4635C23.548 36.2557 23.9634 35.2757 25.7246 35.2757L33.5295 35.2757C35.8722 35.2757 37.7747 33.4133 37.7747 31.1036L37.7747 31.1524C37.7747 28.8468 35.8763 26.9803 33.5295 26.9803L25.7246 26.9803C23.9634 26.9803 23.5521 25.9963 24.7983 24.7926L24.8398 24.7519C28.8523 20.8401 22.8336 14.9723 18.8252 18.8841L9.07636 28.6069Z" fill="#B67C62"/>
<path d="M52.2093 38.128V23.5825H57.7775C58.8286 23.5825 59.7022 23.7483 60.3982 24.0797C61.099 24.4064 61.6222 24.8538 61.9678 25.422C62.3182 25.9902 62.4934 26.6341 62.4934 27.3538C62.4934 27.9457 62.3798 28.4523 62.1525 28.8737C61.9252 29.2904 61.6198 29.6289 61.2363 29.8894C60.8528 30.1498 60.4243 30.3368 59.9508 30.4504V30.5925C60.4669 30.6209 60.9617 30.7795 61.4352 31.0683C61.9134 31.3524 62.304 31.7549 62.607 32.2757C62.9101 32.7966 63.0616 33.4263 63.0616 34.1649C63.0616 34.9178 62.8793 35.5948 62.5147 36.1962C62.1501 36.7928 61.6009 37.2639 60.867 37.6095C60.1331 37.9552 59.2098 38.128 58.0971 38.128H52.2093ZM54.8443 35.9263H57.6781C58.6345 35.9263 59.3234 35.744 59.7448 35.3794C60.171 35.0101 60.384 34.5366 60.384 33.959C60.384 33.5281 60.2775 33.1398 60.0644 32.7942C59.8514 32.4438 59.5483 32.1692 59.1553 31.9703C58.7623 31.7667 58.2936 31.6649 57.7491 31.6649H54.8443V35.9263ZM54.8443 29.7686H57.4508C57.9053 29.7686 58.3149 29.6858 58.6795 29.52C59.0441 29.3496 59.3305 29.1105 59.5389 28.8027C59.7519 28.4902 59.8585 28.1209 59.8585 27.6948C59.8585 27.1313 59.6596 26.6673 59.2619 26.3027C58.8689 25.9381 58.2841 25.7558 57.5076 25.7558H54.8443V29.7686ZM68.3794 38.3482C67.6881 38.3482 67.0655 38.2251 66.5115 37.9788C65.9623 37.7279 65.5267 37.3586 65.2047 36.8709C64.8875 36.3832 64.7288 35.7819 64.7288 35.0669C64.7288 34.4514 64.8425 33.9424 65.0698 33.5399C65.297 33.1375 65.6072 32.8155 66.0002 32.574C66.3931 32.3325 66.8359 32.1502 67.3283 32.0271C67.8254 31.8993 68.3392 31.807 68.8695 31.7501C69.5087 31.6839 70.0271 31.6247 70.4249 31.5726C70.8226 31.5158 71.1114 31.4305 71.2913 31.3169C71.476 31.1985 71.5683 31.0162 71.5683 30.77V30.7274C71.5683 30.1924 71.4097 29.7781 71.0925 29.4845C70.7753 29.191 70.3183 29.0442 69.7217 29.0442C69.092 29.0442 68.5925 29.1815 68.2232 29.4561C67.8586 29.7307 67.6124 30.0551 67.4845 30.4291L65.084 30.0882C65.2734 29.4253 65.5859 28.8714 66.0215 28.4263C66.4571 27.9765 66.9897 27.6403 67.6195 27.4178C68.2492 27.1905 68.9452 27.0769 69.7075 27.0769C70.2331 27.0769 70.7563 27.1384 71.2771 27.2615C71.798 27.3846 72.2738 27.5882 72.7047 27.8723C73.1356 28.1517 73.4812 28.5328 73.7416 29.0158C74.0068 29.4987 74.1394 30.1024 74.1394 30.8269V38.128H71.6678V36.6294H71.5825C71.4263 36.9324 71.2061 37.2165 70.922 37.4817C70.6427 37.7421 70.2899 37.9528 69.8638 38.1138C69.4424 38.27 68.9476 38.3482 68.3794 38.3482ZM69.047 36.459C69.5631 36.459 70.0106 36.3572 70.3894 36.1536C70.7681 35.9452 71.0593 35.6706 71.2629 35.3297C71.4713 34.9888 71.5754 34.6171 71.5754 34.2146V32.9291C71.4949 32.9954 71.3576 33.057 71.1635 33.1138C70.9741 33.1706 70.761 33.2203 70.5243 33.2629C70.2876 33.3055 70.0532 33.3434 69.8212 33.3766C69.5892 33.4097 69.3879 33.4381 69.2175 33.4618C68.834 33.5139 68.4907 33.5991 68.1877 33.7175C67.8846 33.8359 67.6455 34.0016 67.4703 34.2146C67.2951 34.423 67.2075 34.6929 67.2075 35.0243C67.2075 35.4978 67.3804 35.8553 67.726 36.0967C68.0717 36.3382 68.512 36.459 69.047 36.459ZM81.4831 38.3411C80.3941 38.3411 79.459 38.1019 78.6777 37.6237C77.9012 37.1455 77.3022 36.485 76.8808 35.6422C76.4642 34.7947 76.2558 33.8193 76.2558 32.7161C76.2558 31.6081 76.4689 30.6304 76.895 29.7828C77.3212 28.9305 77.9225 28.2677 78.699 27.7942C79.4803 27.316 80.4036 27.0769 81.4689 27.0769C82.3543 27.0769 83.1379 27.2402 83.8198 27.5669C84.5063 27.8889 85.0532 28.3458 85.4604 28.9376C85.8676 29.5248 86.0996 30.2113 86.1564 30.9973H83.699C83.5996 30.4717 83.3628 30.0338 82.9888 29.6834C82.6195 29.3283 82.1247 29.1507 81.5044 29.1507C80.9788 29.1507 80.5172 29.2928 80.1195 29.5769C79.7217 29.8562 79.4116 30.2587 79.1891 30.7842C78.9713 31.3098 78.8624 31.9395 78.8624 32.6734C78.8624 33.4168 78.9713 34.056 79.1891 34.5911C79.4069 35.1214 79.7123 35.5309 80.1053 35.8198C80.503 36.1038 80.9694 36.2459 81.5044 36.2459C81.8832 36.2459 82.2217 36.1749 82.52 36.0328C82.8231 35.886 83.0764 35.6753 83.28 35.4007C83.4836 35.1261 83.6233 34.7923 83.699 34.3993H86.1564C86.0949 35.1711 85.8676 35.8553 85.4746 36.4519C85.0816 37.0437 84.5466 37.5077 83.8695 37.8439C83.1924 38.1753 82.3969 38.3411 81.4831 38.3411ZM90.6113 34.7047L90.6042 31.601H91.0161L94.9366 27.2189H97.9409L93.1184 32.5882H92.5857L90.6113 34.7047ZM88.2676 38.128V23.5825H90.8386V38.128H88.2676ZM95.1141 38.128L91.563 33.1635L93.296 31.3524L98.1894 38.128H95.1141Z" fill="#B67C62"/>
</svg>
