<svg width="274" height="232" viewBox="0 0 274 232" fill="none" xmlns="http://www.w3.org/2000/svg">
<path d="M0.340529 99.1325C0.418382 86.3178 4.29549 76.9287 12.8127 69.3458C32.4629 51.8754 51.9262 34.2027 71.5453 16.7013C75.1422 13.4937 79.4241 11.267 84.0797 9.89677C92.7682 7.32761 101.534 4.99203 110.161 2.23602C118.257 -0.348718 126.167 -0.722407 134.575 1.27064C156.468 6.47125 178.532 11.0334 200.486 15.9382C208.77 17.7911 215.138 22.6803 219.218 29.9674C235.972 59.9254 252.695 89.899 269.044 120.091C276.051 133.014 275.475 146.281 267.705 158.924C257.475 175.585 246.996 192.121 236.782 208.797C231.207 217.906 223.391 223.184 212.74 224.632C198.898 226.516 185.118 228.805 171.276 230.783C164.674 231.732 158.087 230.424 151.516 229.942C137.97 228.976 124.439 227.591 110.908 226.454C92.7215 224.912 74.5505 223.34 56.3483 221.954C50.5093 221.518 44.7326 221.269 39.5008 218.17C31.2172 213.266 26.2657 205.916 23.9613 196.761C16.5029 167.285 9.15354 137.779 1.75746 108.272C0.869932 104.738 0.15368 101.188 0.340529 99.1169V99.1325Z" fill="#333333"/>
<path d="M23.8209 69.19C34.0042 59.9877 44.1407 50.7699 54.3551 41.6143C61.4864 35.2148 68.7424 28.9553 75.9049 22.5869C81.9307 17.215 88.7663 15.8915 96.4893 17.9935C114.474 22.8827 132.473 27.6473 150.473 32.4742C151.08 32.6455 151.656 32.9726 152.248 33.2217C155.269 34.3272 157.433 36.4448 159.379 38.9361C166.495 47.9983 170.435 58.5552 173.611 69.3924C180.104 91.4872 182.268 114.111 181.272 137.063C180.851 146.623 178.656 155.763 173.611 164.078C165.981 176.659 154.334 181.548 140.305 180.583C124.75 179.524 109.211 180.287 93.671 179.944C86.9289 179.789 80.2024 179.431 73.5693 178.232C63.822 176.457 54.3551 173.778 46.3517 167.503C37.383 160.465 31.9333 150.952 27.9472 140.55C21.5165 123.75 18.885 106.248 19.6791 88.3108C19.975 81.8023 20.1151 75.0446 23.8053 69.1589L23.8209 69.19Z" fill="#CBCBCB"/>
<path d="M23.8211 69.19C21.2675 79.1397 20.0842 89.2451 20.7225 99.4906C21.8904 117.957 25.4405 135.833 34.6272 152.182C43.3312 167.69 57.4538 174.744 74.348 177.266C92.7526 180.022 111.297 178.543 129.78 178.792C136.319 178.886 142.766 180.038 149.445 179.041C159.94 177.5 167.336 172.097 172.708 163.455C178.189 154.642 179.902 144.801 180.26 134.571C181.023 112.336 178.687 90.4752 172.381 69.1278C168.862 57.2162 164.533 45.5693 155.627 36.3515C154.553 35.2459 153.369 34.2494 152.248 33.2061C160.329 35.2615 168.987 35.7909 175.698 41.6144C180.82 46.0676 183.592 51.8598 184.713 58.4151C190.007 89.3074 195.208 120.2 200.455 151.092C201.779 158.877 203.102 166.663 204.441 174.448C206.185 184.569 203.647 193.444 196.671 200.996C191.58 206.524 186.504 212.051 181.303 217.485C176.959 222.016 171.603 224.477 165.265 223.978C141.504 222.094 117.744 220.101 93.9982 218.155C80.3116 217.034 66.6405 215.773 52.9539 214.792C41.634 213.982 34.7362 207.551 31.5598 197.337C28.3366 186.967 26.0789 176.301 23.4319 165.744C18.5427 146.281 13.778 126.786 8.76426 107.354C5.02729 92.8886 8.60855 81.0237 20.489 71.7903C21.6101 70.9183 22.7 70.0309 23.8055 69.1433L23.8211 69.19Z" fill="#B2B2B2"/>
<path d="M103.948 11.5473C108.884 10.037 113.82 8.47985 118.771 7.03177C122.197 6.03525 125.669 6.36221 129.063 7.10961C151.999 12.1857 174.904 17.3551 197.839 22.4C204.893 23.9415 210.124 27.8809 213.566 34.0313C223.546 51.8753 233.325 69.8284 243.243 87.7191C249.067 98.2449 254.812 108.833 260.901 119.203C268.577 132.298 268.795 144.957 260.402 157.896C250.266 173.514 240.409 189.333 230.693 205.216C226.411 212.222 220.681 216.458 212.491 217.548C204.581 218.591 196.718 219.883 187.687 221.238C192.296 216.177 195.94 211.709 200.066 207.738C210.623 197.617 213.067 185.223 210.825 171.427C207.695 152.213 204.472 133.014 201.218 113.831C198.291 96.5476 195.083 79.2953 192.343 61.9807C191.082 54.0552 189.073 46.5969 184.044 40.1662C180.151 35.1991 175.137 31.8671 169.111 30.2321C148.293 24.6111 127.429 19.1146 106.579 13.5559C106.206 13.4625 105.863 13.2445 105.505 13.0888C105.162 12.3881 103.465 13.0421 103.948 11.5317V11.5473Z" fill="#666666"/>
<path d="M50.743 61.685C50.8675 55.1453 53.7792 50.0382 59.011 46.2701C61.3933 44.5573 64.0715 43.4673 66.9676 45.1957C69.7392 46.8618 70.5022 49.6022 70.3153 52.5606C69.9261 58.82 67.3257 64.0207 62.2186 67.7732C59.7272 69.6105 56.9557 70.7472 53.9038 69.0967C50.9609 67.5085 50.6028 64.6901 50.7274 61.685H50.743Z" fill="#333333"/>
<path d="M120.032 82.4095C120.422 76.3836 122.461 71.1986 127.179 67.4149C131.975 63.5845 137.004 65.2974 138.297 71.2765C139.714 77.8473 137.363 83.5462 133.034 88.3575C130.823 90.8333 127.864 92.5149 124.361 91.098C120.437 89.5098 120.25 85.8662 120.017 82.4095H120.032Z" fill="#333333"/>
<path d="M140.477 91.6119C144.292 91.3783 147.639 92.6707 150.504 95.0374C155.58 99.2104 154.833 105.33 148.869 108.086C143.684 110.484 138.515 109.876 133.75 106.887C130.714 104.987 128.845 102.184 129.624 98.4007C130.434 94.4613 133.532 92.8419 137.036 91.8921C138.141 91.5963 139.34 91.6897 140.492 91.6119H140.477Z" fill="#D94691"/>
<path d="M79.8445 80.8059C79.6888 85.8041 82.6939 90.0393 87.0848 91.0202C92.083 92.1258 96.4428 90.0081 98.4515 85.1656C99.4636 82.7366 100.678 80.6813 103.512 81.8491C106.611 83.1259 105.785 85.7573 104.82 88.1552C101.799 95.5824 93.6401 99.7242 85.7458 97.8713C77.8047 96.0028 72.2148 88.5912 72.9467 80.6969C73.1802 78.1744 73.1335 75.0291 76.9483 75.2627C80.6697 75.4807 80.0469 78.3457 79.8445 80.8059Z" fill="#343434"/>
<path d="M42.0233 82.472C38.0372 82.5654 35.2968 81.8491 32.9456 80.1208C28.1965 76.6174 28.4924 71.5102 33.5373 68.5673C37.2275 66.4186 44.5925 67.1971 47.8 70.0777C49.9021 71.9617 51.5993 74.0793 50.7429 77.1467C49.9176 80.1051 47.473 81.3664 44.8105 82.1605C43.5959 82.5187 42.2569 82.4564 42.0233 82.472Z" fill="#D94691"/>
</svg>
