<svg width="201" height="268" viewBox="0 0 201 268" fill="none" xmlns="http://www.w3.org/2000/svg">
<path d="M111.059 215.522C111.539 218.271 112.082 221.005 112.482 223.77C114.751 239.514 107.878 250.75 95.0435 259.03C73.9291 272.648 38.4614 270.554 19.265 241.336C9.91455 227.11 5.31128 211.303 3.80882 194.488C2.32234 177.977 3.8088 161.833 9.53095 146.185C10.49 143.564 11.2891 140.751 12.8715 138.529C15.9883 134.181 15.333 130.441 13.1912 125.774C2.01864 101.559 -1.3859 75.9689 0.484188 49.4999C1.53911 34.4273 4.14445 19.6904 8.68381 5.28912C10.49 -0.449013 11.465 -0.928522 16.9793 1.06944C58.7766 16.174 87.6112 44.9126 105.257 85.3193C106.424 88.0046 107.83 89.0275 110.676 89.491C125.908 91.9845 139.047 99.1612 151.05 108.512C172.069 124.879 188.308 144.922 196.748 170.56C202.534 188.126 202.486 205.421 192.496 221.708C186.118 232.097 177.184 239.801 165.867 244.325C151.386 250.111 139.095 245.412 128.194 235.454C122.072 229.86 116.989 223.37 112.594 216.337C112.093 215.602 111.592 215.341 111.091 215.554L111.059 215.522Z" fill="#333333"/>
<path d="M111.059 215.522C110.34 215.075 109.828 213.924 110.516 213.828C111.97 213.62 112.466 214.963 112.545 216.305C112.05 216.05 111.554 215.778 111.043 215.522H111.059Z" fill="#39646D"/>
<path d="M71.5794 133.382C75.927 150.341 84.654 165.19 91.6549 180.806C98.4639 196.022 104.106 211.942 105.768 228.789C106.408 235.278 103.882 241 99.4869 245.891C81.1696 266.286 46.9006 264.448 28.8231 242.087C19.3608 230.387 14.262 216.801 11.8485 202.16C8.47592 181.637 9.9624 161.625 18.7374 142.445C20.2239 139.216 22.11 138.337 25.4665 138.513C36.4953 139.104 47.524 139.216 58.5048 137.394C62.9802 136.643 67.2159 135.204 71.5794 133.398V133.382Z" fill="#5BC6E0"/>
<path d="M166.954 133.99C167.465 134.549 167.977 135.124 168.504 135.684C169.335 136.723 170.087 137.842 171.11 138.721C180.94 150.421 187.765 163.687 191.617 178.472C191.92 179.623 192.192 180.774 192.48 181.925C193.95 189.117 194.174 196.31 192.464 203.502C188.612 218.783 179.261 229.652 165.419 236.717C155.845 241.592 146.559 240.297 137.976 234.127C128.945 227.654 122.28 218.991 116.685 209.576C104.745 189.469 92.8377 169.313 83.8389 147.64C81.2815 141.486 79.3315 135.14 77.877 128.651C77.5733 127.324 77.3495 126.094 78.2286 124.847C84.7979 115.464 91.5749 106.29 100.638 99.0493C103.962 96.396 107.399 95.8685 111.443 96.7636C129.568 100.823 144.177 110.957 157.476 123.36C159.697 125.422 162.095 127.372 163.741 129.994C164.189 130.553 164.205 131.096 163.709 131.624C161.456 131.928 160.417 130.106 159.17 128.843C151.689 121.283 143.106 115.321 133.484 110.813C126.867 107.712 119.85 106.386 112.625 105.89C111.283 105.794 109.972 106.13 108.709 106.546C104.841 107.84 101.852 111.229 101.996 114.138C102.124 116.871 105.193 119.54 109.365 120.467C114.16 121.538 119.083 121.89 123.846 123.265C140.165 127.964 154.007 136.515 164.956 149.51C173.363 159.483 177.407 171.375 179.086 184.162C179.373 186.416 179.725 188.654 180.156 190.859C180.444 192.314 180.396 194.584 182.538 194.36C184.232 194.168 184.152 192.138 184.2 190.7C184.408 184.706 184.248 178.744 182.954 172.83C179.901 158.924 174.083 146.393 164.94 135.46C164.093 134.453 163.038 133.526 163.39 131.976C165.707 130.633 165.835 133.206 166.97 133.99H166.954Z" fill="#5BC6E0"/>
<path d="M13.9424 16.6215C16.9473 25.6363 19.9842 34.6351 22.9571 43.6658C28.5834 60.7044 34.4494 77.6791 39.6761 94.8295C41.7859 101.734 45.4781 107.185 50.497 112.076C54.9724 116.439 59.1921 121.059 63.5876 125.502C65.4737 127.42 65.2979 128.491 62.5966 129.258C57.7056 130.649 52.6708 131.256 47.6519 131.48C40.747 131.784 33.826 131.48 26.9051 131.608C24.5395 131.656 23.3567 130.665 22.3178 128.651C9.83455 104.292 5.79068 78.3504 7.5329 51.274C8.18823 41.0445 9.45098 30.8949 11.8166 20.9051C12.1522 19.4985 12.5358 18.1079 12.8874 16.7014C13.2391 16.6694 13.5907 16.6375 13.9264 16.6055L13.9424 16.6215Z" fill="#B2B2B2"/>
<path d="M58.1533 109.263C49.5541 103.333 46.9168 93.9984 43.9278 84.7439C36.3675 61.3758 28.5835 38.0716 20.8794 14.7355C20.4318 13.3609 20.0002 11.9703 19.217 9.47684C41.738 18.6674 60.2951 31.6622 75.08 49.9634C82.6402 61.6955 83.2156 74.3225 79.8271 87.4291C77.6214 95.9644 73.2898 103.077 65.5537 107.712C63.316 109.055 61.0143 110.669 58.1533 109.247V109.263Z" fill="#CBCBCB"/>
<path d="M58.1532 109.263C67.3598 107.553 73.1139 101.511 76.5824 93.407C82.7201 79.0696 81.9848 64.7643 75.1278 50.7626C75.016 50.5388 75.0799 50.2351 75.0639 49.9794C84.1906 59.9692 90.9996 71.4614 96.6738 83.6729C99.7907 90.3701 99.7107 90.3701 94.2283 94.9254C85.757 101.974 79.3795 110.829 73.1139 119.732C71.2278 122.417 70.077 122.369 68.079 120.1C64.8503 116.407 61.4618 112.875 58.1372 109.279L58.1532 109.263Z" fill="#B2B2B2"/>
<path d="M192.448 203.503C193.311 196.31 193.199 189.117 192.464 181.925C194.797 189.117 194.877 196.31 192.448 203.503Z" fill="#3B666F"/>
<path d="M163.677 131.608C163.677 131.065 163.677 130.521 163.693 129.994C165.084 131.081 166.602 132.072 166.938 134.006C165.851 133.206 164.764 132.407 163.661 131.608H163.677Z" fill="#5CC4DA"/>
<path d="M171.094 138.721C169.607 138.241 168.648 137.298 168.488 135.684C169.895 136.227 170.566 137.41 171.094 138.721Z" fill="#5CC4DA"/>
<path d="M64.6106 237.196C53.5818 237.068 46.3092 231.554 40.2195 224.105C25.6264 206.268 22.6534 175.771 33.5223 155.488C37.2145 148.615 42.2654 143.484 50.8326 143.324C56.315 143.228 60.199 145.514 62.9162 150.229C71.2917 164.806 77.5253 180.342 83.7589 195.878C86.1405 201.808 88.1065 207.866 89.7528 214.036C90.9196 218.415 90.2803 222.363 87.0995 225.896C80.8339 232.848 73.3056 237.004 64.6265 237.196H64.6106Z" fill="#333333"/>
<path d="M126.963 130.713C149.708 138.609 165.467 153.474 171.973 177.002C174.754 187.023 174.77 197.189 167.545 205.788C160.369 214.307 150.858 217.232 139.989 216.082C137.336 215.794 135.482 214.036 133.9 211.926C126.547 202.224 121.193 191.339 115.598 180.614C110.628 171.056 105.928 161.354 102.204 151.236C98.5758 141.39 101.357 134.965 110.963 130.601C116.318 128.907 121.656 129.067 126.979 130.697L126.963 130.713Z" fill="#333333"/>
<path d="M163.677 131.608C167.13 137.074 171.541 141.87 174.61 147.592C182.09 161.561 186.374 176.25 185.207 192.25C185.079 193.976 184.6 195.894 182.506 196.182C180.044 196.534 179.837 194.328 179.517 192.746C178.686 188.734 177.983 184.706 177.359 180.662C173.923 157.981 160.784 142.429 141.284 131.576C131.79 126.286 121.64 123.057 110.787 121.922C104.666 121.283 99.9983 116.919 100.734 113.163C101.757 107.952 108.102 104.5 114.016 104.947C133.18 106.418 147.869 116.264 160.992 129.274C161.839 130.106 162.782 130.841 163.693 131.608H163.677Z" fill="#7BEBF8"/>
<path d="M126.963 130.713C121.624 129.786 116.302 129.434 110.947 130.617C116.302 128.172 121.64 128.315 126.963 130.713Z" fill="#4CA0B4"/>
<path d="M50.369 72.5324C45.4939 72.5324 42.505 69.9591 40.587 64.8123C39.0206 60.6246 40.9226 57.9234 44.0394 55.5898C44.3591 55.35 44.6948 55.1262 45.0144 54.9025C50.5767 50.9865 50.6247 50.9865 54.3169 56.8365C55.5317 58.7386 56.7145 60.6726 57.8973 62.5906C60.6305 67.0021 60.0391 69.08 55.4198 71.3177C53.7096 72.1329 51.9353 72.5964 50.353 72.5324H50.369Z" fill="#343434"/>
<path d="M50.4011 35.6741C53.2941 35.6741 55.7077 35.9937 56.347 38.6151C56.9863 41.2524 54.9244 42.7069 52.8466 43.6979C49.8896 45.1364 46.7888 45.6798 43.8318 43.7778C42.4412 42.8827 42.1855 41.3163 42.9687 39.9097C44.6789 36.8249 47.6199 35.8499 50.4011 35.6901V35.6741Z" fill="#363636"/>
<path d="M65.9691 73.3156C66.0171 68.6324 69.8692 64.1409 73.3376 64.2688C75.9749 64.3647 76.6622 66.0909 76.5983 68.3287C76.5024 72.3565 72.4105 77.1676 69.1658 77.0238C66.5445 76.9119 66.0011 75.0258 65.9691 73.3156Z" fill="#363636"/>
<path d="M72.0748 90.0026C68.8141 90.0026 64.7223 86.1825 64.8502 83.2894C64.9461 80.9878 66.017 79.1337 68.6703 79.0218C71.6592 78.9099 75.7191 83.0976 75.5752 86.2145C75.4634 88.5481 73.8809 89.6509 72.0588 90.0026H72.0748Z" fill="#D94992"/>
<path d="M32.5313 29.4725C32.3715 27.3946 32.7391 25.1729 35.712 24.8372C38.1895 24.5495 40.6031 27.6344 40.683 30.9909C40.7309 33.4205 40.3473 35.6102 37.2944 35.818C34.3214 36.0258 32.5792 33.7881 32.5313 29.4885V29.4725Z" fill="#D94892"/>
<path d="M34.1937 181.573C34.0179 175.275 35.792 167.044 39.5642 159.244C40.9867 156.335 42.9527 153.809 45.6859 152.035C50.417 148.95 54.6208 149.941 57.37 154.88C62.8844 164.758 67.5196 175.052 71.8192 185.505C75.8151 195.207 79.843 204.877 82.6082 215.043C83.4233 218.048 82.6721 220.11 80.6901 222.219C70.6524 232.928 56.4909 232.481 47.0605 221.164C38.0617 210.36 34.1297 197.86 34.1777 181.589L34.1937 181.573Z" fill="#5BC6E0"/>
<path d="M143.49 209.337C141.428 209.576 139.846 208.234 138.471 206.188C129.312 192.57 122.024 177.945 115.039 163.16C112.593 157.997 110.436 152.69 108.406 147.368C106.759 143.084 108.038 140.367 112.082 138.161C115.982 136.051 119.994 136.387 124.102 137.362C144.864 142.269 163.773 163.543 166.171 184.786C168.121 202.032 155.51 208.873 143.49 209.353V209.337Z" fill="#5BC6E0"/>
</svg>
