<svg width="231" height="268" viewBox="0 0 231 268" fill="none" xmlns="http://www.w3.org/2000/svg">
<path d="M195.081 126.603C187.354 169.209 186.883 211.546 199.963 253.327C201.108 256.997 199.862 259.252 196.849 261.003C190.738 264.555 183.92 265.43 177.086 266.154C161.144 267.837 145.169 267.013 129.245 266.003C103.102 264.336 77.0773 261.457 51.1198 257.922C40.8512 256.525 30.5996 255.094 20.3479 253.579C9.74266 252.014 5.1134 247.199 3.16069 236.527C-0.576379 216.108 -0.542714 195.554 0.921813 174.966C3.46369 139.111 9.52383 103.844 19.3042 69.2341C22.9739 56.289 27.4853 43.6469 33.1919 31.4426C41.3058 14.1039 54.9747 4.76122 73.7105 1.88267C91.7394 -0.878051 109.718 -0.255243 127.73 1.52912C160.825 4.81169 193.28 11.562 225.449 19.7936C230.482 21.0898 231.223 22.8406 228.849 27.554C215.349 54.2858 204.794 82.0782 198.263 111.352C197.152 116.419 196.36 121.57 195.031 126.603H195.081Z" fill="#333333"/>
<path d="M195.081 126.603C195.62 121.401 196.461 116.284 198.313 111.352C197.943 116.587 197.269 121.755 195.081 126.603Z" fill="#C4A73B"/>
<path d="M102.53 39.8088C120.272 31.2404 139.261 27.234 158.67 25.0793C177.658 22.9751 196.68 23.3959 215.635 25.9042C220.938 26.6112 220.904 26.5607 218.615 31.3414C205.855 57.7871 196.293 85.3269 189.829 113.961C188.516 117.53 188.146 121.3 187.523 125.004C184.19 144.464 182.035 164.058 182.203 183.821C182.405 206.832 184.813 229.591 191.512 251.728C192.405 254.673 191.529 255.7 188.836 256.475C180.251 258.916 171.463 259.185 162.659 259.404C158.316 259.522 153.99 259.421 149.647 259.421C147.543 258.68 145.371 259.303 143.233 259.067C141.988 258.596 140.641 258.747 139.362 258.528C137.83 258.04 136.231 258.192 134.648 258.124C121.232 255.279 107.799 252.603 94.399 249.741C78.5249 246.358 62.7349 242.536 46.6083 240.382C44.6724 240.129 42.7702 239.557 40.8343 239.288C28.6804 237.587 22.1658 230.046 19.3714 218.666C18.0416 213.229 17.2841 207.708 17.0652 202.068C16.4256 185.302 15.7017 168.536 15.466 151.769C15.2472 136.804 16.2404 121.906 18.2773 107.076C20.5498 92.2792 24.6572 77.9033 29.034 63.6284C32.6027 52.0132 36.6764 40.5663 42.7197 29.9442C44.7902 26.3082 47.046 22.7731 50.7999 20.5511C54.6211 18.733 57.9373 20.551 61.1357 22.2007C64.8896 24.1366 68.0543 26.83 70.5794 30.3483C74.8383 36.2905 78.4744 42.5358 81.4371 49.2188C83.0026 52.737 83.7433 52.9053 86.6219 50.4476C91.5373 46.2729 96.8231 42.721 102.563 39.8088H102.53Z" fill="#FCF3BC"/>
<path d="M18.2437 107.076C17.7387 119.079 17.2506 131.064 16.7455 143.066C16.0554 159.176 17.4189 175.236 17.7556 191.312C17.9576 201.26 18.0754 211.377 21.3075 221.141C24.3712 230.366 29.9095 236.258 39.774 237.773C69.3002 242.318 98.2709 249.64 127.595 255.263C130.188 255.751 132.511 257.384 135.288 256.98C136.584 258.007 138.251 256.929 139.581 257.754C140.742 257.889 142.005 257.636 142.914 258.663C138.385 259.488 133.908 258.579 129.413 258.427C123.606 258.242 117.848 257.266 112.041 257.401C111.351 257.401 110.66 257.417 110.021 257.064C101.335 256.189 92.6653 255.33 83.9792 254.455C76.6734 253.63 69.3507 253.024 62.0954 251.947C48.376 249.994 34.6566 248.007 20.9371 246.088C15.1127 245.264 12.4361 243.109 11.1399 237.352C7.35237 220.4 6.93153 203.196 7.72271 185.959C8.8169 161.735 11.9311 137.73 16.5772 113.927C17.0317 111.621 17.0317 109.197 18.2437 107.076Z" fill="#F0CA44"/>
<path d="M69.3674 10.737C103.893 4.27287 137.662 9.67647 171.413 15.2652L171.497 16.3426C169.157 16.5615 166.817 16.7803 164.478 16.9991C161.969 17.2516 159.461 17.521 156.953 17.7735C134.446 20.0292 112.967 25.9378 92.5811 35.7687C90.6957 36.6777 89.5005 37.048 88.339 34.6071C83.9285 25.2813 78.3566 16.814 69.3674 10.7202V10.737Z" fill="#F0CA44"/>
<path d="M102.53 39.8088C96.6549 44.2361 90.6958 48.5791 84.9218 53.141C82.582 54.9927 82.1275 53.3431 81.4373 51.7944C78.0705 44.2697 74.384 36.9639 69.2329 30.4325C64.469 24.3723 58.5603 20.77 50.7664 20.5511C57.1968 15.3495 63.5263 15.4674 69.6032 20.9215C75.8822 26.5776 79.9054 33.7319 83.1711 41.3912C85.309 46.3908 86.9419 46.9631 91.8573 44.5896C95.3587 42.8894 98.6244 40.6673 102.513 39.8256L102.53 39.8088Z" fill="#EFCA44"/>
<path d="M110.021 257.081C120.979 257.619 131.955 258.141 142.914 258.68C145.136 259.084 147.459 258.495 149.614 259.437C136.349 259.858 123.134 259.235 110.021 257.081Z" fill="#7C6D33"/>
<path d="M62.0784 251.963C69.4515 252.182 76.7405 253.024 83.9621 254.471C76.5553 254.657 69.2663 253.714 62.0784 251.963Z" fill="#7C6D33"/>
<path d="M187.506 125.004C187.287 121.115 187.759 117.378 189.812 113.961C189.375 117.715 188.785 121.435 187.506 125.004Z" fill="#CBC49B"/>
<path d="M125.255 201.378C103.607 199.325 81.4708 197.22 59.3345 195.116C50.1433 194.241 40.9522 193.332 31.761 192.473C29.0003 192.221 26.0039 191.985 26.3069 188.248C26.6099 184.528 29.4884 184.73 32.3165 184.999C62.9369 187.945 93.5741 190.857 124.211 193.769C124.902 193.837 125.609 193.854 126.299 193.921C128.975 194.207 131.601 194.847 131.147 198.298C130.743 201.345 128.352 201.799 125.238 201.361L125.255 201.378Z" fill="#333333"/>
<path d="M120.862 176.38C100.813 174.495 81.1847 172.66 61.5566 170.808C51.1198 169.832 40.6661 168.855 30.2292 167.862C28.9835 167.744 27.7042 167.66 26.4921 167.357C24.4721 166.852 23.2937 165.506 23.6472 163.368C23.9671 161.364 25.196 160.051 27.4012 160.22C32.4176 160.59 37.4509 160.96 42.4505 161.432C67.9366 163.822 93.4059 166.229 118.892 168.637C120.138 168.754 121.383 168.99 122.629 169.108C125.07 169.327 126.636 170.455 126.484 173.081C126.333 175.791 124.514 176.532 122.107 176.397C121.552 176.363 120.996 176.397 120.845 176.397L120.862 176.38Z" fill="#333333"/>
<path d="M51.1871 133.303C73.8957 135.323 96.6043 137.326 119.313 139.346C120.155 139.414 120.979 139.548 121.804 139.649C124.228 139.969 125.676 141.164 125.474 143.807C125.255 146.602 123.336 147.208 121.03 147.022C112.798 146.366 104.583 145.659 96.3687 144.918C74.5018 142.949 52.6349 140.945 30.7679 138.993C28.6974 138.808 26.8457 138.42 26.004 136.249C25.095 133.875 26.6774 132.646 28.3439 131.485C35.9864 131.838 43.5783 132.747 51.204 133.269L51.1871 133.303Z" fill="#333333"/>
<path d="M103.893 227.959C85.2248 225.753 66.3038 223.515 47.3828 221.292C42.3832 220.703 37.3499 220.215 32.3503 219.575C29.8926 219.272 27.9568 218.178 28.3439 215.249C28.7311 212.404 30.7511 211.697 33.2762 212C57.1968 214.879 81.1006 217.791 105.038 220.619C107.849 220.956 109.684 221.999 109.263 225.063C108.842 228.043 106.553 228.211 103.893 227.959Z" fill="#343433"/>
<path d="M132.241 62.5679C137.864 65.3959 142.577 67.7526 147.274 70.1261C148.772 70.8837 150.253 71.6748 151.718 72.4997C153.788 73.6612 154.293 75.4793 153.283 77.4993C152.223 79.6372 150.27 80.0075 148.267 79.0143C139.614 74.7217 130.945 70.446 122.427 65.9009C119.313 64.2512 119.414 61.0697 122.562 59.2685C129.985 55.0432 137.51 50.9863 145.051 46.9799C147.071 45.9025 149.277 45.9194 150.455 48.3266C151.549 50.5823 150.708 52.3835 148.519 53.5787C143.385 56.3899 138.268 59.2179 132.224 62.551L132.241 62.5679Z" fill="#343433"/>
<path d="M45.5646 77.7182C43.6624 77.8024 42.2315 77.0617 41.7602 75.1427C41.2046 72.887 42.2315 71.2709 44.302 70.4461C49.5036 68.3924 54.6884 66.2713 59.991 64.5038C63.4587 63.3423 63.1894 62.2986 60.5802 60.3964C57.9878 58.4942 55.5469 56.3732 53.106 54.2858C51.2375 52.7034 50.7662 50.7339 52.3654 48.7643C53.8636 46.8958 55.8668 47.0305 57.6006 48.4108C62.9706 52.6697 68.3573 56.9287 73.5421 61.4233C75.8146 63.3928 75.3938 66.507 72.6499 67.618C63.9637 71.1194 55.1597 74.3178 46.3894 77.6172C46.1369 77.7182 45.8339 77.7014 45.5646 77.7351V77.7182Z" fill="#343434"/>
<path d="M85.7803 78.5597C85.2752 81.7076 85.9991 84.4346 89.5342 84.8555C93.3386 85.31 94.5169 82.5661 94.9041 79.3172C95.1566 77.2299 95.3923 75.1425 95.7794 73.0888C96.1835 70.9004 97.5302 69.4359 99.8364 69.7725C101.991 70.0924 103.405 71.5737 103.119 73.9136C102.698 77.3813 102.446 80.9164 101.436 84.2326C99.365 91.1008 91.7899 94.3497 85.2079 91.5216C79.1646 88.9293 76.0841 80.7313 78.929 74.789C79.7875 73.0046 81.2857 72.3481 83.0869 72.8194C86.1843 73.6106 86.0664 76.0852 85.7803 78.5597Z" fill="#353534"/>
<path d="M152.526 99.0296C148.654 98.8108 144.395 99.097 142.712 94.4677C141.55 91.2525 144.496 87.5323 149.715 85.3607C154.327 83.4417 159.125 82.7346 163.989 84.3843C169.258 86.1687 170.218 90.5454 166.026 94.2152C162.205 97.5482 157.643 99.1306 152.526 99.0465V99.0296Z" fill="#D94791"/>
<path d="M40.9186 97.363C35.515 97.06 30.4313 95.949 26.6605 91.6059C23.9671 88.5085 24.59 85.3269 28.2092 83.3405C33.9832 80.159 45.7835 82.6335 49.7563 87.8688C52.2982 91.2187 51.3892 94.7033 47.5174 96.3361C45.43 97.2115 43.2248 97.4808 40.9354 97.363H40.9186Z" fill="#D94791"/>
<path d="M51.1872 133.303C43.4942 133.572 35.9023 132.629 28.3271 131.518C31.0374 129.987 33.7307 131.603 36.4073 131.704C41.3564 131.906 46.3391 132.074 51.1872 133.303Z" fill="#807D67"/>
<path d="M139.58 257.754C138.116 257.687 136.517 258.36 135.288 256.98C136.752 257.081 138.318 256.593 139.58 257.754Z" fill="#F4D762"/>
</svg>
