<svg width="87" height="100" viewBox="0 0 87 100" fill="none" xmlns="http://www.w3.org/2000/svg">
<mask id="mask0_23_8923" style="mask-type:luminance" maskUnits="userSpaceOnUse" x="0" y="0" width="87" height="100">
<path d="M0.676758 0H86.3237V99.5173H0.676758V0Z" fill="#EE413C"/>
</mask>
<g mask="url(#mask0_23_8923)">
<path fill-rule="evenodd" clip-rule="evenodd" d="M33.8275 1.12958C14.9896 4.93614 -1.34651 24.1671 0.880798 49.7687C3.1081 75.3713 23.2186 106.568 68.3889 98.101C87.1504 93.5465 85.4033 72.6585 84.5173 62.3594C83.6321 52.0612 91.4146 34.0203 80.1738 16.715C68.9339 -0.589327 47.0947 -1.55168 33.8275 1.12958Z" fill="#EE413C"/>
</g>
<path fill-rule="evenodd" clip-rule="evenodd" d="M17.1214 44.6601C7.49424 49.5528 7.57734 70.2197 19.5797 76.9334C31.5829 83.647 48.9975 79.8128 51.8606 74.4741C56.178 66.4208 46.0754 51.6319 36.2028 46.359C27.8453 41.8959 21.9964 42.1817 17.1214 44.6601Z" fill="#FFD91D"/>
<path fill-rule="evenodd" clip-rule="evenodd" d="M22.7751 50.5255C15.5357 54.2053 15.5279 68.0985 24.5541 73.1466C33.5812 78.1957 45.2124 75.4592 47.2957 71.4077C49.7327 66.6703 44.5495 55.7689 37.1246 51.8032C30.8398 48.4464 26.4412 48.6627 22.7751 50.5255Z" fill="#F3DFA2"/>
<path fill-rule="evenodd" clip-rule="evenodd" d="M84.5177 62.3595C83.9302 55.523 87.1557 45.2753 86.1082 34.0967C84.0259 30.5312 80.4342 29.1105 74.7881 32.0586C68.7604 35.2058 58.1776 48.0871 63.9695 64.107C66.0876 69.9669 77.2628 71.9669 83.449 65.4096C83.8597 64.9741 84.2559 64.4119 84.6356 63.7554C84.596 63.2743 84.5564 62.8036 84.5177 62.3595Z" fill="#FFD91D"/>
<path fill-rule="evenodd" clip-rule="evenodd" d="M73.4206 38.0228C68.8994 40.3839 62.3643 49.4501 66.7088 61.4672C68.2983 65.8626 75.2769 67.9598 79.917 63.0403C84.7224 57.9465 87.113 30.8728 73.4206 38.0228Z" fill="#F3DFA2"/>
<path fill-rule="evenodd" clip-rule="evenodd" d="M42.8477 70.8857C40.3102 65.4298 32.4997 62.1026 27.4624 66.537C27.0054 66.9382 27.3378 67.8758 28.0113 67.6814C30.6096 66.9334 33.1249 66.1111 35.846 66.7562C38.4984 67.3851 40.69 69.0954 42.2245 71.2821C42.4709 71.6328 43.0197 71.2564 42.8477 70.8857Z" fill="#1B122E"/>
<path fill-rule="evenodd" clip-rule="evenodd" d="M71.0354 62.0274C71.8577 57.0022 74.8001 53.7063 78.3628 50.278C78.7899 49.8655 78.3638 49.1318 77.7831 49.39C72.9468 51.5386 70.4257 56.9764 69.96 61.9359C69.8952 62.6258 70.9262 62.6963 71.0354 62.0274Z" fill="#1B122E"/>
<path fill-rule="evenodd" clip-rule="evenodd" d="M70.4156 40.7678C68.5903 40.9203 67.0635 42.8422 66.0634 44.1818C64.7338 45.9627 63.525 48.0351 64.5724 50.2132C64.8932 50.8812 65.7523 51.3728 66.5108 51.188C68.8802 50.6077 69.7527 48.5934 70.4629 46.4639C70.9944 44.8707 71.7742 42.6516 70.9567 41.0404C70.8495 40.8288 70.6427 40.7488 70.4156 40.7678Z" fill="#1B122E"/>
<path fill-rule="evenodd" clip-rule="evenodd" d="M33.1047 55.1659C33.8419 56.7895 36.0663 57.6204 37.6433 58.2149C39.7924 59.0248 41.9027 59.6566 43.8827 58.1987C44.5117 57.7347 44.6692 56.7723 44.3446 56.0977C43.2971 53.9167 40.977 53.5432 38.7285 53.4212C37.0259 53.3298 34.5164 53.2774 33.2332 54.5799C33.0737 54.7419 33.0071 54.9515 33.1047 55.1659Z" fill="#1B122E"/>
<path fill-rule="evenodd" clip-rule="evenodd" d="M69.3628 70.2092C69.7667 69.0992 60.4352 54.1521 57.2513 55.346C54.6452 56.3256 52.6111 75.3164 53.9697 75.5489" fill="#FFD91D"/>
<path fill-rule="evenodd" clip-rule="evenodd" d="M62.4287 76.2603C56.086 78.1907 45.4809 81.4151 48.1382 89.0206C50.4264 95.5665 62.4084 93.0701 66.7432 90.5861C70.6528 88.347 80.0635 85.5818 78.9726 77.6533C77.8807 69.7248 65.658 75.2779 62.4287 76.2603Z" fill="#FFD91D"/>
<path fill-rule="evenodd" clip-rule="evenodd" d="M62.6486 77.9054C57.8055 79.3794 49.709 81.8415 51.7372 87.648C53.4843 92.6456 62.6331 90.74 65.9427 88.8429C68.9285 87.1335 76.1129 85.022 75.2799 78.9678C74.447 72.9144 65.1145 77.1545 62.6486 77.9054Z" fill="#F3DFA2"/>
<path fill-rule="evenodd" clip-rule="evenodd" d="M58.1575 57.5889C56.2771 58.294 54.8103 71.9948 55.7901 72.1625C56.7699 72.3292 66.6029 69.1105 66.8948 68.3102C67.1856 67.5098 60.4535 56.7276 58.1575 57.5889Z" fill="#F3DFA2"/>
<path fill-rule="evenodd" clip-rule="evenodd" d="M63.5275 81.2617C61.7302 81.7677 55.4599 80.8996 54.2897 82.9434C53.1195 84.9863 53.7351 89.5294 65.347 86.2355C76.9589 82.9406 74.1287 77.9382 71.8299 77.579C69.5311 77.2198 63.5275 81.2617 63.5275 81.2617Z" fill="white"/>
<path fill-rule="evenodd" clip-rule="evenodd" d="M59.7632 81.486C60.0299 83.3897 60.343 85.364 60.8821 87.2144C61.3266 87.1515 61.7934 87.0743 62.291 86.9772C61.8832 85.1363 61.3779 83.3078 60.9652 81.4622C60.5787 81.4679 60.1748 81.4755 59.7632 81.486Z" fill="#1B122E"/>
<path fill-rule="evenodd" clip-rule="evenodd" d="M66.7246 79.3365C67.4368 81.2193 68.1441 83.1583 69.0746 84.922C69.4911 84.7381 69.868 84.5523 70.2216 84.3646C69.6177 82.4523 68.7152 80.5809 67.888 78.7362C67.4928 78.9287 67.1024 79.1307 66.7246 79.3365Z" fill="#1B122E"/>
<path fill-rule="evenodd" clip-rule="evenodd" d="M54.5174 36.8002C54.5744 36.8002 54.5744 36.7135 54.5174 36.7135C54.4604 36.7135 54.4604 36.8002 54.5174 36.8002Z" fill="#FFD91D"/>
<path fill-rule="evenodd" clip-rule="evenodd" d="M19.6274 30.5542C18.2398 29.4689 15.9642 29.649 14.6578 30.7657C12.5957 32.5294 12.4237 35.6194 14.1978 37.6604C15.3381 38.9724 16.918 40.1149 18.7413 39.2783C19.8477 38.7723 20.815 37.4374 21.2634 36.3236C22.1369 34.1559 21.446 31.9768 19.6274 30.5542Z" fill="#FFD91D"/>
<path fill-rule="evenodd" clip-rule="evenodd" d="M4.73184 38.1876C2.48714 38.7012 0.819321 40.8002 1.28701 43.1356C1.9006 46.1971 4.94636 47.8445 7.94283 47.2633C10.633 46.7402 11.7993 44.0284 10.8485 41.6425C9.91406 39.2995 7.32633 37.594 4.73184 38.1876Z" fill="#FFD91D"/>
<path fill-rule="evenodd" clip-rule="evenodd" d="M4.3001 58.2235C5.31471 58.1349 6.05103 57.6518 6.79894 57.0163C8.07444 55.9319 7.51882 54.2626 6.19017 53.5804C6.34768 53.6594 6.31579 53.6385 6.09451 53.5175C5.83651 53.3564 5.56788 53.2116 5.29055 53.0839C4.74267 52.8838 3.873 52.8133 3.29999 52.9191C2.55885 53.0544 1.87374 53.528 1.43408 54.154C1.62444 55.3202 1.85249 56.4922 2.11725 57.6671C2.73568 58.0892 3.52127 58.2912 4.3001 58.2235Z" fill="#FFD91D"/>
<path fill-rule="evenodd" clip-rule="evenodd" d="M76.639 17.6956C74.0329 19.6728 74.7219 23.3678 77.1135 25.1477C78.0044 25.8109 79.393 25.9395 80.3844 25.4231C81.6724 24.7523 82.6851 23.486 83.0745 22.1053C82.346 20.4398 81.4686 18.7723 80.4172 17.1106C79.1939 16.6504 77.8498 16.7781 76.639 17.6956Z" fill="#FFD91D"/>
<path fill-rule="evenodd" clip-rule="evenodd" d="M34.1271 18.8058C37.7342 21.1898 39.6359 24.6523 40.1258 28.8896C40.4669 31.8329 39.7393 35.8176 41.0428 38.5475C41.9927 40.5379 44.4316 41.3869 45.8124 39.3278C45.8376 39.2916 45.798 39.2468 45.7574 39.263C42.788 40.5008 43.504 31.2926 43.4856 30.2274C43.447 28.0092 43.2653 25.79 42.5406 23.6747C41.2863 20.0159 38.5836 16.9649 35.2953 14.9154C31.7017 12.6753 27.4094 11.6233 23.2031 11.3222C20.6135 11.1355 17.6624 11.347 14.9278 11.084C13.5866 12.3389 12.315 13.6929 11.1226 15.1393C11.5873 15.2832 12.0589 15.4099 12.5343 15.5061C19.9139 16.9992 27.3147 14.3037 34.1271 18.8058Z" fill="#FFD91D"/>
<path fill-rule="evenodd" clip-rule="evenodd" d="M48.2056 13.6322C47.5765 17.5388 48.1505 21.6245 50.2193 25.0404C51.2175 26.6898 52.5307 28.059 53.9492 29.3587C55.1561 30.4658 62.6797 35.5359 59.7615 37.4167C59.7286 37.4377 59.7499 37.493 59.7866 37.4939C62.9338 37.594 63.2904 34.5792 61.7462 32.4134C59.9943 29.958 57.2327 28.2781 55.2499 26.0114C52.2669 22.6031 51.2446 18.6479 52.1664 14.2372C53.2622 8.99382 56.6684 5.63795 59.8513 1.99528C58.085 1.47599 56.3002 1.06437 54.5164 0.75946C54.4739 0.810913 54.4295 0.863319 54.3879 0.914772C51.403 4.61175 48.9661 8.91283 48.2056 13.6322Z" fill="#FFD91D"/>
<path fill-rule="evenodd" clip-rule="evenodd" d="M34.6496 8.76847C34.7124 8.74942 34.7472 8.63889 34.6621 8.61983C32.2445 8.08053 29.9041 7.50216 27.7889 6.16344C26.8332 5.55839 26.0013 4.79517 25.1558 4.05196C24.2996 4.46168 23.458 4.91237 22.6279 5.38783C23.9498 6.18535 25.092 7.22584 26.5124 7.94904C29.0122 9.22202 31.9584 9.57076 34.6496 8.76847Z" fill="#FFD91D"/>
<path fill-rule="evenodd" clip-rule="evenodd" d="M43.9237 5.7015C43.8947 5.73485 43.9411 5.77773 43.9758 5.76249C46.7433 4.59336 47.584 2.59337 48.4247 0.0855232C47.498 0.0359761 46.581 0.0112025 45.6717 0.00548553C45.8012 1.96832 45.5238 3.87874 43.9237 5.7015Z" fill="#FFD91D"/>
<path fill-rule="evenodd" clip-rule="evenodd" d="M58.1471 21.4656C58.1868 21.5275 58.3017 21.5266 58.3046 21.437C58.4177 17.8544 58.0437 14.6081 59.5125 11.1912C60.7716 8.26033 63.0163 6.04595 65.4987 4.10122C64.8551 3.80394 64.2039 3.53048 63.5478 3.2694C57.9036 7.05309 54.3477 15.4228 58.1471 21.4656Z" fill="#FFD91D"/>
<path fill-rule="evenodd" clip-rule="evenodd" d="M8.68137 24.4873C14.7613 24.8885 26.0485 20.1967 30.0664 25.9642C30.4703 26.5435 31.4144 25.9194 31.1051 25.3048C29.2528 21.6307 25.6137 20.8008 21.7186 20.5235C18.0728 20.2644 12.2557 20.818 7.88032 19.6136C6.99906 21.0066 6.17964 22.4578 5.44043 23.9718C6.44827 24.2558 7.55854 24.413 8.68137 24.4873Z" fill="#FFD91D"/>
<path fill-rule="evenodd" clip-rule="evenodd" d="M33.8272 1.12906C20.3281 3.85701 8.11706 14.5068 3.09717 29.7445C3.83058 28.7459 4.61521 27.7826 5.4269 26.8583C13.3167 17.8798 24.0966 11.4082 35.8071 8.61831C47.5186 5.82842 60.1055 6.73266 71.2826 11.169C73.967 12.2343 76.5798 13.5244 79.0236 15.0556C67.4976 -0.647015 46.6557 -1.46264 33.8272 1.12906Z" fill="#EE413C"/>
</svg>
