<svg width="430" height="407" viewBox="0 0 430 407" fill="none" xmlns="http://www.w3.org/2000/svg">
<path opacity="0.127279" fill-rule="evenodd" clip-rule="evenodd" d="M63.197 154.387L61.7368 135.783C55.3976 55.0554 138.471 -10.1328 233.101 1.30764C287.76 11.9352 355.726 49.6684 437 114.507L436.989 195.767C425.225 202.026 415.608 205.638 408.139 206.604C381.568 210.04 360.018 226.616 353.447 248.674C338.204 354.717 217.836 426.259 94.8092 402.397L87.6737 400.879C62.1891 395.454 30.9646 373.633 -6 335.416L-5.82515 236.555C0.210532 231.553 5.02249 227.994 8.61071 225.877C37.1774 209.027 56.7798 183.353 63.197 154.387Z" fill="url(#paint0_radial_22_3815)"/>
<defs>
<radialGradient id="paint0_radial_22_3815" cx="0" cy="0" r="1" gradientUnits="userSpaceOnUse" gradientTransform="translate(-24248.6 17100.8) rotate(90) scale(37492.8 52200.2)">
<stop stop-color="#2D2599"/>
<stop offset="1"/>
</radialGradient>
</defs>
</svg>
