<svg width="66" height="52" viewBox="0 0 66 52" fill="none" xmlns="http://www.w3.org/2000/svg">
<path fill-rule="evenodd" clip-rule="evenodd" d="M22.7421 4H43.2579C48.697 4 52.5092 4.92826 55.7685 6.67133C59.0277 8.4144 61.5856 10.9723 63.3287 14.2315C65.0717 17.4908 66 21.303 66 26.7421V29.0979C66 34.537 65.0717 38.3492 63.3287 41.6085C61.5856 44.8677 59.0277 47.4256 55.7685 49.1687C52.5092 50.9117 48.697 51.84 43.2579 51.84H22.7421C17.303 51.84 13.4908 50.9117 10.2315 49.1687C6.97228 47.4256 4.4144 44.8677 2.67133 41.6085C0.928256 38.3492 0 34.537 0 29.0979L0 26.7421C0 21.303 0.928256 17.4908 2.67133 14.2315C4.4144 10.9723 6.97228 8.4144 10.2315 6.67133C13.4908 4.92826 17.303 4 22.7421 4Z" fill="#EA9975"/>
<path d="M22.3865 0L43.6135 0C48.6259 0 52.5092 0.928256 55.7685 2.67133C59.0277 4.4144 61.5856 6.97228 63.3287 10.2315C65.0717 13.4908 66 17.3741 66 22.3865V23.6135C66 28.6259 65.0717 32.5092 63.3287 35.7685C61.5856 39.0277 59.0277 41.5856 55.7685 43.3287C52.5092 45.0717 48.6259 46 43.6135 46H22.3865C17.3741 46 13.4908 45.0717 10.2315 43.3287C6.97228 41.5856 4.4144 39.0277 2.67133 35.7685C0.928256 32.5092 0 28.6259 0 23.6135L0 22.3865C0 17.3741 0.928256 13.4908 2.67133 10.2315C4.4144 6.97228 6.97228 4.4144 10.2315 2.67133C13.4908 0.928256 17.3741 0 22.3865 0Z" fill="#FBC399"/>
<mask id="mask0_23_6118" style="mask-type:luminance" maskUnits="userSpaceOnUse" x="0" y="0" width="66" height="46">
<path d="M22.3865 0L43.6135 0C48.6259 0 52.5092 0.928256 55.7685 2.67133C59.0277 4.4144 61.5856 6.97228 63.3287 10.2315C65.0717 13.4908 66 17.3741 66 22.3865V23.6135C66 28.6259 65.0717 32.5092 63.3287 35.7685C61.5856 39.0277 59.0277 41.5856 55.7685 43.3287C52.5092 45.0717 48.6259 46 43.6135 46H22.3865C17.3741 46 13.4908 45.0717 10.2315 43.3287C6.97228 41.5856 4.4144 39.0277 2.67133 35.7685C0.928256 32.5092 0 28.6259 0 23.6135L0 22.3865C0 17.3741 0.928256 13.4908 2.67133 10.2315C4.4144 6.97228 6.97228 4.4144 10.2315 2.67133C13.4908 0.928256 17.3741 0 22.3865 0Z" fill="#B67C62"/>
</mask>
<g mask="url(#mask0_23_6118)">
<path d="M43.1549 25.2636C44.2199 24.206 44.2138 22.4903 43.1457 21.4387L35.9516 14.354C32.9899 11.4636 28.5427 15.7992 31.5075 18.6896L31.5382 18.7196C32.462 19.612 32.1551 20.3361 30.8538 20.3361H25.0869C23.3559 20.3361 21.9502 21.7122 21.9502 23.4188V23.3827C21.9502 25.0863 23.3528 26.4654 25.0869 26.4654H30.8538C32.1551 26.4654 32.459 27.1925 31.5382 28.0819L31.5075 28.112C28.5427 31.0024 32.9899 35.338 35.9516 32.4476L43.1549 25.2636Z" fill="#B67C62"/>
</g>
</svg>
