<svg width="32" height="33" viewBox="0 0 32 33" fill="none" xmlns="http://www.w3.org/2000/svg">
<path d="M31.6888 13.7064H30.4V13.64H16V20.04H25.0424C23.7232 23.7656 20.1784 26.44 16 26.44C10.6984 26.44 6.4 22.1416 6.4 16.84C6.4 11.5384 10.6984 7.24 16 7.24C18.4472 7.24 20.6736 8.1632 22.3688 9.6712L26.8944 5.1456C24.0368 2.4824 20.2144 0.839996 16 0.839996C7.164 0.839996 0 8.004 0 16.84C0 25.676 7.164 32.84 16 32.84C24.836 32.84 32 25.676 32 16.84C32 15.7672 31.8896 14.72 31.6888 13.7064Z" fill="white"/>
<path d="M1.84473 9.3928L7.10153 13.248C8.52393 9.7264 11.9687 7.24 15.9999 7.24C18.4471 7.24 20.6735 8.1632 22.3687 9.6712L26.8943 5.1456C24.0367 2.4824 20.2143 0.839996 15.9999 0.839996C9.85433 0.839996 4.52473 4.3096 1.84473 9.3928Z" fill="white"/>
<path d="M15.9999 32.84C20.1327 32.84 23.8879 31.2584 26.7271 28.6864L21.7751 24.496C20.1147 25.7587 18.0858 26.4416 15.9999 26.44C11.8383 26.44 8.30466 23.7864 6.97346 20.0832L1.75586 24.1032C4.40386 29.2848 9.78146 32.84 15.9999 32.84Z" fill="white"/>
<path d="M31.6888 13.7064H30.4V13.64H16V20.04H25.0424C24.4114 21.8131 23.2747 23.3625 21.7728 24.4968L21.7752 24.4952L26.7272 28.6856C26.3768 29.004 32 24.84 32 16.84C32 15.7672 31.8896 14.72 31.6888 13.7064Z" fill="white"/>
</svg>
