<svg width="430" height="231" viewBox="0 0 430 231" fill="none" xmlns="http://www.w3.org/2000/svg">
<path fill-rule="evenodd" clip-rule="evenodd" d="M110.921 128.201C124.522 118.637 133.856 104.065 136.912 87.6251L136.216 77.0658C133.198 31.2477 172.753 -5.75106 217.811 0.742175C260.156 10.5558 297.049 36.6207 320.669 73.4106L320.675 73.4202C331.866 90.8513 321.503 114.125 301.154 117.262C288.503 119.212 278.241 128.62 275.113 141.139C267.855 201.325 210.542 241.931 151.964 228.387L148.566 227.526C128.593 222.458 103.39 189.639 103.39 189.639C87.2932 170.975 90.8015 142.347 110.921 128.201Z" fill="#EAEBF0"/>
<path fill-rule="evenodd" clip-rule="evenodd" d="M140.867 84.4896L140.361 84.8241C135.343 88.7599 134.479 96.0037 138.431 101.002C142.383 106 149.654 106.859 154.671 102.925L167.452 92.8972L183.534 100.64C189.283 103.409 196.199 101.009 198.978 95.2804C201.757 89.551 199.349 82.6634 193.598 79.8959C176.38 72.4009 156.518 74.1312 140.867 84.4896Z" fill="#F2BCA7"/>
<path fill-rule="evenodd" clip-rule="evenodd" d="M119.332 117.93C118.7 139.28 135.56 157.099 156.994 157.729L168.294 158.304C189.728 158.931 207.614 142.137 208.244 120.784C208.877 99.4339 192.017 81.6157 170.583 80.9856L159.285 80.413C137.849 79.7829 119.963 96.5807 119.332 117.93Z" fill="#FCD9C3"/>
<mask id="mask0_22_1557" style="mask-type:luminance" maskUnits="userSpaceOnUse" x="-111" y="88" width="265" height="65">
<path d="M153.598 88.7633V152.936L-111 152.936V88.7633L153.598 88.7633Z" fill="#FCD9C3"/>
</mask>
<g mask="url(#mask0_22_1557)">
<path fill-rule="evenodd" clip-rule="evenodd" d="M130.469 100.75L-87.8711 88.7633C-100.644 88.7633 -111 111.065 -111 123.789C-111 136.514 -100.644 152.936 -87.8711 152.936L130.469 146.829C143.243 146.829 153.598 136.514 153.598 123.789C153.598 111.065 143.243 100.75 130.469 100.75Z" fill="#FCD9C3"/>
</g>
<mask id="mask1_22_1557" style="mask-type:luminance" maskUnits="userSpaceOnUse" x="-111" y="80" width="282" height="69">
<path d="M170.583 80.2166V148.176L-111 148.176V80.2166L170.583 80.2166Z" fill="#F2BCA7"/>
</mask>
<g mask="url(#mask1_22_1557)">
<path fill-rule="evenodd" clip-rule="evenodd" d="M127.761 103.566C126.037 106.643 122.25 107.97 118.718 107.77L-80.9739 97.3003C-93.7469 97.3003 -104.101 125.708 -104.101 138.433C-104.101 141.92 -103.302 145.213 -101.91 148.176C-107.427 143.964 -111 131.248 -111 123.79C-111 111.065 -100.644 88.7633 -87.8708 88.7633L120.056 100.529C122.361 100.66 124.548 99.5499 125.829 97.637C133.007 86.9157 145.257 77.4024 170.583 80.9856C170.583 80.9856 142.526 77.2034 127.761 103.566Z" fill="#F2BCA7"/>
</g>
<path fill-rule="evenodd" clip-rule="evenodd" d="M180.805 90.8232C175.807 91.4198 172.234 95.9346 172.819 100.92C173.407 105.911 177.946 109.483 182.956 108.898L215.464 105.101C215.471 105.1 257.616 100.071 257.623 100.07C262.622 99.473 266.196 94.9582 265.61 89.9742C265.022 84.982 260.483 81.4104 255.473 81.9952L180.829 90.8203C180.822 90.8212 180.813 90.8223 180.805 90.8232Z" fill="#FCD9C3"/>
<path fill-rule="evenodd" clip-rule="evenodd" d="M255.888 85.4521C255.888 85.4521 175.806 91.4197 180.804 90.8233C180.813 90.8222 180.822 90.8213 180.828 90.8204L255.473 81.9953C260.483 81.4103 265.021 84.982 265.609 89.9744C265.678 90.5558 265.685 91.1309 265.643 91.6947C264.334 87.6402 260.296 84.9374 255.888 85.4521Z" fill="#F2BCA7"/>
<path fill-rule="evenodd" clip-rule="evenodd" d="M210.08 124.26H210.056L177.574 124.344C172.529 124.358 168.45 128.443 168.462 133.469C168.476 138.487 172.565 142.545 177.597 142.545H177.622L210.102 142.461C215.148 142.447 219.228 138.362 219.214 133.337C219.201 128.319 215.114 124.26 210.08 124.26Z" fill="#FCD9C3"/>
<path fill-rule="evenodd" clip-rule="evenodd" d="M210.042 129.642C210.034 129.64 210.05 129.642 210.042 129.642C210.042 129.642 191.821 126.197 184.933 125.532L184.464 124.26H210.056H210.08C215.114 124.26 219.214 128.319 219.214 133.337C219.214 135.871 218.578 136.398 218.477 136.946C217.695 132.709 214.464 130.832 210.042 129.642Z" fill="#F2BCA7"/>
<path fill-rule="evenodd" clip-rule="evenodd" d="M186.35 107.385C181.331 107.003 176.944 110.74 176.546 115.743C176.149 120.753 179.904 125.136 184.933 125.532L217.562 128.103C217.569 128.103 259.891 131.33 259.898 131.331C264.919 131.714 269.304 127.977 269.703 122.975C270.1 117.964 266.345 113.581 261.316 113.185L186.373 107.387C186.367 107.387 186.358 107.386 186.35 107.385Z" fill="#FCD9C3"/>
<path fill-rule="evenodd" clip-rule="evenodd" d="M205.328 140.036H205.304L172.824 140.12C167.778 140.134 163.698 144.218 163.712 149.244C163.726 154.262 167.813 158.321 172.847 158.321H172.871L205.352 158.237C210.398 158.223 214.476 154.138 214.464 149.113C214.451 144.094 210.362 140.036 205.328 140.036Z" fill="#FCD9C3"/>
<path fill-rule="evenodd" clip-rule="evenodd" d="M205.328 143.352H205.304C205.304 143.352 176.859 140.134 181.905 140.12L205.304 140.036H205.328C210.362 140.036 214.451 144.094 214.464 149.112C214.466 149.689 214.408 150.252 214.304 150.8C213.523 146.562 209.804 143.352 205.328 143.352Z" fill="#F2BCA7"/>
<path fill-rule="evenodd" clip-rule="evenodd" d="M261.049 116.657C261.049 116.657 206.71 108.961 206.717 108.961L261.316 113.185C266.345 113.581 270.1 117.964 269.703 122.975C269.656 123.559 269.551 124.124 269.4 124.669C268.906 120.438 265.473 117.005 261.049 116.657Z" fill="#F2BCA7"/>
<path fill-rule="evenodd" clip-rule="evenodd" d="M264.503 95.5311L254.289 97.0264C253.17 97.1958 252.025 97.0445 250.989 96.5904C247.884 95.2287 246.615 91.6319 247.958 88.6978C248.205 88.1588 248.552 87.6717 248.949 87.2307C250.151 85.8948 251.808 85.0517 253.599 84.8651L262.057 83.7291L262.642 84.1269C266.424 86.6972 267.273 91.8995 264.503 95.5311Z" fill="#CE4EAA"/>
<path fill-rule="evenodd" clip-rule="evenodd" d="M267.141 128.341L256.846 127.563C255.718 127.483 254.634 127.085 253.724 126.415C250.996 124.406 250.551 120.619 252.509 118.051C252.869 117.58 253.315 117.18 253.799 116.837C255.266 115.797 257.07 115.338 258.858 115.548L267.359 116.292L267.843 116.808C270.965 120.144 270.645 125.405 267.141 128.341Z" fill="#CE4EAA"/>
<path d="M111.916 100.871C99.8101 77.0653 110.469 167.676 123.865 157.524C125.857 156.014 125.636 148.681 125.01 146.06" stroke="#FFB600" stroke-width="1.3608"/>
<path d="M111.049 148.541C111.589 176.664 78.2343 90.3578 94.8645 91.4863C97.337 91.6539 100.603 98.2628 101.287 100.946" stroke="#FFB600" stroke-width="1.3608"/>
<path fill-rule="evenodd" clip-rule="evenodd" d="M276.799 82.9476C273.249 89.8038 272.478 97.2207 274.487 105.198C275.942 110.978 292.196 111.062 290.325 116.802C289.734 118.617 284.874 117.948 285.429 119.775L275.745 118.443C277.429 123.981 286.071 124.924 288.582 130.14C289.523 132.095 284.983 132.652 282.944 133.395C282.882 133.418 277.234 130.413 267.266 125.067C255.45 118.729 242.322 134.826 236.404 141.445C226.309 152.736 230.217 163.314 230.217 177.558C230.217 185.181 225.173 188.106 222.205 187.775C210.201 186.438 227.756 166.526 218.536 154.91C210.607 144.919 208.74 164.362 201.036 159.123C197.591 156.78 206.239 129.236 190.496 141.14C188.748 142.462 186.17 145.418 184.001 146.371C170.413 152.345 190.187 133.303 179.219 121.963C172.072 114.574 146.628 136.944 138.91 139.81C135.875 140.937 128.781 140.559 128.42 135.374C127.356 120.067 172.598 125.073 173.118 107.952C173.209 104.948 170.57 102.166 170.99 99.1901C171.429 96.0822 175.543 94.074 175.521 90.9353C175.46 82.4886 161.406 88.8497 158.051 80.3431C157.668 79.3721 157.579 78.0353 158.226 77.2169C168.982 63.6281 171.954 91.806 184.862 74.4275C186.632 72.0436 177.423 67.4862 175.521 63.2865C173.618 59.0868 178.499 56.5215 183.282 63.2865C184.415 64.8886 185.736 67.8126 190.746 68.7312C221.814 74.4275 220.42 62.2206 224.045 54.8039C226.878 49.0085 229.339 48.9576 231.428 54.6511C231.464 54.7517 231.504 54.8509 231.547 54.9489L233.364 59.0452C234.578 61.7814 236.733 63.9907 239.439 65.2709L276.799 82.9476Z" fill="#E95847"/>
<path fill-rule="evenodd" clip-rule="evenodd" d="M226.481 44.2435C221.979 32.3359 233.355 33.0064 231.937 40.0575C231.122 44.1118 229.511 43.9655 226.886 44.524L226.481 44.2435Z" fill="#E95847"/>
<path fill-rule="evenodd" clip-rule="evenodd" d="M178.711 151.389C176.33 159.535 170.542 154.614 174.126 151.429C176.187 149.597 176.986 150.322 178.608 151.077L178.711 151.389Z" fill="#E95847"/>
<mask id="mask2_22_1557" style="mask-type:luminance" maskUnits="userSpaceOnUse" x="210" y="123" width="69" height="33">
<path d="M210.072 155.669V123.537H278.305V155.669H210.072Z" fill="#EA9975"/>
</mask>
<g mask="url(#mask2_22_1557)">
<path fill-rule="evenodd" clip-rule="evenodd" d="M273.079 145.848L273.616 145.491C278.951 141.291 279.87 133.559 275.668 128.225C271.467 122.89 263.737 121.973 258.404 126.173L244.816 136.875L227.718 128.611C221.606 125.655 214.255 128.217 211.3 134.331C208.346 140.446 210.906 147.798 217.019 150.751C235.324 158.751 256.439 156.904 273.079 145.848Z" fill="#EA9975"/>
</g>
<path fill-rule="evenodd" clip-rule="evenodd" d="M295.972 110.157C296.644 87.3702 278.721 68.3517 255.933 67.6793L243.92 67.0664C221.133 66.3966 202.119 84.3213 201.448 107.111C200.776 129.898 218.7 148.916 241.487 149.588L253.498 150.199C276.287 150.872 295.301 132.944 295.972 110.157Z" fill="#FBC399"/>
<path fill-rule="evenodd" clip-rule="evenodd" d="M284.132 128.494L516.252 141.287C529.831 141.287 540.841 117.485 540.841 103.903C540.841 90.322 529.831 72.7956 516.252 72.7956L284.132 79.3128C270.551 79.3128 259.543 90.322 259.543 103.903C259.543 117.485 270.551 128.494 284.132 128.494Z" fill="#FBC399"/>
<path fill-rule="evenodd" clip-rule="evenodd" d="M234.155 140.477L246.166 141.088C260.257 141.503 272.898 134.802 280.657 124.242C282.883 121.211 286.516 119.541 290.271 119.754L508.921 132.175C522.499 132.175 533.507 101.856 533.507 88.2745C533.507 84.5524 532.658 81.0375 531.178 77.8754C537.043 82.3706 540.841 95.9428 540.841 103.903C540.841 117.485 529.832 141.287 516.252 141.287L295.203 128.729C292.753 128.59 290.427 129.775 289.066 131.816C281.434 143.259 268.262 150.635 253.498 150.2L241.487 149.588C226.823 149.156 214.183 141.121 207.208 129.379C214.287 135.996 223.706 140.169 234.155 140.477Z" fill="#EA9975"/>
<path fill-rule="evenodd" clip-rule="evenodd" d="M234.966 137.685C240.318 137.685 244.662 133.354 244.677 127.998C244.69 122.634 240.354 118.274 234.99 118.26L202.02 118.172H201.995C196.643 118.172 192.297 122.503 192.284 127.859C192.269 133.222 196.605 137.583 201.969 137.598L234.939 137.685H234.966Z" fill="#FBC399"/>
<path fill-rule="evenodd" clip-rule="evenodd" d="M201.969 133.473C201.969 133.473 240.318 137.686 234.966 137.686H234.938L201.969 137.598C196.605 137.583 192.269 133.222 192.284 127.859C192.286 127.158 192.364 126.476 192.507 125.818C193.451 130.183 197.321 133.46 201.969 133.473Z" fill="#EA9975"/>
<mask id="mask3_22_1557" style="mask-type:luminance" maskUnits="userSpaceOnUse" x="188" y="101" width="55" height="21">
<path d="M188.586 121.035V101.521H242.806V121.035H188.586Z" fill="#FBC399"/>
</mask>
<g mask="url(#mask3_22_1557)">
<path fill-rule="evenodd" clip-rule="evenodd" d="M233.095 121.035C238.446 121.035 242.791 116.703 242.806 111.346C242.818 105.982 238.481 101.622 233.119 101.608L198.322 101.521H198.298C192.945 101.521 188.6 105.853 188.585 111.209C188.573 116.574 192.91 120.933 198.273 120.947L233.069 121.035H233.095Z" fill="#FBC399"/>
</g>
<mask id="mask4_22_1557" style="mask-type:luminance" maskUnits="userSpaceOnUse" x="188" y="109" width="46" height="13">
<path d="M188.586 121.035V109.382H233.586V121.035H188.586Z" fill="#EA9975"/>
</mask>
<g mask="url(#mask4_22_1557)">
<path fill-rule="evenodd" clip-rule="evenodd" d="M198.273 117.231C198.273 117.231 238.446 121.035 233.095 121.035H233.069L198.273 120.947C192.91 120.933 188.573 116.574 188.585 111.209C188.587 110.584 188.653 109.974 188.768 109.382C189.636 113.844 193.555 117.219 198.273 117.231Z" fill="#EA9975"/>
</g>
<path fill-rule="evenodd" clip-rule="evenodd" d="M199.497 103.401H199.522L234.054 103.311C239.419 103.297 243.754 98.937 243.741 93.5728C243.727 88.2171 239.38 83.8856 234.031 83.8856H234.003L199.473 83.9751C194.109 83.9896 189.772 88.3496 189.786 93.7135C189.801 99.0695 194.146 103.401 199.497 103.401Z" fill="#FBC399"/>
<path fill-rule="evenodd" clip-rule="evenodd" d="M199.497 99.8606H199.522C199.522 99.8606 239.419 103.297 234.054 103.311L199.522 103.401H199.497C194.146 103.401 189.801 99.0694 189.786 93.7137C189.785 93.0977 189.847 92.4976 189.954 91.9128C190.786 96.4352 194.741 99.8606 199.497 99.8606Z" fill="#EA9975"/>
<path fill-rule="evenodd" clip-rule="evenodd" d="M204.549 86.5635H204.574L239.105 86.4739C244.469 86.4592 248.806 82.0994 248.791 76.7353C248.777 71.3796 244.432 67.048 239.081 67.048H239.055L204.524 67.1376C199.159 67.1521 194.824 71.5121 194.836 76.876C194.851 82.2319 199.197 86.5635 204.549 86.5635Z" fill="#FBC399"/>
<path fill-rule="evenodd" clip-rule="evenodd" d="M204.549 83.024H204.574C204.574 83.024 244.469 86.4593 239.105 86.4738L204.574 86.5636H204.549C199.197 86.5636 194.851 82.2318 194.836 76.8761C194.835 76.2604 194.897 75.6601 195.006 75.0752C195.838 79.5979 199.791 83.024 204.549 83.024Z" fill="#EA9975"/>
<path d="M297 95.2637L302.38 91.7488" stroke="#EA9975" stroke-width="1.449" stroke-linecap="round"/>
<path d="M288.657 111.882L294.981 113.024" stroke="#EA9975" stroke-width="1.449" stroke-linecap="round"/>
<path d="M305.726 105.093L312.093 104.219" stroke="#EA9975" stroke-width="1.449" stroke-linecap="round"/>
<path d="M287.424 87.2564L293.791 86.3816" stroke="#EA9975" stroke-width="1.449" stroke-linecap="round"/>
<path d="M348.36 94.3179L354.726 93.4431" stroke="#EA9975" stroke-width="1.449" stroke-linecap="round"/>
<path d="M370.334 91.8739L376.485 90.0124" stroke="#EA9975" stroke-width="1.449" stroke-linecap="round"/>
<path d="M359.265 83.1663L365.631 82.2915" stroke="#EA9975" stroke-width="1.449" stroke-linecap="round"/>
<path d="M327.616 99.1982L333.896 100.563" stroke="#EA9975" stroke-width="1.449" stroke-linecap="round"/>
<path d="M360.538 104.252L366.818 105.617" stroke="#EA9975" stroke-width="1.449" stroke-linecap="round"/>
<path d="M382.773 100.669L389.167 100.019" stroke="#EA9975" stroke-width="1.449" stroke-linecap="round"/>
<path d="M313.349 114.699L318.678 118.291" stroke="#EA9975" stroke-width="1.449" stroke-linecap="round"/>
<path d="M304.316 123.23L309.645 126.823" stroke="#EA9975" stroke-width="1.449" stroke-linecap="round"/>
<path d="M344.176 112.811L350.109 115.281" stroke="#EA9975" stroke-width="1.449" stroke-linecap="round"/>
<path d="M364.375 117.182L370.07 120.16" stroke="#EA9975" stroke-width="1.449" stroke-linecap="round"/>
<path d="M327.864 111.843L333.193 115.435" stroke="#EA9975" stroke-width="1.449" stroke-linecap="round"/>
<path d="M380.983 114.834L386.312 118.426" stroke="#EA9975" stroke-width="1.449" stroke-linecap="round"/>
<path d="M384.839 128.199L390.168 131.791" stroke="#EA9975" stroke-width="1.449" stroke-linecap="round"/>
<path d="M328.774 124.796L332.274 130.186" stroke="#EA9975" stroke-width="1.449" stroke-linecap="round"/>
<path d="M315.807 89.5212L321.479 86.5008" stroke="#EA9975" stroke-width="1.449" stroke-linecap="round"/>
<path d="M336.929 87.8828L342.601 84.8624" stroke="#EA9975" stroke-width="1.449" stroke-linecap="round"/>
<path d="M390.843 88.3291L396.515 85.3088" stroke="#EA9975" stroke-width="1.449" stroke-linecap="round"/>
</svg>
