<svg width="166" height="373" viewBox="0 0 166 373" fill="none" xmlns="http://www.w3.org/2000/svg">
<path opacity="0.385184" fill-rule="evenodd" clip-rule="evenodd" d="M130.721 292.531C131.352 295.616 131.758 298.556 131.951 301.337C125.811 299.1 118.867 301.877 116.022 307.917L108.893 323.057L95.7441 322.829C85.1492 305.565 85.4589 290.015 87.7504 279.731C89.3701 278.523 91.1898 277.542 93.2174 276.955C104.334 273.735 120.139 278.388 125.293 280.449C128.375 281.692 131.657 281.647 134.543 280.567C131.387 283.513 129.793 287.987 130.721 292.531ZM27.8523 283.854C35.0545 322.935 52.8615 358.156 76.2209 363.751C80.1089 365.591 101.765 375.099 123.583 369.9C123.589 369.899 123.594 369.898 123.599 369.896C123.983 369.805 124.368 369.708 124.752 369.607C124.791 369.596 124.83 369.587 124.869 369.577C125.219 369.484 125.568 369.386 125.918 369.285C125.99 369.264 126.063 369.245 126.136 369.224C126.452 369.132 126.767 369.033 127.083 368.934C127.187 368.901 127.293 368.871 127.397 368.837C127.684 368.745 127.971 368.647 128.257 368.549C128.389 368.504 128.521 368.462 128.652 368.416C128.919 368.323 129.185 368.224 129.451 368.125C129.601 368.07 129.751 368.017 129.901 367.96C130.166 367.859 130.43 367.752 130.694 367.646C130.844 367.586 130.994 367.53 131.143 367.468C131.556 367.298 131.967 367.122 132.378 366.94C160.231 354.555 160.328 314.053 160.248 309.475C160.195 306.602 159.203 303.968 157.572 301.858C157.397 297.216 156.808 292.377 155.786 287.381C155.228 284.653 153.844 282.309 151.948 280.552C149.025 277.842 144.885 276.535 140.686 277.398C140.029 277.533 139.395 277.717 138.785 277.944C140.113 276.707 141.2 275.169 141.926 273.375C143.082 270.523 143.138 267.497 142.295 264.769C141.871 263.286 140.916 261.139 138.76 259.14C137.658 258.118 136.356 257.274 134.883 256.676C132.165 255.571 107.718 246.065 86.1197 252.32C85.7136 252.438 85.3127 252.562 84.9158 252.69C84.8075 252.725 84.7013 252.762 84.5936 252.798C84.2915 252.899 83.9909 253 83.694 253.107C83.6163 253.135 83.5398 253.164 83.4628 253.192C83.1175 253.318 82.776 253.447 82.4378 253.581C82.4215 253.587 82.4049 253.594 82.3889 253.6C82.3833 253.603 82.378 253.605 82.3726 253.607C81.9926 211.879 103.901 73.3896 137.609 6.94544C142.916 -3.51591 80.806 12.8528 72.6189 5.26328C70.9226 3.69074 68.9842 2.32333 66.8261 1.2247C66.4679 1.04188 66.1067 0.871519 65.7444 0.707335C65.6888 0.682344 65.6333 0.655797 65.5774 0.631105C65.237 0.480091 64.8949 0.338113 64.5514 0.202978C64.4748 0.173254 64.3984 0.143231 64.3217 0.113812C63.9853 -0.0149733 63.6475 -0.13661 63.3087 -0.24984C63.2301 -0.276485 63.1514 -0.300932 63.0728 -0.326631C62.729 -0.438087 62.3847 -0.543905 62.039 -0.640101C61.9789 -0.656747 61.9188 -0.671196 61.8586 -0.687231C61.5501 -0.770602 61.2411 -0.847112 60.931 -0.91836C60.8483 -0.9376 60.7655 -0.957754 60.6824 -0.976053C60.3572 -1.04723 60.0314 -1.1103 59.7053 -1.1684C59.5951 -1.18778 59.4847 -1.2075 59.3745 -1.22597C59.061 -1.27728 58.7474 -1.32302 58.4337 -1.36249C58.3126 -1.3777 58.1914 -1.39169 58.0703 -1.40504C57.7655 -1.43874 57.461 -1.46933 57.1564 -1.49211C57.0311 -1.50147 56.9058 -1.50771 56.7805 -1.51552C56.5414 -1.52967 56.3028 -1.5407 56.0639 -1.5511C55.8922 -1.5541 55.721 -1.55708 55.5492 -1.56008C55.3078 -1.5643 55.0665 -1.56195 54.8252 -1.55773C54.6739 -1.55537 54.5229 -1.55276 54.3718 -1.54758C54.0977 -1.53802 53.8242 -1.52344 53.5512 -1.50513C53.386 -1.49428 53.2208 -1.48093 53.0559 -1.46696C52.8327 -1.44714 52.6095 -1.42487 52.3868 -1.39974C52.1747 -1.376 51.9629 -1.34847 51.7513 -1.31941C51.5906 -1.29725 51.4302 -1.27292 51.2698 -1.24733C50.9989 -1.20463 50.7288 -1.15758 50.4596 -1.10612C50.3159 -1.07838 50.1722 -1.05061 50.0292 -1.02035C49.7521 -0.962497 49.4761 -0.89934 49.201 -0.832689C49.0588 -0.797752 48.9163 -0.7634 48.7746 -0.726254C48.581 -0.67567 48.3881 -0.622877 48.1957 -0.567602C48.078 -0.533792 47.961 -0.497438 47.844 -0.46206C47.5404 -0.370328 47.2387 -0.273895 46.9387 -0.171205C46.836 -0.135578 46.7336 -0.0986632 46.6311 -0.0620845C46.3189 0.0494563 46.009 0.166624 45.7012 0.290086C45.604 0.329259 45.5071 0.368742 45.4102 0.409172C39.9812 2.66776 34.7977 5.54069 32.4218 12.4581C-0.778071 109.117 27.7835 283.48 27.8523 283.854Z" fill="#232586"/>
<mask id="mask0_22_3940" style="mask-type:luminance" maskUnits="userSpaceOnUse" x="10" y="-63" width="119" height="376">
<path d="M128.502 310.498L17.244 312.44L10.7306 -60.7129L121.989 -62.6549L128.502 310.498Z" fill="#FCD9C3"/>
</mask>
<g mask="url(#mask0_22_3940)">
<path fill-rule="evenodd" clip-rule="evenodd" d="M96.3058 -53.7707C103.543 -45.8062 128.248 0.310204 122.248 9.8772C62.7941 104.667 76.6029 278.555 77.053 280.057C77.053 280.057 73.5203 306.829 60.4435 310.73C47.3638 314.632 31.3276 307.713 27.3995 294.683C25.2929 287.687 -14.4279 63.5601 56.9876 -50.2968C64.2287 -61.8396 79.4893 -65.3488 91.0715 -58.1305C93.0561 -56.8944 94.8065 -55.4207 96.3058 -53.7707Z" fill="#FCD9C3"/>
</g>
<path fill-rule="evenodd" clip-rule="evenodd" d="M77.5084 -57.479C79.4936 -56.2412 81.244 -54.7668 82.7418 -53.1186C89.9801 -45.153 114.687 0.964679 108.686 10.5308C49.2301 105.318 63.041 279.209 63.4911 280.71C67.3062 293.469 60.2543 306.872 47.695 311.096C51.7699 312.055 56.1412 312.014 60.4438 310.73C73.5205 306.829 77.0533 280.057 77.0533 280.057C76.6031 278.555 62.7944 104.667 122.248 9.87716C128.249 0.310167 103.543 -45.8063 96.3061 -53.7708C94.8068 -55.4207 93.0564 -56.8945 91.0718 -58.1305C84.5205 -62.2118 76.7955 -62.8592 70.0089 -60.5664C72.595 -59.9658 75.1313 -58.9598 77.5084 -57.479Z" fill="#F2BCA7"/>
<path fill-rule="evenodd" clip-rule="evenodd" d="M125.493 295.724C129.019 299.604 129.791 305.463 126.997 310.222L114.808 330.986C112.352 335.17 107.663 337.53 102.828 337.021L64.0127 332.916C57.2241 332.198 52.302 326.126 53.0216 319.361C53.7414 312.593 59.8328 307.684 66.6248 308.404L97.495 311.666L105.649 297.773C109.098 291.897 116.674 289.923 122.567 293.357C123.688 294.01 124.667 294.814 125.493 295.724Z" fill="#F2BCA7"/>
<path fill-rule="evenodd" clip-rule="evenodd" d="M80.1643 261.46C54.969 249.945 20.3487 241.404 22.799 267.236C26.7966 309.38 43.7309 348.097 69.9709 349.236C69.9709 349.236 86.3696 335.567 90.1788 319.336C65.9575 283.948 80.1643 261.46 80.1643 261.46Z" fill="#FCD9C3"/>
<path fill-rule="evenodd" clip-rule="evenodd" d="M69.7865 285.078C70.1436 294.627 78.1251 314.261 90.1787 319.336C65.9574 283.948 82.3499 256.631 82.3499 256.631C75.9733 253.716 69.1218 267.133 69.7865 285.078Z" fill="#F2BCA7"/>
<mask id="mask1_22_3940" style="mask-type:luminance" maskUnits="userSpaceOnUse" x="55" y="289" width="95" height="71">
<path d="M149.099 357.481L56.5445 359.096L55.36 291.232L147.915 289.616L149.099 357.481Z" fill="#FCD9C3"/>
</mask>
<g mask="url(#mask1_22_3940)">
<path fill-rule="evenodd" clip-rule="evenodd" d="M144.928 293.879C147.113 296.283 148.346 299.535 148.1 303.025C147.788 307.416 144.247 346.194 116.374 355.686C90.235 364.585 63.1775 348.243 62.0387 347.543C56.2251 343.967 54.4175 336.375 58.0056 330.58C61.5836 324.797 69.1804 322.991 74.9884 326.537C80.0634 329.596 95.9361 336.595 108.383 332.358C118.224 329.006 122.836 309.616 123.426 301.287C123.908 294.497 129.824 289.38 136.634 289.862C139.948 290.094 142.864 291.607 144.928 293.879Z" fill="#FCD9C3"/>
</g>
<mask id="mask2_22_3940" style="mask-type:luminance" maskUnits="userSpaceOnUse" x="95" y="289" width="55" height="70">
<path d="M149.099 357.476L96.7299 358.39L95.5454 290.532L147.915 289.618L149.099 357.476Z" fill="#F2BCA7"/>
</mask>
<g mask="url(#mask2_22_3940)">
<path fill-rule="evenodd" clip-rule="evenodd" d="M136.964 294.016C139.148 296.42 140.383 299.672 140.133 303.163C139.822 307.552 136.283 346.331 108.409 355.822C104.506 357.153 100.582 357.908 96.7273 358.247C103.044 358.573 109.736 357.947 116.374 355.686C144.247 346.194 147.788 307.416 148.1 303.025C148.346 299.535 147.113 296.283 144.928 293.879C142.864 291.607 139.948 290.094 136.634 289.862C134.847 289.736 133.133 290.013 131.552 290.586C133.66 291.255 135.527 292.434 136.964 294.016Z" fill="#F2BCA7"/>
</g>
<path fill-rule="evenodd" clip-rule="evenodd" d="M67.0235 326.674C71.5287 329.389 84.5449 335.193 96.119 333.497C87.0545 332.596 78.4743 328.637 74.9885 326.538C71.6607 324.508 67.7513 324.24 64.343 325.46C65.2605 325.755 66.1625 326.148 67.0235 326.674Z" fill="#EA9975"/>
<path fill-rule="evenodd" clip-rule="evenodd" d="M63.9388 340.617C73.5901 343.935 106.322 353.04 122.409 346.503C131.14 342.71 137.897 336.226 142.447 327.756C146.958 316.208 147.943 305.239 148.101 303.025C148.347 299.535 147.114 296.283 144.928 293.879C142.864 291.607 139.948 290.093 136.635 289.862C131.258 289.481 126.488 292.616 124.46 297.277C124.587 305.297 123.087 311.919 120.107 316.674C117.66 323.751 113.822 330.506 108.383 332.358C95.9363 336.595 80.0636 329.596 74.9889 326.537C69.1808 322.991 61.5841 324.797 58.006 330.58C57.1721 331.931 56.6395 333.377 56.3712 334.849C58.0752 337.558 60.6993 339.694 63.9388 340.617Z" fill="#F2BCA7"/>
<path fill-rule="evenodd" clip-rule="evenodd" d="M142.571 274.621C144.247 276.465 145.38 278.828 145.686 281.488C148.867 309.262 139.01 330.976 119.316 339.573C103.35 346.546 72.2913 340.575 63.152 338.579C56.478 337.122 52.2558 330.548 53.7182 323.901C55.1828 317.252 61.7753 313.041 68.4459 314.498C83.4929 317.769 103.535 319.553 109.396 316.993C118.754 312.908 123.024 300.988 121.112 284.289C120.337 277.527 125.21 271.416 131.995 270.644C136.112 270.175 139.987 271.777 142.571 274.621Z" fill="#FCD9C3"/>
<path fill-rule="evenodd" clip-rule="evenodd" d="M131.695 252.996C135.049 256.687 135.947 262.204 133.532 266.897C130.421 272.946 122.986 275.339 116.914 272.258C112.127 269.846 97.304 264.047 86.3257 266.185C75.6061 268.273 69.6539 281.673 69.5973 281.809C67.0073 288.106 59.7828 291.123 53.4632 288.539C47.1493 285.953 44.1231 278.759 46.7109 272.459C47.1433 271.409 57.5752 246.666 81.5882 241.991C102.918 237.836 125.649 249.018 128.171 250.306C129.539 251.004 130.721 251.923 131.695 252.996Z" fill="#FCD9C3"/>
<path fill-rule="evenodd" clip-rule="evenodd" d="M134.785 260.506C134.785 260.506 135.05 256.687 131.695 252.996C130.721 251.924 129.539 251.005 128.171 250.306C125.649 249.018 102.918 237.837 81.5882 241.991C78.2196 242.645 75.1299 243.707 72.2849 245.031C93.2698 241.496 128.425 250.215 134.785 260.506Z" fill="#F2BCA7"/>
<path fill-rule="evenodd" clip-rule="evenodd" d="M120.144 246.817C115.103 248.092 113.516 255.061 116.023 258.557C116.766 259.594 117.791 260.398 118.976 260.877L129.765 265.292L133.532 266.897L133.918 266.009C136.591 259.855 133.771 252.704 127.608 250.014L121.412 247.308L120.144 246.817Z" fill="#CE4EAA"/>
<path fill-rule="evenodd" clip-rule="evenodd" d="M133.077 270.509L132.563 281.029C132.487 282.339 132.788 283.644 133.429 284.79C137.201 290.517 142.818 289.638 146.134 286.695C146.738 273.701 139.004 270.721 133.077 270.509Z" fill="#CE4EAA"/>
<path d="M75.2485 233.566C104.014 217.071 -6.29308 233.077 6.40275 250.553C8.29047 253.151 17.2321 252.703 20.4155 251.82" stroke="#FFB600" stroke-width="1.8"/>
<path d="M18.8358 233.413C-15.4636 234.725 87.2988 188.86 86.3054 210.847C86.1575 214.115 78.1695 218.569 74.912 219.53" stroke="#FFB600" stroke-width="1.8"/>
</svg>
