<svg width="164" height="381" viewBox="0 0 164 381" fill="none" xmlns="http://www.w3.org/2000/svg">
<path opacity="0.385277" fill-rule="evenodd" clip-rule="evenodd" d="M31.8427 95.372C31.1127 92.1013 30.6247 88.9806 30.3667 86.0253C36.9566 88.2916 44.3117 85.2071 47.2332 78.7281L54.5554 62.4869L68.5834 62.4852C80.2051 80.6569 80.1643 97.2078 77.9115 108.192C76.2067 109.508 74.2839 110.585 72.1323 111.247C60.3356 114.88 43.3918 110.223 37.8563 108.125C34.5471 106.86 31.0473 106.969 27.9887 108.172C31.2996 104.979 32.9174 100.188 31.8427 95.372ZM132.246 69.7588C121.99 43.0602 106.718 22.5684 88.6445 18.5811C84.4632 16.6965 61.1841 6.97973 38.009 12.9203C38.0057 12.921 38.0027 12.9217 37.9991 12.9227C37.5924 13.0269 37.186 13.1368 36.7797 13.2509C36.7359 13.2632 36.692 13.2741 36.6489 13.2864C36.2804 13.391 35.9125 13.5012 35.5447 13.614C35.4647 13.6383 35.3847 13.6605 35.3047 13.6858C34.9707 13.7896 34.6371 13.8995 34.3034 14.0103C34.1912 14.0475 34.079 14.0824 33.9668 14.1202C33.6627 14.2238 33.3586 14.3336 33.0548 14.4428C32.9154 14.493 32.776 14.5401 32.6365 14.5915C32.354 14.6961 32.0718 14.8066 31.7903 14.9165C31.6309 14.9779 31.4719 15.0363 31.3129 15.0997C31.0377 15.2099 30.7631 15.3267 30.4886 15.4422C30.3249 15.5109 30.1606 15.5763 29.9966 15.6467C29.56 15.8349 29.1245 16.0301 28.6899 16.2319C-0.786282 29.9257 -0.134923 73.0215 0.0353853 77.891C0.144608 80.9473 1.25176 83.7311 3.03152 85.9456C3.30408 90.8815 4.02251 96.0189 5.20503 101.316C5.85074 104.208 7.37122 106.677 9.42587 108.512C12.5943 111.341 17.0336 112.653 21.4961 111.657C22.1946 111.502 22.8676 111.295 23.5133 111.042C22.1203 112.382 20.9892 114.038 20.2479 115.961C19.0687 119.018 19.0653 122.238 20.0152 125.125C20.4942 126.694 21.5532 128.961 23.8897 131.048C25.0846 132.115 26.4888 132.989 28.0717 133.598C30.9905 134.723 57.2415 144.383 80.1613 137.327C80.5919 137.194 81.0172 137.055 81.4385 136.911C81.5533 136.872 81.6662 136.83 81.7807 136.79C82.1004 136.677 82.4188 136.564 82.7329 136.445C82.8159 136.414 82.8975 136.381 82.9799 136.35C83.2166 136.259 83.4546 136.17 83.688 136.075C83.8022 140.696 83.8696 145.678 83.8712 151.011C83.6136 171.852 82.4739 196.903 80.2048 224.001C74.4004 284.039 60.3874 362.108 29.2815 451.934C27.9722 454.625 30.2024 456.704 34.4707 458.419C46.3647 463.509 74.6165 465.182 85.5866 469.772C86.9743 470.355 88.0835 470.98 88.8447 471.66C90.6829 473.302 92.776 474.72 95.0986 475.85C95.4837 476.037 95.8721 476.212 96.2619 476.38C96.3216 476.405 96.3811 476.432 96.4411 476.458C96.807 476.612 97.1745 476.757 97.5433 476.894C97.6253 476.925 97.7077 476.955 97.79 476.985C98.1512 477.116 98.5134 477.239 98.8769 477.353C98.9616 477.379 99.0466 477.405 99.1315 477.431C99.4994 477.542 99.8682 477.649 100.238 477.745C100.303 477.761 100.368 477.775 100.433 477.792C100.763 477.874 101.094 477.95 101.426 478.02C101.514 478.039 101.603 478.059 101.692 478.077C102.04 478.147 102.389 478.207 102.738 478.263C102.856 478.282 102.974 478.301 103.091 478.318C103.426 478.367 103.762 478.41 104.097 478.447C104.227 478.461 104.357 478.472 104.486 478.485C104.813 478.515 105.139 478.542 105.465 478.561C105.598 478.568 105.73 478.572 105.863 478.578C106.118 478.589 106.373 478.596 106.627 478.603C106.811 478.603 106.996 478.603 107.18 478.603C107.436 478.603 107.693 478.596 107.949 478.587C108.11 478.581 108.272 478.576 108.434 478.568C108.726 478.552 109.017 478.532 109.308 478.507C109.483 478.492 109.659 478.476 109.834 478.458C110.072 478.433 110.308 478.405 110.545 478.374C110.772 478.344 110.999 478.311 111.225 478.276C111.395 478.249 111.565 478.221 111.734 478.191C112.024 478.141 112.312 478.085 112.6 478.025C112.751 477.993 112.903 477.961 113.054 477.926C113.351 477.859 113.646 477.786 113.94 477.709C114.089 477.671 114.238 477.632 114.387 477.59C114.593 477.533 114.798 477.473 115.003 477.41C115.125 477.373 115.247 477.333 115.369 477.294C115.693 477.19 116.016 477.081 116.336 476.965C116.444 476.926 116.552 476.885 116.659 476.845C116.991 476.72 117.321 476.589 117.648 476.45C117.75 476.408 117.852 476.364 117.954 476.32C123.702 473.816 128.624 469.337 131.583 463.258C196.631 329.618 145.733 94.6458 132.246 69.7588Z" fill="#232586"/>
<path fill-rule="evenodd" clip-rule="evenodd" d="M87.6156 438.003C79.1752 430.469 25.7594 429.924 30.9579 419.246C82.4686 313.455 88.0688 106.612 79.8535 79.7573C75.6639 66.0623 80.5618 51.3467 93.7773 45.8164C106.996 40.2839 122.074 43.2628 128.899 55.8535C141.728 79.5171 190.144 302.942 128.269 430.014C121.996 442.896 106.457 448.259 93.5642 441.986C91.3552 440.913 89.3642 439.564 87.6156 438.003Z" fill="#FBC399"/>
<path fill-rule="evenodd" clip-rule="evenodd" d="M107.65 439.803C105.439 438.727 103.448 437.378 101.702 435.819C93.2597 428.283 40.2971 427.947 45.0422 417.06C110.828 266.146 94.574 79.0936 93.9371 77.5724C88.5355 64.6408 94.4048 49.8328 107.044 44.0209C102.684 43.4693 98.1257 43.996 93.7773 45.8164C80.5622 51.3467 74.3326 66.5424 79.8535 79.7573C80.4908 81.2801 100.055 219.786 30.9583 419.246C27.0709 430.467 79.1755 430.469 87.6159 438.003C89.3645 439.564 91.3552 440.913 93.5642 441.986C100.857 445.532 108.992 445.355 115.821 442.203C113.055 441.861 110.295 441.089 107.65 439.803Z" fill="#EA9975"/>
<path fill-rule="evenodd" clip-rule="evenodd" d="M27.5486 68.7243C23.4367 65.0536 21.978 59.0072 24.3651 53.7171L34.7782 30.6352C36.8763 25.9841 41.5071 22.9948 46.6115 22.9916L87.5833 22.991C94.7495 22.991 100.563 28.8006 100.564 35.9607C100.566 43.1242 94.7539 48.9364 87.5845 48.9348L54.9992 48.9386L48.0341 64.3816C45.0875 70.9134 37.3999 73.8194 30.8656 70.8768C29.6236 70.3178 28.5123 69.5847 27.5486 68.7243Z" fill="#EA9975"/>
<path fill-rule="evenodd" clip-rule="evenodd" d="M72.6449 105.394C100.225 114.656 143.343 113.934 137.911 87.1693C129.049 43.5034 107.065 4.85598 79.5481 6.57034C79.5481 6.57034 63.9525 22.692 61.7827 40.1006C91.0024 74.4565 72.6449 105.394 72.6449 105.394Z" fill="#FBC399"/>
<path fill-rule="evenodd" clip-rule="evenodd" d="M86.8804 73.6982C85.4448 63.7441 74.929 44.0783 61.7827 40.1007C91.0027 74.4563 72.6452 105.394 72.6452 105.394C79.6255 107.738 89.5712 92.4062 86.8804 73.6982Z" fill="#EA9975"/>
<path fill-rule="evenodd" clip-rule="evenodd" d="M7.46732 72.8072C4.91921 70.5323 3.27016 67.2652 3.13879 63.5856C2.97616 58.9554 2.3569 17.9778 30.3949 4.95697C56.6885 -7.25118 86.7497 6.85722 88.0164 7.46349C94.4825 10.5621 97.2141 18.3085 94.1139 24.7708C91.0224 31.2195 83.2937 33.9508 76.8368 30.8819C71.1993 28.2421 53.8524 22.6749 41.3316 28.4874C31.4323 33.0854 28.7765 53.8896 29.0872 62.6722C29.3398 69.8329 23.7343 75.8433 16.5715 76.0929C13.0868 76.2176 9.8749 74.9564 7.46732 72.8072Z" fill="#FBC399"/>
<path fill-rule="evenodd" clip-rule="evenodd" d="M15.7653 71.7818C13.2182 69.5078 11.5672 66.2407 11.439 62.5592C11.2751 57.9309 10.6549 16.9524 38.6938 3.93251C42.6197 2.10707 46.6309 0.882843 50.6171 0.10141C43.9871 0.458988 37.0723 1.85616 30.3949 4.95696C2.3569 17.9778 2.97616 58.9553 3.13879 63.5856C3.27016 67.2652 4.9189 70.5323 7.46732 72.8071C9.8749 74.9564 13.0868 76.2176 16.5715 76.0929C18.4511 76.0269 20.2091 75.5469 21.7959 74.7724C19.521 74.3056 17.4415 73.278 15.7653 71.7818Z" fill="#EA9975"/>
<path fill-rule="evenodd" clip-rule="evenodd" d="M85.1356 29.8574C80.131 27.5138 65.8987 22.8807 54.0063 25.937C63.5685 25.8771 72.9651 29.0703 76.837 30.8819C80.5368 32.6379 84.6468 32.4852 88.069 30.8314C87.078 30.6234 86.0928 30.3116 85.1356 29.8574Z" fill="#EA9975"/>
<path fill-rule="evenodd" clip-rule="evenodd" d="M86.8041 14.9224C76.3606 12.5185 41.1817 6.61356 25.1172 15.2365C16.4269 20.1734 10.0944 27.7072 6.28789 37.0765C2.86379 49.6608 3.05674 61.2504 3.13884 63.5856C3.27021 67.2655 4.91895 70.5323 7.46737 72.8072C9.87495 74.9564 13.0868 76.2176 16.5716 76.0929C22.2258 75.8963 26.8562 72.0873 28.4551 66.9843C27.4291 58.6041 28.2583 51.5078 30.8402 46.2006C32.6067 38.5229 35.8606 31.0276 41.3317 28.4874C53.8521 22.6749 71.1994 28.2421 76.8368 30.8818C83.2938 33.9508 91.0221 31.2195 94.1137 24.7708C94.834 23.2651 95.229 21.6921 95.3453 20.122C93.2648 17.475 90.2879 15.53 86.8041 14.9224Z" fill="#EA9975"/>
<path fill-rule="evenodd" clip-rule="evenodd" d="M12.0711 92.7012C10.117 90.9569 8.67036 88.6095 8.05615 85.8593C1.64404 57.1423 9.51699 33.3247 29.1168 22.1463C45.0067 13.0813 78.0907 15.8917 87.8524 16.9689C94.9807 17.7541 100.119 24.1675 99.3319 31.2859C98.5437 38.4081 92.1307 43.5442 85.0055 42.7584C68.9356 41.0014 47.8172 41.353 41.9839 44.6807C32.6707 49.9929 29.5396 62.9408 33.3941 80.2072C34.9554 87.1981 30.5489 94.1334 23.5526 95.6928C19.3077 96.64 15.0847 95.3914 12.0711 92.7012Z" fill="#FBC399"/>
<path fill-rule="evenodd" clip-rule="evenodd" d="M25.8296 114.131C21.9179 110.639 20.3664 104.964 22.3654 99.7851C24.9397 93.1092 32.4343 89.7811 39.1149 92.334C44.3803 94.3287 60.4976 98.7566 71.7189 95.3029C82.6761 91.9313 87.3975 77.2473 87.4414 77.0986C89.4444 70.2213 96.6495 66.264 103.533 68.2681C110.412 70.2766 114.371 77.4707 112.371 84.3506C112.036 85.4975 103.901 112.548 79.3562 120.1C57.5544 126.81 32.584 117.624 29.8076 116.555C28.3019 115.976 26.9661 115.145 25.8296 114.131Z" fill="#FBC399"/>
<path fill-rule="evenodd" clip-rule="evenodd" d="M21.769 106.612C21.769 106.612 21.9178 110.639 25.8291 114.13C26.9657 115.145 28.3018 115.976 29.8071 116.555C32.5836 117.624 57.554 126.81 79.3558 120.1C82.7991 119.043 85.9062 117.59 88.7284 115.889C67.2178 121.912 29.5523 116.679 21.769 106.612Z" fill="#EA9975"/>
<path d="M137.294 124.848L141.892 131.883" stroke="#EA9975" stroke-width="1.89525" stroke-linecap="round"/>
<path d="M115.552 113.938L114.058 122.208" stroke="#EA9975" stroke-width="1.89525" stroke-linecap="round"/>
<path d="M124.434 136.259L125.578 144.585" stroke="#EA9975" stroke-width="1.89525" stroke-linecap="round"/>
<path d="M138.531 192.01L139.676 200.335" stroke="#EA9975" stroke-width="1.89525" stroke-linecap="round"/>
<path d="M154.265 233.991L155.41 242.316" stroke="#EA9975" stroke-width="1.89525" stroke-linecap="round"/>
<path d="M141.729 220.745L144.164 228.789" stroke="#EA9975" stroke-width="1.89525" stroke-linecap="round"/>
<path d="M131.975 262.124L134.41 270.167" stroke="#EA9975" stroke-width="1.89525" stroke-linecap="round"/>
<path d="M146.95 277.561L149.386 285.604" stroke="#EA9975" stroke-width="1.89525" stroke-linecap="round"/>
<path d="M153.121 206.27L154.265 214.595" stroke="#EA9975" stroke-width="1.89525" stroke-linecap="round"/>
<path d="M132.146 164.884L130.361 173.096" stroke="#EA9975" stroke-width="1.89525" stroke-linecap="round"/>
<path d="M125.534 207.934L123.749 216.146" stroke="#EA9975" stroke-width="1.89525" stroke-linecap="round"/>
<path d="M117.389 313.872L115.604 322.084" stroke="#EA9975" stroke-width="1.89525" stroke-linecap="round"/>
<path d="M116.496 286.351L114.711 294.563" stroke="#EA9975" stroke-width="1.89525" stroke-linecap="round"/>
<path d="M112.614 257.934L110.829 266.146" stroke="#EA9975" stroke-width="1.89525" stroke-linecap="round"/>
<path d="M97.2538 296.229L93.0103 303.484" stroke="#EA9975" stroke-width="1.89525" stroke-linecap="round"/>
<path d="M130.222 237.011L131.072 245.371" stroke="#EA9975" stroke-width="1.89525" stroke-linecap="round"/>
<path d="M132.342 294.026L133.192 302.387" stroke="#EA9975" stroke-width="1.89525" stroke-linecap="round"/>
<path d="M111.867 146.228L107.167 153.196" stroke="#EA9975" stroke-width="1.89525" stroke-linecap="round"/>
<path d="M100.706 134.416L96.0059 141.384" stroke="#EA9975" stroke-width="1.89525" stroke-linecap="round"/>
<path d="M117.807 186.539L114.575 194.297" stroke="#EA9975" stroke-width="1.89525" stroke-linecap="round"/>
<path d="M101.291 319.846L98.0596 327.604" stroke="#EA9975" stroke-width="1.89525" stroke-linecap="round"/>
<path d="M105.707 213.564L100.056 219.786" stroke="#EA9975" stroke-width="1.89525" stroke-linecap="round"/>
<path d="M115.603 165.209L110.903 172.177" stroke="#EA9975" stroke-width="1.89525" stroke-linecap="round"/>
<path d="M111.691 234.669L106.991 241.638" stroke="#EA9975" stroke-width="1.89525" stroke-linecap="round"/>
<path d="M97.4816 267.978L92.7817 274.946" stroke="#EA9975" stroke-width="1.89525" stroke-linecap="round"/>
<path d="M102.025 189.645L97.3252 196.613" stroke="#EA9975" stroke-width="1.89525" stroke-linecap="round"/>
<path d="M94.2056 239.713L89.5054 246.681" stroke="#EA9975" stroke-width="1.89525" stroke-linecap="round"/>
<path d="M98.6579 166.398L91.606 170.975" stroke="#EA9975" stroke-width="1.89525" stroke-linecap="round"/>
<path d="M140.069 147.548L144.021 154.966" stroke="#EA9975" stroke-width="1.89525" stroke-linecap="round"/>
<path d="M146.95 177.062L150.902 184.48" stroke="#EA9975" stroke-width="1.89525" stroke-linecap="round"/>
<path d="M142.188 318.375L146.139 325.793" stroke="#EA9975" stroke-width="1.89525" stroke-linecap="round"/>
<path d="M148.926 254.225L152.877 261.643" stroke="#EA9975" stroke-width="1.89525" stroke-linecap="round"/>
<path d="M152.861 302.387L156.813 309.805" stroke="#EA9975" stroke-width="1.89525" stroke-linecap="round"/>
<path d="M26.4761 101.048L38.2291 104.474C39.5198 104.843 40.6784 105.572 41.5695 106.575C44.5752 109.957 43.6743 115.25 39.7187 117.448L38.9791 117.859" stroke="#EA9975" stroke-width="1.89525" stroke-linecap="round"/>
<path d="M22.6537 92.9673L22.047 84.3043C21.9798 82.9245 21.5209 81.592 20.7242 80.4634C18.0381 76.6566 12.5156 76.316 9.38134 79.7637L8.79492 80.4082" stroke="#EA9975" stroke-width="1.89525" stroke-linecap="round"/>
</svg>
