<svg width="66" height="52" viewBox="0 0 66 52" fill="none" xmlns="http://www.w3.org/2000/svg">
<path d="M22.7421 4L43.2579 4C48.697 4 52.5092 4.92826 55.7685 6.67133C59.0277 8.4144 61.5856 10.9723 63.3287 14.2315C65.0717 17.4908 66 21.303 66 26.7421V29.0979C66 34.537 65.0717 38.3492 63.3287 41.6085C61.5856 44.8677 59.0277 47.4256 55.7685 49.1687C52.5092 50.9117 48.697 51.84 43.2579 51.84H22.7421C17.303 51.84 13.4908 50.9117 10.2315 49.1687C6.97228 47.4256 4.4144 44.8677 2.67133 41.6085C0.928256 38.3492 0 34.537 0 29.0979L0 26.7421C0 21.303 0.928256 17.4908 2.67133 14.2315C4.4144 10.9723 6.97228 8.4144 10.2315 6.67133C13.4908 4.92826 17.303 4 22.7421 4Z" fill="#EA9975"/>
<path d="M22.3865 0H43.6135C48.6259 0 52.5092 0.928256 55.7685 2.67133C59.0277 4.4144 61.5856 6.97228 63.3287 10.2315C65.0717 13.4908 66 17.3741 66 22.3865V23.6135C66 28.6259 65.0717 32.5092 63.3287 35.7685C61.5856 39.0277 59.0277 41.5856 55.7685 43.3287C52.5092 45.0717 48.6259 46 43.6135 46H22.3865C17.3741 46 13.4908 45.0717 10.2315 43.3287C6.97228 41.5856 4.4144 39.0277 2.67133 35.7685C0.928256 32.5092 0 28.6259 0 23.6135L0 22.3865C0 17.3741 0.928256 13.4908 2.67133 10.2315C4.4144 6.97228 6.97228 4.4144 10.2315 2.67133C13.4908 0.928256 17.3741 0 22.3865 0Z" fill="#FBC399"/>
<mask id="mask0_23_6132" style="mask-type:luminance" maskUnits="userSpaceOnUse" x="0" y="0" width="66" height="46">
<path d="M22.3865 0H43.6135C48.6259 0 52.5092 0.928256 55.7685 2.67133C59.0277 4.4144 61.5856 6.97228 63.3287 10.2315C65.0717 13.4908 66 17.3741 66 22.3865V23.6135C66 28.6259 65.0717 32.5092 63.3287 35.7685C61.5856 39.0277 59.0277 41.5856 55.7685 43.3287C52.5092 45.0717 48.6259 46 43.6135 46H22.3865C17.3741 46 13.4908 45.0717 10.2315 43.3287C6.97228 41.5856 4.4144 39.0277 2.67133 35.7685C0.928256 32.5092 0 28.6259 0 23.6135L0 22.3865C0 17.3741 0.928256 13.4908 2.67133 10.2315C4.4144 6.97228 6.97228 4.4144 10.2315 2.67133C13.4908 0.928256 17.3741 0 22.3865 0Z" fill="#B67C62"/>
</mask>
<g mask="url(#mask0_23_6132)">
<path d="M42.0652 23.0636C42.3283 23.0623 42.5682 22.9114 42.6818 22.6742C42.7966 22.437 42.7643 22.1559 42.6018 21.9497C41.9968 21.1968 41.3777 20.4232 40.6889 19.6432C40.1317 18.9766 39.5538 18.3062 38.9695 17.6487V17.6074C37.294 15.689 35.5539 13.826 33.8101 12.0276L33.556 11.7698C33.0852 11.2734 32.4299 10.9949 31.7463 11C31.073 11.0039 30.4293 11.2837 29.9676 11.7736L29.4684 12.2829C27.749 14.0427 26.0696 15.8514 24.4949 17.6502C23.8654 18.3722 23.3082 19.0258 22.7755 19.6343C22.1666 20.3563 21.5436 21.1131 20.8729 21.9486L20.8742 21.946C20.6666 22.2438 20.7246 22.6512 21.0084 22.8781C21.2921 23.1037 21.7023 23.0715 21.9474 22.802L22.5008 22.1149C22.3821 25.0209 22.4376 27.9307 22.6659 30.8302L22.6826 31.0506C22.7691 32.0137 23.6668 32.7692 24.8187 32.8144L25.3617 32.8414C27.4667 32.9446 29.6233 33 31.7736 33C34.0335 33 36.345 32.9381 38.6524 32.8182C39.7978 32.7525 40.6917 32.0099 40.7781 31.0481V30.8353L40.7794 30.8341C41.0077 27.9371 41.0619 25.0285 40.9445 22.125C41.1303 22.3519 41.3199 22.5788 41.4979 22.8122C41.6359 22.9811 41.8472 23.0752 42.0652 23.0636Z" fill="#B67C62"/>
</g>
</svg>
