<svg width="10" height="17" viewBox="0 0 10 17" fill="none" xmlns="http://www.w3.org/2000/svg">
<path fill-rule="evenodd" clip-rule="evenodd" d="M5.95392 1.1399C6.20119 1.36861 6.36321 1.72555 6.36321 2.13654V2.32983C6.53363 2.25419 6.71365 2.2211 6.89528 2.2211C7.20708 2.2211 7.52447 2.32366 7.7723 2.55332C8.02014 2.78298 8.18159 3.14347 8.18159 3.55601V4.34729C8.35202 4.27154 8.53785 4.23856 8.7195 4.23856C9.03034 4.23856 9.34342 4.34206 9.59069 4.57078C9.83795 4.7995 9.99996 5.15643 9.99996 5.56742V11.0762C9.99996 12.7491 9.3861 14.0521 8.45638 14.9118C7.5267 15.7714 6.29759 16.1923 5.0769 16.1923C3.8562 16.1923 2.63295 15.7714 1.70324 14.9118C0.773548 14.0521 0.153809 12.7491 0.153809 11.0762V7.67549C0.153809 7.26415 0.320967 6.90738 0.568949 6.67884C0.816925 6.45029 1.12879 6.34662 1.44012 6.34662C1.6221 6.34662 1.80731 6.37971 1.97804 6.45534V3.54997C1.97804 3.13898 2.14006 2.78204 2.38734 2.55332C2.63459 2.3246 2.95354 2.21506 3.26436 2.21506C3.44649 2.21506 3.62562 2.25366 3.79643 2.32983V2.13654C3.79643 1.72555 3.95844 1.36861 4.20571 1.1399C4.45296 0.911171 4.76608 0.807678 5.0769 0.807678C5.39737 0.814759 5.74966 0.95597 5.95392 1.1399ZM5.0769 1.58083C4.9336 1.58083 4.79603 1.6274 4.70271 1.71372C4.60936 1.80005 4.54483 1.91744 4.54483 2.13654V8.30368C4.54764 8.50791 4.36834 8.69576 4.17062 8.69576C3.97292 8.69576 3.79364 8.50791 3.79643 8.30368V3.58017C3.8099 3.39504 3.7167 3.24794 3.63855 3.12715C3.54525 3.04082 3.40766 2.98822 3.26436 2.98822C3.12107 2.98822 2.97764 3.04082 2.88431 3.12715C2.79099 3.21347 2.72644 3.33087 2.72644 3.54997C2.72644 6.02458 2.72644 8.49411 2.72644 10.9674C2.72924 11.1717 2.54995 11.3595 2.35223 11.3595C2.15453 11.3595 1.97525 11.1717 1.97804 10.9674V7.71172C1.99244 7.52649 1.89938 7.37854 1.82019 7.25871C1.72633 7.17221 1.58457 7.11978 1.44012 7.11978C1.2957 7.11978 1.15979 7.17221 1.06593 7.25871C0.972073 7.3452 0.902213 7.45673 0.902213 7.67549V11.0762C0.902213 12.5571 1.42449 13.6206 2.20024 14.3379C2.97598 15.0552 4.02366 15.4191 5.0769 15.4191C6.13013 15.4191 7.17782 15.0552 7.95357 14.3379C8.7293 13.6206 9.25156 12.5571 9.25156 11.0762V5.56742C9.25156 5.34832 9.18703 5.23697 9.0937 5.15064C9.00038 5.06432 8.8628 5.01172 8.7195 5.01172C8.5762 5.01172 8.43863 5.06432 8.3453 5.15064C8.19575 5.29816 8.18335 5.43014 8.18159 5.60971V8.99831C8.18439 9.20254 8.00509 9.39039 7.80739 9.39039C7.60968 9.39039 7.43041 9.20254 7.43319 8.99831C7.43319 7.18261 7.43319 5.3702 7.43319 3.55601C7.43319 3.33502 7.36931 3.21425 7.27533 3.12715C7.18133 3.04005 7.03925 2.98822 6.89528 2.98822C6.75131 2.98822 6.61508 3.04005 6.52107 3.12715C6.42707 3.21425 6.36321 3.33502 6.36321 3.55601V8.36408C6.36602 8.56831 6.18673 8.75616 5.98902 8.75616C5.7913 8.75616 5.61203 8.56831 5.61482 8.36408C5.61294 6.28653 5.61482 4.21002 5.61482 2.13654C5.61482 1.91744 5.54443 1.80005 5.45111 1.71372C5.35778 1.6274 5.22018 1.58083 5.0769 1.58083Z" fill="white"/>
</svg>
