<svg width="15" height="17" viewBox="0 0 15 17" fill="none" xmlns="http://www.w3.org/2000/svg">
<path d="M14.0769 4.71922C14.0769 4.98388 14.0676 11.2187 13.2608 12.8468C12.4222 14.5396 11.3301 16.1923 8.06646 16.1923C5.23257 16.1923 2.77831 14.8335 1.15566 12.3665C-0.428745 9.95824 0.0304755 6.84643 1.43346 5.55962C1.85754 5.1711 2.19659 4.95963 2.41625 4.84803L2.41341 3.80737C2.41341 2.6731 3.16104 1.85069 4.19112 1.85069C4.59684 1.85069 4.9545 1.97585 5.23851 2.19879C5.50081 1.29137 6.3867 0.807678 7.22864 0.807678C8.00676 0.807678 8.67169 1.30597 8.92649 2.00296C9.23841 1.74508 9.63716 1.58993 10.0713 1.58993C11.0182 1.58993 11.7979 2.32786 11.8743 3.26396C12.1082 3.18965 12.3367 3.15444 12.4617 3.15444C13.3373 3.1547 14.0769 3.87125 14.0769 4.71922ZM13.2998 4.71922C13.2998 4.30253 12.9261 3.93696 12.4785 3.93696C12.3028 3.93696 11.9154 4.03187 11.9154 4.10488V5.11034C11.9154 5.32625 11.7418 5.50147 11.5278 5.50147C11.3138 5.50147 11.1402 5.32625 11.1402 5.11034V3.41546C11.1402 2.84024 10.6765 2.37245 10.1065 2.37245C9.53638 2.37245 9.07276 2.84024 9.07276 3.41546V4.06734C9.07276 4.28324 8.8991 4.45846 8.68513 4.45846C8.47115 4.45846 8.29749 4.28324 8.29749 4.06734V2.6332C8.29749 2.05798 7.83388 1.59019 7.26379 1.59019C6.74436 1.59019 5.97166 1.90257 5.97166 2.76358V3.80658C5.97166 4.02249 5.76854 4.19771 5.55457 4.19771C5.34059 4.19771 5.14626 4.02249 5.14626 3.80658C5.14626 3.26526 4.88163 2.6332 4.16579 2.6332C3.47321 2.6332 3.12899 3.2225 3.12899 3.80658V8.50038C3.12899 8.83727 3.01554 9.02188 2.78322 9.02188C2.55089 9.02188 2.44029 8.82632 2.44029 8.50038L2.44416 5.7677C2.44416 5.7677 2.08366 5.98151 1.91181 6.13927C0.401833 7.52386 0.842963 10.4964 1.78906 11.9347C3.26311 14.1762 5.49461 15.4106 8.06025 15.4106C10.8877 15.4106 11.7743 14.0914 12.5641 12.4974C13.1665 11.2818 13.2998 6.47042 13.2998 4.71922Z" fill="white" stroke="white" stroke-width="0.307692"/>
</svg>
