<svg width="324" height="259" viewBox="0 0 324 259" fill="none" xmlns="http://www.w3.org/2000/svg">
<ellipse cx="111.5" cy="224" rx="111.5" ry="35" fill="#C9C9C9"/>
<ellipse cx="280.5" cy="226" rx="43.5" ry="14" fill="#C9C9C9"/>
<path d="M247.483 134.839C247.783 136.559 248.123 138.269 248.373 139.999C249.793 149.849 245.493 156.879 237.463 162.059C224.253 170.579 202.063 169.269 190.053 150.989C184.203 142.089 181.323 132.199 180.383 121.679C179.453 111.349 180.383 101.249 183.963 91.4591C184.563 89.8191 185.063 88.0591 186.053 86.6691C188.003 83.9491 187.593 81.6091 186.253 78.6891C179.263 63.5391 177.133 47.5291 178.303 30.9691C178.963 21.5391 180.593 12.3191 183.433 3.30908C184.563 -0.28092 185.173 -0.58092 188.623 0.66908C214.773 10.1191 232.813 28.0991 243.853 53.3791C244.583 55.0591 245.463 55.6991 247.243 55.9891C256.773 57.5491 264.993 62.0391 272.503 67.8891C285.653 78.1291 295.813 90.6691 301.093 106.709C304.713 117.699 304.683 128.519 298.433 138.709C294.443 145.209 288.853 150.029 281.773 152.859C272.713 156.479 265.023 153.539 258.203 147.309C254.373 143.809 251.193 139.749 248.443 135.349C248.13 134.889 247.816 134.726 247.503 134.859L247.483 134.839Z" fill="#333333"/>
<path d="M247.483 134.839C247.033 134.559 246.713 133.839 247.143 133.779C248.053 133.649 248.363 134.489 248.413 135.329C248.103 135.169 247.793 134.999 247.473 134.839H247.483Z" fill="#39646D"/>
<path d="M222.783 83.4492C225.503 94.0592 230.963 103.349 235.343 113.119C239.603 122.639 243.133 132.599 244.173 143.139C244.573 147.199 242.993 150.779 240.243 153.839C228.783 166.599 207.343 165.449 196.033 151.459C190.113 144.139 186.923 135.639 185.413 126.479C183.303 113.639 184.233 101.119 189.723 89.1192C190.653 87.0992 191.833 86.5492 193.933 86.6592C200.833 87.0292 207.733 87.0992 214.603 85.9592C217.403 85.4892 220.053 84.5892 222.783 83.4592V83.4492Z" fill="#5BC6E0"/>
<path d="M282.453 83.8291C282.773 84.1791 283.093 84.5391 283.423 84.8891C283.943 85.5391 284.413 86.2391 285.053 86.7891C291.203 94.1091 295.473 102.409 297.883 111.659C298.073 112.379 298.243 113.099 298.423 113.819C299.343 118.319 299.483 122.819 298.413 127.319C296.003 136.879 290.153 143.679 281.493 148.099C275.503 151.149 269.693 150.339 264.323 146.479C258.673 142.429 254.503 137.009 251.003 131.119C243.533 118.539 236.083 105.929 230.453 92.3691C228.853 88.5191 227.633 84.5491 226.723 80.4891C226.533 79.6591 226.393 78.8891 226.943 78.1091C231.053 72.2391 235.293 66.4991 240.963 61.9691C243.043 60.3091 245.193 59.9791 247.723 60.5391C259.063 63.0791 268.203 69.4191 276.523 77.1791C277.913 78.4691 279.413 79.6891 280.443 81.3291C280.723 81.6791 280.733 82.0191 280.423 82.3491C279.013 82.5391 278.363 81.3991 277.583 80.6091C272.903 75.8791 267.533 72.1491 261.513 69.3291C257.373 67.3891 252.983 66.5591 248.463 66.2491C247.623 66.1891 246.803 66.3991 246.013 66.6591C243.593 67.4691 241.723 69.5891 241.813 71.4091C241.893 73.1191 243.813 74.7891 246.423 75.3691C249.423 76.0391 252.503 76.2591 255.483 77.1191C265.693 80.0591 274.353 85.4091 281.203 93.5391C286.463 99.7791 288.993 107.219 290.043 115.219C290.223 116.629 290.443 118.029 290.713 119.409C290.893 120.319 290.863 121.739 292.203 121.599C293.263 121.479 293.213 120.209 293.243 119.309C293.373 115.559 293.273 111.829 292.463 108.129C290.553 99.4291 286.913 91.5891 281.193 84.7491C280.663 84.1191 280.003 83.5391 280.223 82.5691C281.673 81.7291 281.753 83.3391 282.463 83.8291H282.453Z" fill="#5BC6E0"/>
<path d="M186.723 10.3992C188.603 16.0392 190.503 21.6692 192.363 27.3192C195.883 37.9792 199.553 48.5992 202.823 59.3292C204.143 63.6492 206.453 67.0592 209.593 70.1192C212.393 72.8492 215.033 75.7392 217.783 78.5192C218.963 79.7192 218.853 80.3892 217.163 80.8692C214.103 81.7392 210.953 82.1192 207.813 82.2592C203.493 82.4492 199.163 82.2592 194.833 82.3392C193.353 82.3692 192.613 81.7492 191.963 80.4892C184.153 65.2492 181.623 49.0192 182.713 32.0792C183.123 25.6792 183.913 19.3292 185.393 13.0792C185.603 12.1992 185.843 11.3292 186.063 10.4492C186.283 10.4292 186.503 10.4092 186.713 10.3892L186.723 10.3992Z" fill="#B2B2B2"/>
<path d="M214.383 68.3592C209.003 64.6492 207.353 58.8092 205.483 53.0192C200.753 38.3992 195.883 23.8192 191.063 9.2192C190.783 8.3592 190.513 7.4892 190.023 5.9292C204.113 11.6792 215.723 19.8092 224.973 31.2592C229.703 38.5992 230.063 46.4992 227.943 54.6992C226.563 60.0392 223.853 64.4892 219.013 67.3892C217.613 68.2292 216.173 69.2392 214.383 68.3492V68.3592Z" fill="#CBCBCB"/>
<path d="M214.383 68.359C220.143 67.289 223.743 63.509 225.913 58.439C229.753 49.469 229.293 40.519 225.003 31.759C224.933 31.619 224.973 31.429 224.963 31.269C230.673 37.519 234.933 44.709 238.483 52.349C240.433 56.539 240.383 56.539 236.953 59.389C231.653 63.799 227.663 69.339 223.743 74.909C222.563 76.589 221.843 76.559 220.593 75.139C218.573 72.829 216.453 70.619 214.373 68.369L214.383 68.359Z" fill="#B2B2B2"/>
<path d="M298.403 127.319C298.943 122.819 298.873 118.319 298.413 113.819C299.873 118.319 299.923 122.819 298.403 127.319Z" fill="#3B666F"/>
<path d="M280.403 82.3391C280.403 81.9991 280.403 81.6591 280.413 81.3291C281.283 82.0091 282.233 82.6291 282.443 83.8391C281.763 83.3391 281.083 82.8391 280.393 82.3391H280.403Z" fill="#5CC4DA"/>
<path d="M285.043 86.7892C284.113 86.4892 283.513 85.8992 283.413 84.8892C284.293 85.2292 284.713 85.9692 285.043 86.7892Z" fill="#5CC4DA"/>
<path d="M218.423 148.399C211.523 148.319 206.973 144.869 203.163 140.209C194.033 129.049 192.173 109.969 198.973 97.279C201.283 92.979 204.443 89.769 209.803 89.669C213.233 89.609 215.663 91.039 217.363 93.989C222.603 103.109 226.503 112.829 230.403 122.549C231.893 126.259 233.123 130.049 234.153 133.909C234.883 136.649 234.483 139.119 232.493 141.329C228.573 145.679 223.863 148.279 218.433 148.399H218.423Z" fill="#333333"/>
<path d="M257.433 81.7792C271.663 86.7192 281.523 96.0192 285.593 110.739C287.333 117.009 287.343 123.369 282.823 128.749C278.333 134.079 272.383 135.909 265.583 135.189C263.923 135.009 262.763 133.909 261.773 132.589C257.173 126.519 253.823 119.709 250.323 112.999C247.213 107.019 244.273 100.949 241.943 94.6192C239.673 88.4592 241.413 84.4392 247.423 81.7092C250.773 80.6492 254.113 80.7492 257.443 81.7692L257.433 81.7792Z" fill="#333333"/>
<path d="M280.403 82.3391C282.563 85.7591 285.323 88.7591 287.243 92.3391C291.923 101.079 294.603 110.269 293.873 120.279C293.793 121.359 293.493 122.559 292.183 122.739C290.643 122.959 290.513 121.579 290.313 120.589C289.793 118.079 289.353 115.559 288.963 113.029C286.813 98.8391 278.593 89.1091 266.393 82.3191C260.453 79.0091 254.103 76.9891 247.313 76.2791C243.483 75.8791 240.563 73.1491 241.023 70.7991C241.663 67.5391 245.633 65.3791 249.333 65.6591C261.323 66.5791 270.513 72.7391 278.723 80.8791C279.253 81.3991 279.843 81.8591 280.413 82.3391H280.403Z" fill="#7BEBF8"/>
<path d="M257.433 81.7792C254.093 81.1992 250.763 80.9793 247.413 81.7193C250.763 80.1893 254.103 80.2792 257.433 81.7792Z" fill="#4CA0B4"/>
<path d="M209.513 45.379C206.463 45.379 204.593 43.769 203.393 40.549C202.413 37.929 203.603 36.239 205.553 34.779C205.753 34.629 205.963 34.489 206.163 34.349C209.643 31.899 209.673 31.899 211.983 35.559C212.743 36.749 213.483 37.959 214.223 39.159C215.933 41.919 215.563 43.219 212.673 44.619C211.603 45.129 210.493 45.419 209.503 45.379H209.513Z" fill="#343434"/>
<path d="M209.533 22.3191C211.343 22.3191 212.853 22.5191 213.253 24.1591C213.653 25.8091 212.363 26.7191 211.063 27.3391C209.213 28.2391 207.273 28.5791 205.423 27.3891C204.553 26.8291 204.393 25.8491 204.883 24.9691C205.953 23.0391 207.793 22.4291 209.533 22.3291V22.3191Z" fill="#363636"/>
<path d="M219.273 45.8692C219.303 42.9392 221.713 40.1292 223.883 40.2092C225.533 40.2692 225.963 41.3492 225.923 42.7492C225.863 45.2692 223.303 48.2792 221.273 48.1892C219.633 48.1192 219.293 46.9392 219.273 45.8692Z" fill="#363636"/>
<path d="M223.093 56.3091C221.053 56.3091 218.493 53.9191 218.573 52.1091C218.633 50.6691 219.303 49.5091 220.963 49.4391C222.833 49.3691 225.373 51.9891 225.283 53.9391C225.213 55.3991 224.223 56.0891 223.083 56.3091H223.093Z" fill="#D94992"/>
<path d="M198.353 18.439C198.253 17.139 198.483 15.749 200.343 15.539C201.893 15.359 203.403 17.289 203.453 19.389C203.483 20.909 203.243 22.279 201.333 22.409C199.473 22.539 198.383 21.139 198.353 18.449V18.439Z" fill="#D94892"/>
<path d="M199.393 113.599C199.283 109.659 200.393 104.509 202.753 99.629C203.643 97.809 204.873 96.229 206.583 95.119C209.543 93.189 212.173 93.809 213.893 96.899C217.343 103.079 220.243 109.519 222.933 116.059C225.433 122.129 227.953 128.179 229.683 134.539C230.193 136.419 229.723 137.709 228.483 139.029C222.203 145.729 213.343 145.449 207.443 138.369C201.813 131.609 199.353 123.789 199.383 113.609L199.393 113.599Z" fill="#5BC6E0"/>
<path d="M267.773 130.969C266.483 131.119 265.493 130.279 264.633 128.999C258.903 120.479 254.343 111.329 249.973 102.079C248.443 98.8491 247.093 95.5291 245.823 92.1991C244.793 89.5191 245.593 87.8191 248.123 86.4391C250.563 85.1191 253.073 85.3291 255.643 85.9391C268.633 89.0091 280.463 102.319 281.963 115.609C283.183 126.399 275.293 130.679 267.773 130.979V130.969Z" fill="#5BC6E0"/>
<path d="M278.862 193.337C277.944 195.346 278.828 197.719 280.837 198.638C282.846 199.556 285.219 198.672 286.138 196.663L278.862 193.337ZM259.128 167.378L260.441 163.6L259.128 167.378ZM263.465 148.128L255.022 164.075L262.093 167.818L270.535 151.872L263.465 148.128ZM257.814 171.157C263.064 172.982 269.9 176.284 274.587 180.522C276.916 182.628 278.498 184.771 279.239 186.856C279.937 188.819 279.968 190.919 278.862 193.337L286.138 196.663C288.124 192.318 288.158 188.062 286.777 184.177C285.439 180.414 282.86 177.216 279.952 174.587C274.164 169.355 266.222 165.61 260.441 163.6L257.814 171.157ZM255.022 164.075C253.562 166.834 254.958 170.164 257.814 171.157L260.441 163.6C262.123 164.185 262.971 166.159 262.093 167.818L255.022 164.075Z" fill="#333333"/>
<path d="M155.888 91.2084C151.298 116.518 151.018 141.668 158.788 166.488C159.468 168.668 158.728 170.008 156.938 171.048C153.308 173.158 149.258 173.678 145.198 174.108C135.728 175.108 126.238 174.618 116.778 174.018C101.248 173.028 85.7876 171.318 70.3676 169.218C64.2676 168.388 58.1776 167.538 52.0876 166.638C45.7876 165.708 43.0376 162.848 41.8776 156.508C39.6576 144.378 39.6776 132.168 40.5476 119.938C42.0576 98.6384 45.6576 77.6884 51.4676 57.1284C53.6476 49.4384 56.3276 41.9284 59.7176 34.6784C64.5376 24.3784 72.6576 18.8284 83.7876 17.1184C94.4976 15.4784 105.178 15.8484 115.878 16.9084C135.538 18.8584 154.818 22.8684 173.928 27.7584C176.918 28.5284 177.358 29.5684 175.948 32.3684C167.928 48.2484 161.658 64.7584 157.778 82.1484C157.118 85.1584 156.648 88.2184 155.858 91.2084H155.888Z" fill="#333333"/>
<path d="M155.888 91.2084C156.208 88.1184 156.708 85.0784 157.808 82.1484C157.588 85.2584 157.188 88.3284 155.888 91.2084Z" fill="#C4A73B"/>
<path d="M100.908 39.6482C111.448 34.5582 122.728 32.1782 134.258 30.8982C145.538 29.6482 156.838 29.8982 168.098 31.3882C171.248 31.8082 171.228 31.7782 169.868 34.6182C162.288 50.3282 156.608 66.6882 152.768 83.6982C151.988 85.8182 151.768 88.0582 151.398 90.2582C149.418 101.818 148.138 113.458 148.238 125.198C148.358 138.868 149.788 152.388 153.768 165.538C154.298 167.288 153.778 167.898 152.178 168.358C147.078 169.808 141.858 169.968 136.628 170.098C134.048 170.168 131.478 170.108 128.898 170.108C127.648 169.668 126.358 170.038 125.088 169.898C124.348 169.618 123.548 169.708 122.788 169.578C121.878 169.288 120.928 169.378 119.988 169.338C112.018 167.648 104.038 166.058 96.0776 164.358C86.6476 162.348 77.2676 160.078 67.6876 158.798C66.5376 158.648 65.4076 158.308 64.2576 158.148C57.0376 157.138 53.1676 152.658 51.5076 145.898C50.7176 142.668 50.2676 139.388 50.1376 136.038C49.7576 126.078 49.3276 116.118 49.1876 106.158C49.0576 97.2682 49.6476 88.4182 50.8576 79.6082C52.2076 70.8182 54.6476 62.2782 57.2476 53.7982C59.3676 46.8982 61.7876 40.0982 65.3776 33.7882C66.6076 31.6282 67.9476 29.5282 70.1776 28.2082C72.4476 27.1282 74.4176 28.2082 76.3176 29.1882C78.5476 30.3382 80.4276 31.9382 81.9276 34.0282C84.4576 37.5582 86.6176 41.2682 88.3776 45.2382C89.3076 47.3282 89.7476 47.4282 91.4576 45.9682C94.3776 43.4882 97.5176 41.3782 100.928 39.6482H100.908Z" fill="#FCF3BC"/>
<path d="M50.8377 79.6084C50.5377 86.7384 50.2477 93.8584 49.9477 100.988C49.5377 110.558 50.3477 120.098 50.5477 129.648C50.6677 135.558 50.7377 141.568 52.6577 147.368C54.4777 152.848 57.7677 156.348 63.6277 157.248C81.1677 159.948 98.3777 164.298 115.798 167.638C117.338 167.928 118.718 168.898 120.368 168.658C121.138 169.268 122.128 168.628 122.918 169.118C123.608 169.198 124.358 169.048 124.898 169.658C122.208 170.148 119.548 169.608 116.878 169.518C113.428 169.408 110.008 168.828 106.558 168.908C106.148 168.908 105.738 168.918 105.358 168.708C100.198 168.188 95.0477 167.678 89.8877 167.158C85.5477 166.668 81.1977 166.308 76.8877 165.668C68.7377 164.508 60.5877 163.328 52.4377 162.188C48.9777 161.698 47.3877 160.418 46.6177 156.998C44.3677 146.928 44.1177 136.708 44.5877 126.468C45.2377 112.078 47.0877 97.8184 49.8477 83.6784C50.1177 82.3084 50.1177 80.8684 50.8377 79.6084Z" fill="#F0CA44"/>
<path d="M81.2076 22.3782C101.718 18.5382 121.778 21.7482 141.828 25.0682L141.878 25.7082C140.488 25.8382 139.098 25.9682 137.708 26.0982C136.218 26.2482 134.728 26.4082 133.238 26.5582C119.868 27.8982 107.108 31.4082 94.9977 37.2482C93.8777 37.7882 93.1676 38.0082 92.4776 36.5582C89.8576 31.0182 86.5476 25.9882 81.2076 22.3682V22.3782Z" fill="#F0CA44"/>
<path d="M100.908 39.6484C97.4176 42.2784 93.8776 44.8583 90.4476 47.5683C89.0576 48.6683 88.7876 47.6884 88.3776 46.7684C86.3776 42.2984 84.1876 37.9583 81.1276 34.0783C78.2976 30.4783 74.7876 28.3384 70.1576 28.2084C73.9776 25.1184 77.7376 25.1884 81.3476 28.4284C85.0776 31.7884 87.4676 36.0384 89.4076 40.5884C90.6776 43.5584 91.6476 43.8984 94.5676 42.4884C96.6476 41.4784 98.5876 40.1583 100.898 39.6583L100.908 39.6484Z" fill="#EFCA44"/>
<path d="M105.358 168.718C111.868 169.038 118.388 169.348 124.898 169.668C126.218 169.908 127.598 169.558 128.878 170.118C120.998 170.368 113.148 169.998 105.358 168.718Z" fill="#7C6D33"/>
<path d="M76.8776 165.678C81.2576 165.808 85.5876 166.308 89.8776 167.168C85.4776 167.278 81.1476 166.718 76.8776 165.678Z" fill="#7C6D33"/>
<path d="M151.388 90.2582C151.258 87.9482 151.538 85.7282 152.758 83.6982C152.498 85.9282 152.148 88.1382 151.388 90.2582Z" fill="#CBC49B"/>
<path d="M114.408 135.628C101.548 134.408 88.3976 133.158 75.2476 131.908C69.7876 131.388 64.3276 130.849 58.8676 130.339C57.2276 130.189 55.4476 130.049 55.6276 127.829C55.8076 125.619 57.5176 125.739 59.1976 125.899C77.3876 127.649 95.5876 129.379 113.788 131.109C114.198 131.149 114.618 131.158 115.028 131.198C116.618 131.368 118.178 131.749 117.908 133.799C117.668 135.609 116.248 135.879 114.398 135.619L114.408 135.628Z" fill="#333333"/>
<path d="M111.798 120.778C99.8876 119.658 88.2276 118.568 76.5676 117.468C70.3676 116.888 64.1576 116.308 57.9576 115.718C57.2176 115.648 56.4576 115.598 55.7376 115.418C54.5376 115.118 53.8376 114.318 54.0476 113.048C54.2376 111.858 54.9676 111.078 56.2776 111.178C59.2576 111.398 62.2476 111.618 65.2176 111.898C80.3576 113.318 95.4876 114.748 110.628 116.178C111.368 116.248 112.108 116.388 112.848 116.458C114.298 116.588 115.228 117.258 115.138 118.818C115.048 120.428 113.968 120.868 112.538 120.788C112.208 120.768 111.878 120.788 111.788 120.788L111.798 120.778Z" fill="#333333"/>
<path d="M70.4076 95.1884C83.8976 96.3884 97.3876 97.5784 110.878 98.7784C111.378 98.8184 111.868 98.8984 112.358 98.9584C113.798 99.1484 114.658 99.8584 114.538 101.428C114.408 103.088 113.268 103.448 111.898 103.338C107.008 102.948 102.128 102.528 97.2477 102.088C84.2577 100.918 71.2677 99.7284 58.2777 98.5684C57.0477 98.4584 55.9477 98.2284 55.4477 96.9384C54.9077 95.5284 55.8477 94.7984 56.8377 94.1084C61.3777 94.3184 65.8877 94.8584 70.4177 95.1684L70.4076 95.1884Z" fill="#333333"/>
<path d="M101.718 151.418C90.6276 150.108 79.3876 148.778 68.1476 147.458C65.1776 147.108 62.1876 146.818 59.2176 146.438C57.7576 146.258 56.6076 145.608 56.8376 143.868C57.0676 142.178 58.2676 141.758 59.7676 141.938C73.9776 143.648 88.1776 145.378 102.398 147.058C104.068 147.258 105.158 147.878 104.908 149.698C104.658 151.468 103.298 151.568 101.718 151.418Z" fill="#343433"/>
<path d="M118.558 53.1682C121.898 54.8482 124.698 56.2482 127.488 57.6582C128.378 58.1082 129.258 58.5782 130.128 59.0682C131.358 59.7582 131.658 60.8382 131.058 62.0382C130.428 63.3082 129.268 63.5282 128.078 62.9382C122.938 60.3882 117.788 57.8482 112.728 55.1482C110.878 54.1682 110.938 52.2782 112.808 51.2082C117.218 48.6982 121.688 46.2882 126.168 43.9082C127.368 43.2682 128.678 43.2782 129.378 44.7082C130.028 46.0482 129.528 47.1182 128.228 47.8282C125.178 49.4982 122.138 51.1782 118.548 53.1582L118.558 53.1682Z" fill="#343433"/>
<path d="M67.0676 62.1683C65.9376 62.2183 65.0876 61.7783 64.8076 60.6383C64.4776 59.2983 65.0876 58.3382 66.3176 57.8482C69.4076 56.6282 72.4876 55.3682 75.6376 54.3182C77.6976 53.6282 77.5376 53.0082 75.9876 51.8782C74.4476 50.7482 72.9976 49.4883 71.5476 48.2483C70.4376 47.3083 70.1576 46.1382 71.1076 44.9682C71.9976 43.8582 73.1876 43.9382 74.2176 44.7582C77.4076 47.2882 80.6076 49.8183 83.6876 52.4883C85.0376 53.6583 84.7876 55.5083 83.1576 56.1683C77.9976 58.2483 72.7676 60.1483 67.5576 62.1083C67.4076 62.1683 67.2276 62.1583 67.0676 62.1783V62.1683Z" fill="#343434"/>
<path d="M90.9576 62.6683C90.6576 64.5383 91.0876 66.1583 93.1876 66.4083C95.4476 66.6783 96.1476 65.0483 96.3776 63.1183C96.5276 61.8783 96.6676 60.6383 96.8976 59.4183C97.1376 58.1183 97.9376 57.2483 99.3076 57.4483C100.588 57.6383 101.428 58.5183 101.258 59.9083C101.008 61.9683 100.858 64.0683 100.258 66.0383C99.0276 70.1183 94.5276 72.0483 90.6176 70.3683C87.0276 68.8283 85.1976 63.9583 86.8876 60.4283C87.3976 59.3683 88.2876 58.9783 89.3576 59.2583C91.1976 59.7283 91.1276 61.1983 90.9576 62.6683Z" fill="#353534"/>
<path d="M130.608 74.8282C128.308 74.6982 125.778 74.8683 124.778 72.1183C124.088 70.2083 125.838 67.9983 128.938 66.7083C131.678 65.5683 134.528 65.1482 137.418 66.1282C140.548 67.1882 141.118 69.7882 138.628 71.9682C136.358 73.9482 133.648 74.8883 130.608 74.8383V74.8282Z" fill="#D94791"/>
<path d="M64.3076 73.8384C61.0976 73.6584 58.0776 72.9984 55.8376 70.4184C54.2376 68.5784 54.6076 66.6884 56.7576 65.5084C60.1876 63.6184 67.1976 65.0884 69.5576 68.1984C71.0676 70.1884 70.5276 72.2584 68.2276 73.2284C66.9876 73.7484 65.6776 73.9084 64.3176 73.8384H64.3076Z" fill="#D94791"/>
<path d="M70.4076 95.1882C65.8376 95.3482 61.3276 94.7882 56.8276 94.1282C58.4376 93.2182 60.0376 94.1782 61.6276 94.2382C64.5676 94.3582 67.5276 94.4582 70.4076 95.1882Z" fill="#807D67"/>
<path d="M122.918 169.118C122.048 169.078 121.098 169.478 120.368 168.658C121.238 168.718 122.168 168.428 122.918 169.118Z" fill="#F4D762"/>
<path d="M66 166L70.6999 220.519C70.7862 221.52 69.4035 222.094 68.6753 221.401C63.0963 216.091 52.659 211.622 42 224" stroke="#333333" stroke-width="8"/>
<path d="M75.0192 136.666C75.0692 128.436 77.5592 122.406 83.0292 117.536C95.6492 106.316 108.149 94.9661 120.749 83.7261C123.059 81.6661 125.809 80.236 128.799 79.356C134.379 77.706 140.009 76.206 145.549 74.436C150.749 72.776 155.829 72.536 161.229 73.816C175.289 77.156 189.459 80.086 203.559 83.236C208.879 84.426 212.969 87.566 215.589 92.246C226.349 111.486 237.089 130.736 247.589 150.126C252.089 158.426 251.719 166.946 246.729 175.066C240.159 185.766 233.429 196.386 226.869 207.096C223.289 212.946 218.269 216.336 211.429 217.266C202.539 218.476 193.689 219.946 184.799 221.216C180.559 221.826 176.329 220.986 172.109 220.676C163.409 220.056 154.719 219.166 146.029 218.436C134.349 217.446 122.679 216.436 110.989 215.546C107.239 215.266 103.529 215.106 100.169 213.116C94.8492 209.966 91.6692 205.246 90.1892 199.366C85.3992 180.436 80.6792 161.486 75.9292 142.536C75.3592 140.266 74.8992 137.986 75.0192 136.656V136.666Z" fill="#333333"/>
<path d="M90.0992 117.436C96.6392 111.526 103.149 105.606 109.709 99.7261C114.289 95.6161 118.949 91.596 123.549 87.506C127.419 84.056 131.809 83.206 136.769 84.556C148.319 87.696 159.879 90.756 171.439 93.856C171.829 93.966 172.199 94.176 172.579 94.336C174.519 95.046 175.909 96.406 177.159 98.006C181.729 103.826 184.259 110.606 186.299 117.566C190.469 131.756 191.859 146.286 191.219 161.026C190.949 167.166 189.539 173.036 186.299 178.376C181.399 186.456 173.919 189.596 164.909 188.976C154.919 188.296 144.939 188.786 134.959 188.566C130.629 188.466 126.309 188.236 122.049 187.466C115.789 186.326 109.709 184.606 104.569 180.576C98.8092 176.056 95.3092 169.946 92.7492 163.266C88.6192 152.476 86.9292 141.236 87.4392 129.716C87.6292 125.536 87.7192 121.196 90.0892 117.416L90.0992 117.436Z" fill="#CBCBCB"/>
<path d="M90.0992 117.436C88.4592 123.826 87.6992 130.316 88.1092 136.896C88.8592 148.756 91.1392 160.236 97.0392 170.736C102.629 180.696 111.699 185.226 122.549 186.846C134.369 188.616 146.279 187.666 158.149 187.826C162.349 187.886 166.489 188.626 170.779 187.986C177.519 186.996 182.269 183.526 185.719 177.976C189.239 172.316 190.339 165.996 190.569 159.426C191.059 145.146 189.559 131.106 185.509 117.396C183.249 109.746 180.469 102.266 174.749 96.3462C174.059 95.6362 173.299 94.9962 172.579 94.3262C177.769 95.6462 183.329 95.9862 187.639 99.7262C190.929 102.586 192.709 106.306 193.429 110.516C196.829 130.356 200.169 150.196 203.539 170.036C204.389 175.036 205.239 180.036 206.099 185.036C207.219 191.536 205.589 197.236 201.109 202.086C197.839 205.636 194.579 209.186 191.239 212.676C188.449 215.586 185.009 217.166 180.939 216.846C165.679 215.636 150.419 214.356 135.169 213.106C126.379 212.386 117.599 211.576 108.809 210.946C101.539 210.426 97.1092 206.296 95.0692 199.736C92.9992 193.076 91.5492 186.226 89.8492 179.446C86.7092 166.946 83.6492 154.426 80.4292 141.946C78.0292 132.656 80.3292 125.036 87.9592 119.106C88.6792 118.546 89.3792 117.976 90.0892 117.406L90.0992 117.436Z" fill="#B2B2B2"/>
<path d="M141.559 80.4161C144.729 79.4461 147.899 78.446 151.079 77.516C153.279 76.876 155.509 77.086 157.689 77.566C172.419 80.826 187.129 84.146 201.859 87.386C206.389 88.376 209.749 90.906 211.959 94.856C218.369 106.316 224.649 117.846 231.019 129.336C234.759 136.096 238.449 142.896 242.359 149.556C247.289 157.966 247.429 166.096 242.039 174.406C235.529 184.436 229.199 194.596 222.959 204.796C220.209 209.296 216.529 212.016 211.269 212.716C206.189 213.386 201.139 214.216 195.339 215.086C198.299 211.836 200.639 208.966 203.289 206.416C210.069 199.916 211.639 191.956 210.199 183.096C208.189 170.756 206.119 158.426 204.029 146.106C202.149 135.006 200.089 123.926 198.329 112.806C197.519 107.716 196.229 102.926 192.999 98.796C190.499 95.606 187.279 93.4661 183.409 92.4161C170.039 88.8061 156.639 85.276 143.249 81.706C143.009 81.646 142.789 81.506 142.559 81.406C142.339 80.956 141.249 81.376 141.559 80.406V80.4161Z" fill="#666666"/>
<path d="M107.389 112.616C107.469 108.416 109.339 105.136 112.699 102.716C114.229 101.616 115.949 100.916 117.809 102.026C119.589 103.096 120.079 104.856 119.959 106.756C119.709 110.776 118.039 114.116 114.759 116.526C113.159 117.706 111.379 118.436 109.419 117.376C107.529 116.356 107.299 114.546 107.379 112.616H107.389Z" fill="#333333"/>
<path d="M151.889 125.926C152.139 122.056 153.449 118.726 156.479 116.296C159.559 113.836 162.789 114.936 163.619 118.776C164.529 122.996 163.019 126.656 160.239 129.746C158.819 131.336 156.919 132.416 154.669 131.506C152.149 130.486 152.029 128.146 151.879 125.926H151.889Z" fill="#333333"/>
<path d="M165.019 131.836C167.469 131.686 169.619 132.516 171.459 134.036C174.719 136.716 174.239 140.646 170.409 142.416C167.079 143.956 163.759 143.566 160.699 141.646C158.749 140.426 157.549 138.626 158.049 136.196C158.569 133.666 160.559 132.626 162.809 132.016C163.519 131.826 164.289 131.886 165.029 131.836H165.019Z" fill="#D94691"/>
<path d="M126.079 124.896C125.979 128.106 127.909 130.826 130.729 131.456C133.939 132.166 136.739 130.806 138.029 127.696C138.679 126.136 139.459 124.816 141.279 125.566C143.269 126.386 142.739 128.076 142.119 129.616C140.179 134.386 134.939 137.046 129.869 135.856C124.769 134.656 121.179 129.896 121.649 124.826C121.799 123.206 121.769 121.186 124.219 121.336C126.609 121.476 126.209 123.316 126.079 124.896Z" fill="#343434"/>
<path d="M101.789 125.966C99.2292 126.026 97.4692 125.566 95.9592 124.456C92.9092 122.206 93.0992 118.926 96.3392 117.036C98.7092 115.656 103.439 116.156 105.499 118.006C106.849 119.216 107.939 120.576 107.389 122.546C106.859 124.446 105.289 125.256 103.579 125.766C102.799 125.996 101.939 125.956 101.789 125.966Z" fill="#D94691"/>
<path d="M119 224.5C116.791 224.5 115 226.291 115 228.5C115 230.709 116.791 232.5 119 232.5V224.5ZM128.797 228.057L132.119 230.286L128.797 228.057ZM155.714 190.726L152.018 192.255L155.714 190.726ZM153.96 190.551L150.638 188.322L153.96 190.551ZM170.696 216.471L159.41 189.196L152.018 192.255L163.304 219.529L170.696 216.471ZM150.638 188.322L125.475 225.829L132.119 230.286L157.281 192.779L150.638 188.322ZM127.967 224.5H119V232.5H127.967V224.5ZM125.475 225.829C126.033 224.998 126.967 224.5 127.967 224.5V232.5C129.633 232.5 131.19 231.67 132.119 230.286L125.475 225.829ZM159.41 189.196C157.884 185.507 152.862 185.007 150.638 188.322L157.281 192.779C155.947 194.769 152.934 194.468 152.018 192.255L159.41 189.196Z" fill="#333333"/>
<path d="M79 221.5C76.7909 221.5 75 223.291 75 225.5C75 227.709 76.7909 229.5 79 229.5V221.5ZM88.7971 225.057L92.1188 227.286L88.7971 225.057ZM115.714 187.726L112.018 189.255L115.714 187.726ZM113.96 187.551L110.638 185.322L113.96 187.551ZM130.696 213.471L119.41 186.196L112.018 189.255L123.304 216.529L130.696 213.471ZM110.638 185.322L85.4754 222.829L92.1188 227.286L117.281 189.779L110.638 185.322ZM87.9667 221.5H79V229.5H87.9667V221.5ZM85.4754 222.829C86.0325 221.998 86.9667 221.5 87.9667 221.5V229.5C89.6333 229.5 91.1903 228.67 92.1188 227.286L85.4754 222.829ZM119.41 186.196C117.884 182.507 112.862 182.007 110.638 185.322L117.281 189.779C115.947 191.769 112.934 191.468 112.018 189.255L119.41 186.196Z" fill="#333333"/>
</svg>
