<svg width="266" height="233" viewBox="0 0 266 233" fill="none" xmlns="http://www.w3.org/2000/svg">
<path d="M209.483 134.839C209.783 136.559 210.123 138.269 210.373 139.999C211.793 149.849 207.493 156.879 199.463 162.059C186.253 170.579 164.063 169.269 152.053 150.989C146.203 142.089 143.323 132.199 142.383 121.679C141.453 111.349 142.383 101.249 145.963 91.4591C146.563 89.8191 147.063 88.0591 148.053 86.6691C150.003 83.9491 149.593 81.6091 148.253 78.6891C141.263 63.5391 139.133 47.5291 140.303 30.9691C140.963 21.5391 142.593 12.3191 145.433 3.30908C146.563 -0.28092 147.173 -0.58092 150.623 0.66908C176.773 10.1191 194.813 28.0991 205.853 53.3791C206.583 55.0591 207.463 55.6991 209.243 55.9891C218.773 57.5491 226.993 62.0391 234.503 67.8891C247.653 78.1291 257.813 90.6691 263.093 106.709C266.713 117.699 266.683 128.519 260.433 138.709C256.443 145.209 250.853 150.029 243.773 152.859C234.713 156.479 227.023 153.539 220.203 147.309C216.373 143.809 213.193 139.749 210.443 135.349C210.13 134.889 209.816 134.726 209.503 134.859L209.483 134.839Z" fill="#333333"/>
<path d="M209.483 134.839C209.033 134.559 208.713 133.839 209.143 133.779C210.053 133.649 210.363 134.489 210.413 135.329C210.103 135.169 209.793 134.999 209.473 134.839H209.483Z" fill="#39646D"/>
<path d="M184.783 83.4492C187.503 94.0592 192.963 103.349 197.343 113.119C201.603 122.639 205.133 132.599 206.173 143.139C206.573 147.199 204.993 150.779 202.243 153.839C190.783 166.599 169.343 165.449 158.033 151.459C152.113 144.139 148.923 135.639 147.413 126.479C145.303 113.639 146.233 101.119 151.723 89.1192C152.653 87.0992 153.833 86.5492 155.933 86.6592C162.833 87.0292 169.733 87.0992 176.603 85.9592C179.403 85.4892 182.053 84.5892 184.783 83.4592V83.4492Z" fill="#5BC6E0"/>
<path d="M244.453 83.8291C244.773 84.1791 245.093 84.5391 245.423 84.8891C245.943 85.5391 246.413 86.2391 247.053 86.7891C253.203 94.1091 257.473 102.409 259.883 111.659C260.073 112.379 260.243 113.099 260.423 113.819C261.343 118.319 261.483 122.819 260.413 127.319C258.003 136.879 252.153 143.679 243.493 148.099C237.503 151.149 231.693 150.339 226.323 146.479C220.673 142.429 216.503 137.009 213.003 131.119C205.533 118.539 198.083 105.929 192.453 92.3691C190.853 88.5191 189.633 84.5491 188.723 80.4891C188.533 79.6591 188.393 78.8891 188.943 78.1091C193.053 72.2391 197.293 66.4991 202.963 61.9691C205.043 60.3091 207.193 59.9791 209.723 60.5391C221.063 63.0791 230.203 69.4191 238.523 77.1791C239.913 78.4691 241.413 79.6891 242.443 81.3291C242.723 81.6791 242.733 82.0191 242.423 82.3491C241.013 82.5391 240.363 81.3991 239.583 80.6091C234.903 75.8791 229.533 72.1491 223.513 69.3291C219.373 67.3891 214.983 66.5591 210.463 66.2491C209.623 66.1891 208.803 66.3991 208.013 66.6591C205.593 67.4691 203.723 69.5891 203.813 71.4091C203.893 73.1191 205.813 74.7891 208.423 75.3691C211.423 76.0391 214.503 76.2591 217.483 77.1191C227.693 80.0591 236.353 85.4091 243.203 93.5391C248.463 99.7791 250.993 107.219 252.043 115.219C252.223 116.629 252.443 118.029 252.713 119.409C252.893 120.319 252.863 121.739 254.203 121.599C255.263 121.479 255.213 120.209 255.243 119.309C255.373 115.559 255.273 111.829 254.463 108.129C252.553 99.4291 248.913 91.5891 243.193 84.7491C242.663 84.1191 242.003 83.5391 242.223 82.5691C243.673 81.7291 243.753 83.3391 244.463 83.8291H244.453Z" fill="#5BC6E0"/>
<path d="M148.723 10.3992C150.603 16.0392 152.503 21.6692 154.363 27.3192C157.883 37.9792 161.553 48.5992 164.823 59.3292C166.143 63.6492 168.453 67.0592 171.593 70.1192C174.393 72.8492 177.033 75.7392 179.783 78.5192C180.963 79.7192 180.853 80.3892 179.163 80.8692C176.103 81.7392 172.953 82.1192 169.813 82.2592C165.493 82.4492 161.163 82.2592 156.833 82.3392C155.353 82.3692 154.613 81.7492 153.963 80.4892C146.153 65.2492 143.623 49.0192 144.713 32.0792C145.123 25.6792 145.913 19.3292 147.393 13.0792C147.603 12.1992 147.843 11.3292 148.063 10.4492C148.283 10.4292 148.503 10.4092 148.713 10.3892L148.723 10.3992Z" fill="#B2B2B2"/>
<path d="M176.383 68.3592C171.003 64.6492 169.353 58.8092 167.483 53.0192C162.753 38.3992 157.883 23.8192 153.063 9.2192C152.783 8.3592 152.513 7.4892 152.023 5.9292C166.113 11.6792 177.723 19.8092 186.973 31.2592C191.703 38.5992 192.063 46.4992 189.943 54.6992C188.563 60.0392 185.853 64.4892 181.013 67.3892C179.613 68.2292 178.173 69.2392 176.383 68.3492V68.3592Z" fill="#CBCBCB"/>
<path d="M176.383 68.359C182.143 67.289 185.743 63.509 187.913 58.439C191.753 49.469 191.293 40.519 187.003 31.759C186.933 31.619 186.973 31.429 186.963 31.269C192.673 37.519 196.933 44.709 200.483 52.349C202.433 56.539 202.383 56.539 198.953 59.389C193.653 63.799 189.663 69.339 185.743 74.909C184.563 76.589 183.843 76.559 182.593 75.139C180.573 72.829 178.453 70.619 176.373 68.369L176.383 68.359Z" fill="#B2B2B2"/>
<path d="M260.403 127.319C260.943 122.819 260.873 118.319 260.413 113.819C261.873 118.319 261.923 122.819 260.403 127.319Z" fill="#3B666F"/>
<path d="M242.403 82.3391C242.403 81.9991 242.403 81.6591 242.413 81.3291C243.283 82.0091 244.233 82.6291 244.443 83.8391C243.763 83.3391 243.083 82.8391 242.393 82.3391H242.403Z" fill="#5CC4DA"/>
<path d="M247.043 86.7892C246.113 86.4892 245.513 85.8992 245.413 84.8892C246.293 85.2292 246.713 85.9692 247.043 86.7892Z" fill="#5CC4DA"/>
<path d="M180.423 148.399C173.523 148.319 168.973 144.869 165.163 140.209C156.033 129.049 154.173 109.969 160.973 97.279C163.283 92.979 166.443 89.769 171.803 89.669C175.233 89.609 177.663 91.039 179.363 93.989C184.603 103.109 188.503 112.829 192.403 122.549C193.893 126.259 195.123 130.049 196.153 133.909C196.883 136.649 196.483 139.119 194.493 141.329C190.573 145.679 185.863 148.279 180.433 148.399H180.423Z" fill="#333333"/>
<path d="M219.433 81.7792C233.663 86.7192 243.523 96.0192 247.593 110.739C249.333 117.009 249.343 123.369 244.823 128.749C240.333 134.079 234.383 135.909 227.583 135.189C225.923 135.009 224.763 133.909 223.773 132.589C219.173 126.519 215.823 119.709 212.323 112.999C209.213 107.019 206.273 100.949 203.943 94.6192C201.673 88.4592 203.413 84.4392 209.423 81.7092C212.773 80.6492 216.113 80.7492 219.443 81.7692L219.433 81.7792Z" fill="#333333"/>
<path d="M242.403 82.3391C244.563 85.7591 247.323 88.7591 249.243 92.3391C253.923 101.079 256.603 110.269 255.873 120.279C255.793 121.359 255.493 122.559 254.183 122.739C252.643 122.959 252.513 121.579 252.313 120.589C251.793 118.079 251.353 115.559 250.963 113.029C248.813 98.8391 240.593 89.1091 228.393 82.3191C222.453 79.0091 216.103 76.9891 209.313 76.2791C205.483 75.8791 202.563 73.1491 203.023 70.7991C203.663 67.5391 207.633 65.3791 211.333 65.6591C223.323 66.5791 232.513 72.7391 240.723 80.8791C241.253 81.3991 241.843 81.8591 242.413 82.3391H242.403Z" fill="#7BEBF8"/>
<path d="M219.433 81.7792C216.093 81.1992 212.763 80.9793 209.413 81.7193C212.763 80.1893 216.103 80.2792 219.433 81.7792Z" fill="#4CA0B4"/>
<path d="M171.513 45.379C168.463 45.379 166.593 43.769 165.393 40.549C164.413 37.929 165.603 36.239 167.553 34.779C167.753 34.629 167.963 34.489 168.163 34.349C171.643 31.899 171.673 31.899 173.983 35.559C174.743 36.749 175.483 37.959 176.223 39.159C177.933 41.919 177.563 43.219 174.673 44.619C173.603 45.129 172.493 45.419 171.503 45.379H171.513Z" fill="#343434"/>
<path d="M171.533 22.3191C173.343 22.3191 174.853 22.5191 175.253 24.1591C175.653 25.8091 174.363 26.7191 173.063 27.3391C171.213 28.2391 169.273 28.5791 167.423 27.3891C166.553 26.8291 166.393 25.8491 166.883 24.9691C167.953 23.0391 169.793 22.4291 171.533 22.3291V22.3191Z" fill="#363636"/>
<path d="M181.273 45.8692C181.303 42.9392 183.713 40.1292 185.883 40.2092C187.533 40.2692 187.963 41.3492 187.923 42.7492C187.863 45.2692 185.303 48.2792 183.273 48.1892C181.633 48.1192 181.293 46.9392 181.273 45.8692Z" fill="#363636"/>
<path d="M185.093 56.3091C183.053 56.3091 180.493 53.9191 180.573 52.1091C180.633 50.6691 181.303 49.5091 182.963 49.4391C184.833 49.3691 187.373 51.9891 187.283 53.9391C187.213 55.3991 186.223 56.0891 185.083 56.3091H185.093Z" fill="#D94992"/>
<path d="M160.353 18.439C160.253 17.139 160.483 15.749 162.343 15.539C163.893 15.359 165.403 17.289 165.453 19.389C165.483 20.909 165.243 22.279 163.333 22.409C161.473 22.539 160.383 21.139 160.353 18.449V18.439Z" fill="#D94892"/>
<path d="M161.393 113.599C161.283 109.659 162.393 104.509 164.753 99.629C165.643 97.809 166.873 96.229 168.583 95.119C171.543 93.189 174.173 93.809 175.893 96.899C179.343 103.079 182.243 109.519 184.933 116.059C187.433 122.129 189.953 128.179 191.683 134.539C192.193 136.419 191.723 137.709 190.483 139.029C184.203 145.729 175.343 145.449 169.443 138.369C163.813 131.609 161.353 123.789 161.383 113.609L161.393 113.599Z" fill="#5BC6E0"/>
<path d="M229.773 130.969C228.483 131.119 227.493 130.279 226.633 128.999C220.903 120.479 216.343 111.329 211.973 102.079C210.443 98.8491 209.093 95.5291 207.823 92.1991C206.793 89.5191 207.593 87.8191 210.123 86.4391C212.563 85.1191 215.073 85.3291 217.643 85.9391C230.633 89.0091 242.463 102.319 243.963 115.609C245.183 126.399 237.293 130.679 229.773 130.979V130.969Z" fill="#5BC6E0"/>
<path d="M240.862 193.337C239.944 195.346 240.828 197.719 242.837 198.638C244.846 199.556 247.219 198.672 248.138 196.663L240.862 193.337ZM221.128 167.378L222.441 163.6L221.128 167.378ZM225.465 148.128L217.022 164.075L224.093 167.818L232.535 151.872L225.465 148.128ZM219.814 171.157C225.064 172.982 231.9 176.284 236.587 180.522C238.916 182.628 240.498 184.771 241.239 186.856C241.937 188.819 241.968 190.919 240.862 193.337L248.138 196.663C250.124 192.318 250.158 188.062 248.777 184.177C247.439 180.414 244.86 177.216 241.952 174.587C236.164 169.355 228.222 165.61 222.441 163.6L219.814 171.157ZM217.022 164.075C215.562 166.834 216.958 170.164 219.814 171.157L222.441 163.6C224.123 164.185 224.971 166.159 224.093 167.818L217.022 164.075Z" fill="#333333"/>
<path d="M117.888 91.2084C113.298 116.518 113.018 141.668 120.788 166.488C121.468 168.668 120.728 170.008 118.938 171.048C115.308 173.158 111.258 173.678 107.198 174.108C97.7276 175.108 88.2376 174.618 78.7776 174.018C63.2476 173.028 47.7876 171.318 32.3676 169.218C26.2676 168.388 20.1776 167.538 14.0876 166.638C7.78761 165.708 5.0376 162.848 3.8776 156.508C1.6576 144.378 1.6776 132.168 2.5476 119.938C4.0576 98.6384 7.65762 77.6884 13.4676 57.1284C15.6476 49.4384 18.3276 41.9284 21.7176 34.6784C26.5376 24.3784 34.6576 18.8284 45.7876 17.1184C56.4976 15.4784 67.1776 15.8484 77.8776 16.9084C97.5376 18.8584 116.818 22.8684 135.928 27.7584C138.918 28.5284 139.358 29.5684 137.948 32.3684C129.928 48.2484 123.658 64.7584 119.778 82.1484C119.118 85.1584 118.648 88.2184 117.858 91.2084H117.888Z" fill="#333333"/>
<path d="M117.888 91.2084C118.208 88.1184 118.708 85.0784 119.808 82.1484C119.588 85.2584 119.188 88.3284 117.888 91.2084Z" fill="#C4A73B"/>
<path d="M62.9076 39.6482C73.4476 34.5582 84.7276 32.1782 96.2576 30.8982C107.538 29.6482 118.838 29.8982 130.098 31.3882C133.248 31.8082 133.228 31.7782 131.868 34.6182C124.288 50.3282 118.608 66.6882 114.768 83.6982C113.988 85.8182 113.768 88.0582 113.398 90.2582C111.418 101.818 110.138 113.458 110.238 125.198C110.358 138.868 111.788 152.388 115.768 165.538C116.298 167.288 115.778 167.898 114.178 168.358C109.078 169.808 103.858 169.968 98.6276 170.098C96.0476 170.168 93.4776 170.108 90.8976 170.108C89.6476 169.668 88.3576 170.038 87.0876 169.898C86.3476 169.618 85.5476 169.708 84.7876 169.578C83.8776 169.288 82.9276 169.378 81.9876 169.338C74.0176 167.648 66.0376 166.058 58.0776 164.358C48.6476 162.348 39.2676 160.078 29.6876 158.798C28.5376 158.648 27.4076 158.308 26.2576 158.148C19.0376 157.138 15.1676 152.658 13.5076 145.898C12.7176 142.668 12.2676 139.388 12.1376 136.038C11.7576 126.078 11.3276 116.118 11.1876 106.158C11.0576 97.2682 11.6476 88.4182 12.8576 79.6082C14.2076 70.8182 16.6476 62.2782 19.2476 53.7982C21.3676 46.8982 23.7876 40.0982 27.3776 33.7882C28.6076 31.6282 29.9476 29.5282 32.1776 28.2082C34.4476 27.1282 36.4176 28.2082 38.3176 29.1882C40.5476 30.3382 42.4276 31.9382 43.9276 34.0282C46.4576 37.5582 48.6176 41.2682 50.3776 45.2382C51.3076 47.3282 51.7476 47.4282 53.4576 45.9682C56.3776 43.4882 59.5176 41.3782 62.9276 39.6482H62.9076Z" fill="#FCF3BC"/>
<path d="M12.8377 79.6084C12.5377 86.7384 12.2477 93.8584 11.9477 100.988C11.5377 110.558 12.3477 120.098 12.5477 129.648C12.6677 135.558 12.7377 141.568 14.6577 147.368C16.4777 152.848 19.7677 156.348 25.6277 157.248C43.1677 159.948 60.3777 164.298 77.7977 167.638C79.3377 167.928 80.7177 168.898 82.3677 168.658C83.1377 169.268 84.1277 168.628 84.9177 169.118C85.6077 169.198 86.3577 169.048 86.8977 169.658C84.2077 170.148 81.5477 169.608 78.8777 169.518C75.4277 169.408 72.0077 168.828 68.5577 168.908C68.1477 168.908 67.7377 168.918 67.3577 168.708C62.1977 168.188 57.0477 167.678 51.8877 167.158C47.5477 166.668 43.1977 166.308 38.8877 165.668C30.7377 164.508 22.5877 163.328 14.4377 162.188C10.9777 161.698 9.38767 160.418 8.61767 156.998C6.36767 146.928 6.11767 136.708 6.58767 126.468C7.23767 112.078 9.08767 97.8184 11.8477 83.6784C12.1177 82.3084 12.1177 80.8684 12.8377 79.6084Z" fill="#F0CA44"/>
<path d="M43.2076 22.3782C63.7176 18.5382 83.7776 21.7482 103.828 25.0682L103.878 25.7082C102.488 25.8382 101.098 25.9682 99.7076 26.0982C98.2176 26.2482 96.7276 26.4082 95.2376 26.5582C81.8676 27.8982 69.1077 31.4082 56.9977 37.2482C55.8777 37.7882 55.1676 38.0082 54.4776 36.5582C51.8576 31.0182 48.5476 25.9882 43.2076 22.3682V22.3782Z" fill="#F0CA44"/>
<path d="M62.9076 39.6484C59.4176 42.2784 55.8776 44.8583 52.4476 47.5683C51.0576 48.6683 50.7876 47.6884 50.3776 46.7684C48.3776 42.2984 46.1876 37.9583 43.1276 34.0783C40.2976 30.4783 36.7876 28.3384 32.1576 28.2084C35.9776 25.1184 39.7376 25.1884 43.3476 28.4284C47.0776 31.7884 49.4676 36.0384 51.4076 40.5884C52.6776 43.5584 53.6476 43.8984 56.5676 42.4884C58.6476 41.4784 60.5876 40.1583 62.8976 39.6583L62.9076 39.6484Z" fill="#EFCA44"/>
<path d="M67.3577 168.718C73.8677 169.038 80.3877 169.348 86.8977 169.668C88.2177 169.908 89.5977 169.558 90.8777 170.118C82.9977 170.368 75.1477 169.998 67.3577 168.718Z" fill="#7C6D33"/>
<path d="M38.8776 165.678C43.2576 165.808 47.5876 166.308 51.8776 167.168C47.4776 167.278 43.1476 166.718 38.8776 165.678Z" fill="#7C6D33"/>
<path d="M113.388 90.2582C113.258 87.9482 113.538 85.7282 114.758 83.6982C114.498 85.9282 114.148 88.1382 113.388 90.2582Z" fill="#CBC49B"/>
<path d="M76.4076 135.628C63.5476 134.408 50.3976 133.158 37.2476 131.908C31.7876 131.388 26.3276 130.849 20.8676 130.339C19.2276 130.189 17.4476 130.049 17.6276 127.829C17.8076 125.619 19.5176 125.739 21.1976 125.899C39.3876 127.649 57.5876 129.379 75.7876 131.109C76.1976 131.149 76.6176 131.158 77.0276 131.198C78.6176 131.368 80.1776 131.749 79.9076 133.799C79.6676 135.609 78.2476 135.879 76.3976 135.619L76.4076 135.628Z" fill="#333333"/>
<path d="M73.7976 120.778C61.8876 119.658 50.2276 118.568 38.5676 117.468C32.3676 116.888 26.1576 116.308 19.9576 115.718C19.2176 115.648 18.4576 115.598 17.7376 115.418C16.5376 115.118 15.8376 114.318 16.0476 113.048C16.2376 111.858 16.9676 111.078 18.2776 111.178C21.2576 111.398 24.2476 111.618 27.2176 111.898C42.3576 113.318 57.4876 114.748 72.6276 116.178C73.3676 116.248 74.1076 116.388 74.8476 116.458C76.2976 116.588 77.2276 117.258 77.1376 118.818C77.0476 120.428 75.9676 120.868 74.5376 120.788C74.2076 120.768 73.8776 120.788 73.7876 120.788L73.7976 120.778Z" fill="#333333"/>
<path d="M32.4076 95.1884C45.8976 96.3884 59.3876 97.5784 72.8776 98.7784C73.3776 98.8184 73.8677 98.8984 74.3577 98.9584C75.7977 99.1484 76.6576 99.8584 76.5376 101.428C76.4076 103.088 75.2676 103.448 73.8976 103.338C69.0076 102.948 64.1277 102.528 59.2477 102.088C46.2577 100.918 33.2677 99.7284 20.2777 98.5684C19.0477 98.4584 17.9477 98.2284 17.4477 96.9384C16.9077 95.5284 17.8477 94.7984 18.8377 94.1084C23.3777 94.3184 27.8877 94.8584 32.4177 95.1684L32.4076 95.1884Z" fill="#333333"/>
<path d="M63.7176 151.418C52.6276 150.108 41.3876 148.778 30.1476 147.458C27.1776 147.108 24.1876 146.818 21.2176 146.438C19.7576 146.258 18.6076 145.608 18.8376 143.868C19.0676 142.178 20.2676 141.758 21.7676 141.938C35.9776 143.648 50.1776 145.378 64.3976 147.058C66.0676 147.258 67.1576 147.878 66.9076 149.698C66.6576 151.468 65.2976 151.568 63.7176 151.418Z" fill="#343433"/>
<path d="M80.5576 53.1682C83.8976 54.8482 86.6976 56.2482 89.4876 57.6582C90.3776 58.1082 91.2576 58.5782 92.1276 59.0682C93.3576 59.7582 93.6576 60.8382 93.0576 62.0382C92.4276 63.3082 91.2676 63.5282 90.0776 62.9382C84.9376 60.3882 79.7876 57.8482 74.7276 55.1482C72.8776 54.1682 72.9376 52.2782 74.8076 51.2082C79.2176 48.6982 83.6875 46.2882 88.1676 43.9082C89.3675 43.2682 90.6776 43.2782 91.3776 44.7082C92.0276 46.0482 91.5275 47.1182 90.2275 47.8282C87.1775 49.4982 84.1376 51.1782 80.5476 53.1582L80.5576 53.1682Z" fill="#343433"/>
<path d="M29.0676 62.1683C27.9376 62.2183 27.0876 61.7783 26.8076 60.6383C26.4776 59.2983 27.0876 58.3382 28.3176 57.8482C31.4076 56.6282 34.4876 55.3682 37.6376 54.3182C39.6976 53.6282 39.5376 53.0082 37.9876 51.8782C36.4476 50.7482 34.9976 49.4883 33.5476 48.2483C32.4376 47.3083 32.1576 46.1382 33.1076 44.9682C33.9976 43.8582 35.1876 43.9382 36.2176 44.7582C39.4076 47.2882 42.6076 49.8183 45.6876 52.4883C47.0376 53.6583 46.7876 55.5083 45.1576 56.1683C39.9976 58.2483 34.7676 60.1483 29.5576 62.1083C29.4076 62.1683 29.2276 62.1583 29.0676 62.1783V62.1683Z" fill="#343434"/>
<path d="M52.9576 62.6683C52.6576 64.5383 53.0876 66.1583 55.1876 66.4083C57.4476 66.6783 58.1476 65.0483 58.3776 63.1183C58.5276 61.8783 58.6676 60.6383 58.8976 59.4183C59.1376 58.1183 59.9376 57.2483 61.3076 57.4483C62.5876 57.6383 63.4276 58.5183 63.2576 59.9083C63.0076 61.9683 62.8576 64.0683 62.2576 66.0383C61.0276 70.1183 56.5276 72.0483 52.6176 70.3683C49.0276 68.8283 47.1976 63.9583 48.8876 60.4283C49.3976 59.3683 50.2876 58.9783 51.3576 59.2583C53.1976 59.7283 53.1276 61.1983 52.9576 62.6683Z" fill="#353534"/>
<path d="M92.6076 74.8282C90.3076 74.6982 87.7776 74.8683 86.7776 72.1183C86.0876 70.2083 87.8376 67.9983 90.9376 66.7083C93.6776 65.5683 96.5276 65.1482 99.4176 66.1282C102.548 67.1882 103.118 69.7882 100.628 71.9682C98.3576 73.9482 95.6476 74.8883 92.6076 74.8383V74.8282Z" fill="#D94791"/>
<path d="M26.3076 73.8384C23.0976 73.6584 20.0776 72.9984 17.8376 70.4184C16.2376 68.5784 16.6076 66.6884 18.7576 65.5084C22.1876 63.6184 29.1976 65.0884 31.5576 68.1984C33.0676 70.1884 32.5276 72.2584 30.2276 73.2284C28.9876 73.7484 27.6776 73.9084 26.3176 73.8384H26.3076Z" fill="#D94791"/>
<path d="M32.4076 95.1882C27.8376 95.3482 23.3276 94.7882 18.8276 94.1282C20.4376 93.2182 22.0376 94.1782 23.6276 94.2382C26.5676 94.3582 29.5276 94.4582 32.4076 95.1882Z" fill="#807D67"/>
<path d="M84.9176 169.118C84.0476 169.078 83.0976 169.478 82.3676 168.658C83.2376 168.718 84.1676 168.428 84.9176 169.118Z" fill="#F4D762"/>
<path d="M28 166L32.6999 220.519C32.7862 221.52 31.4035 222.094 30.6753 221.401C25.0963 216.091 14.659 211.622 4 224" stroke="#333333" stroke-width="8"/>
<path d="M37.0192 136.666C37.0692 128.436 39.5592 122.406 45.0292 117.536C57.6492 106.316 70.1492 94.9661 82.7492 83.7261C85.0592 81.6661 87.8092 80.236 90.7992 79.356C96.3792 77.706 102.009 76.206 107.549 74.436C112.749 72.776 117.829 72.536 123.229 73.816C137.289 77.156 151.459 80.086 165.559 83.236C170.879 84.426 174.969 87.566 177.589 92.246C188.349 111.486 199.089 130.736 209.589 150.126C214.089 158.426 213.719 166.946 208.729 175.066C202.159 185.766 195.429 196.386 188.869 207.096C185.289 212.946 180.269 216.336 173.429 217.266C164.539 218.476 155.689 219.946 146.799 221.216C142.559 221.826 138.329 220.986 134.109 220.676C125.409 220.056 116.719 219.166 108.029 218.436C96.3492 217.446 84.6792 216.436 72.9892 215.546C69.2392 215.266 65.5292 215.106 62.1692 213.116C56.8492 209.966 53.6692 205.246 52.1892 199.366C47.3992 180.436 42.6792 161.486 37.9292 142.536C37.3592 140.266 36.8992 137.986 37.0192 136.656V136.666Z" fill="#333333"/>
<path d="M52.0992 117.436C58.6392 111.526 65.1492 105.606 71.7092 99.7261C76.2892 95.6161 80.9492 91.596 85.5492 87.506C89.4192 84.056 93.8092 83.206 98.7692 84.556C110.319 87.696 121.879 90.756 133.439 93.856C133.829 93.966 134.199 94.176 134.579 94.336C136.519 95.046 137.909 96.406 139.159 98.006C143.729 103.826 146.259 110.606 148.299 117.566C152.469 131.756 153.859 146.286 153.219 161.026C152.949 167.166 151.539 173.036 148.299 178.376C143.399 186.456 135.919 189.596 126.909 188.976C116.919 188.296 106.939 188.786 96.9592 188.566C92.6292 188.466 88.3092 188.236 84.0492 187.466C77.7892 186.326 71.7092 184.606 66.5692 180.576C60.8092 176.056 57.3092 169.946 54.7492 163.266C50.6192 152.476 48.9292 141.236 49.4392 129.716C49.6292 125.536 49.7192 121.196 52.0892 117.416L52.0992 117.436Z" fill="#CBCBCB"/>
<path d="M52.0992 117.436C50.4592 123.826 49.6992 130.316 50.1092 136.896C50.8592 148.756 53.1392 160.236 59.0392 170.736C64.6292 180.696 73.6992 185.226 84.5492 186.846C96.3692 188.616 108.279 187.666 120.149 187.826C124.349 187.886 128.489 188.626 132.779 187.986C139.519 186.996 144.269 183.526 147.719 177.976C151.239 172.316 152.339 165.996 152.569 159.426C153.059 145.146 151.559 131.106 147.509 117.396C145.249 109.746 142.469 102.266 136.749 96.3462C136.059 95.6362 135.299 94.9962 134.579 94.3262C139.769 95.6462 145.329 95.9862 149.639 99.7262C152.929 102.586 154.709 106.306 155.429 110.516C158.829 130.356 162.169 150.196 165.539 170.036C166.389 175.036 167.239 180.036 168.099 185.036C169.219 191.536 167.589 197.236 163.109 202.086C159.839 205.636 156.579 209.186 153.239 212.676C150.449 215.586 147.009 217.166 142.939 216.846C127.679 215.636 112.419 214.356 97.1692 213.106C88.3792 212.386 79.5992 211.576 70.8092 210.946C63.5392 210.426 59.1092 206.296 57.0692 199.736C54.9992 193.076 53.5492 186.226 51.8492 179.446C48.7092 166.946 45.6492 154.426 42.4292 141.946C40.0292 132.656 42.3292 125.036 49.9592 119.106C50.6792 118.546 51.3792 117.976 52.0892 117.406L52.0992 117.436Z" fill="#B2B2B2"/>
<path d="M103.559 80.4161C106.729 79.4461 109.899 78.446 113.079 77.516C115.279 76.876 117.509 77.086 119.689 77.566C134.419 80.826 149.129 84.146 163.859 87.386C168.389 88.376 171.749 90.906 173.959 94.856C180.369 106.316 186.649 117.846 193.019 129.336C196.759 136.096 200.449 142.896 204.359 149.556C209.289 157.966 209.429 166.096 204.039 174.406C197.529 184.436 191.199 194.596 184.959 204.796C182.209 209.296 178.529 212.016 173.269 212.716C168.189 213.386 163.139 214.216 157.339 215.086C160.299 211.836 162.639 208.966 165.289 206.416C172.069 199.916 173.639 191.956 172.199 183.096C170.189 170.756 168.119 158.426 166.029 146.106C164.149 135.006 162.089 123.926 160.329 112.806C159.519 107.716 158.229 102.926 154.999 98.796C152.499 95.606 149.279 93.4661 145.409 92.4161C132.039 88.8061 118.639 85.276 105.249 81.706C105.009 81.646 104.789 81.506 104.559 81.406C104.339 80.956 103.249 81.376 103.559 80.406V80.4161Z" fill="#666666"/>
<path d="M69.3892 112.616C69.4692 108.416 71.3392 105.136 74.6992 102.716C76.2292 101.616 77.9492 100.916 79.8092 102.026C81.5892 103.096 82.0792 104.856 81.9592 106.756C81.7092 110.776 80.0392 114.116 76.7592 116.526C75.1592 117.706 73.3792 118.436 71.4192 117.376C69.5292 116.356 69.2992 114.546 69.3792 112.616H69.3892Z" fill="#333333"/>
<path d="M113.889 125.926C114.139 122.056 115.449 118.726 118.479 116.296C121.559 113.836 124.789 114.936 125.619 118.776C126.529 122.996 125.019 126.656 122.239 129.746C120.819 131.336 118.919 132.416 116.669 131.506C114.149 130.486 114.029 128.146 113.879 125.926H113.889Z" fill="#333333"/>
<path d="M127.019 131.836C129.469 131.686 131.619 132.516 133.459 134.036C136.719 136.716 136.239 140.646 132.409 142.416C129.079 143.956 125.759 143.566 122.699 141.646C120.749 140.426 119.549 138.626 120.049 136.196C120.569 133.666 122.559 132.626 124.809 132.016C125.519 131.826 126.289 131.886 127.029 131.836H127.019Z" fill="#D94691"/>
<path d="M88.0792 124.896C87.9792 128.106 89.9092 130.826 92.7292 131.456C95.9392 132.166 98.7392 130.806 100.029 127.696C100.679 126.136 101.459 124.816 103.279 125.566C105.269 126.386 104.739 128.076 104.119 129.616C102.179 134.386 96.9392 137.046 91.8692 135.856C86.7692 134.656 83.1792 129.896 83.6492 124.826C83.7992 123.206 83.7692 121.186 86.2192 121.336C88.6092 121.476 88.2092 123.316 88.0792 124.896Z" fill="#343434"/>
<path d="M63.7892 125.966C61.2292 126.026 59.4692 125.566 57.9592 124.456C54.9092 122.206 55.0992 118.926 58.3392 117.036C60.7092 115.656 65.4392 116.156 67.4992 118.006C68.8492 119.216 69.9392 120.576 69.3892 122.546C68.8592 124.446 67.2892 125.256 65.5792 125.766C64.7992 125.996 63.9392 125.956 63.7892 125.966Z" fill="#D94691"/>
<path d="M81 224.5C78.7909 224.5 77 226.291 77 228.5C77 230.709 78.7909 232.5 81 232.5V224.5ZM90.7971 228.057L94.1188 230.286L90.7971 228.057ZM117.714 190.726L114.018 192.255L117.714 190.726ZM115.96 190.551L112.638 188.322L115.96 190.551ZM132.696 216.471L121.41 189.196L114.018 192.255L125.304 219.529L132.696 216.471ZM112.638 188.322L87.4754 225.829L94.1188 230.286L119.281 192.779L112.638 188.322ZM89.9667 224.5H81V232.5H89.9667V224.5ZM87.4754 225.829C88.0325 224.998 88.9667 224.5 89.9667 224.5V232.5C91.6333 232.5 93.1903 231.67 94.1188 230.286L87.4754 225.829ZM121.41 189.196C119.884 185.507 114.862 185.007 112.638 188.322L119.281 192.779C117.947 194.769 114.934 194.468 114.018 192.255L121.41 189.196Z" fill="#333333"/>
<path d="M41 221.5C38.7909 221.5 37 223.291 37 225.5C37 227.709 38.7909 229.5 41 229.5V221.5ZM50.7971 225.057L54.1188 227.286L50.7971 225.057ZM77.714 187.726L74.018 189.255L77.714 187.726ZM75.9596 187.551L72.6379 185.322L75.9596 187.551ZM92.6961 213.471L81.4101 186.196L74.018 189.255L85.3039 216.529L92.6961 213.471ZM72.6379 185.322L47.4754 222.829L54.1188 227.286L79.2813 189.779L72.6379 185.322ZM49.9667 221.5H41V229.5H49.9667V221.5ZM47.4754 222.829C48.0325 221.998 48.9667 221.5 49.9667 221.5V229.5C51.6333 229.5 53.1903 228.67 54.1188 227.286L47.4754 222.829ZM81.4101 186.196C79.8836 182.507 74.8621 182.007 72.6379 185.322L79.2813 189.779C77.9467 191.769 74.9339 191.468 74.018 189.255L81.4101 186.196Z" fill="#333333"/>
</svg>
