<svg width="111" height="70" viewBox="0 0 111 70" fill="none" xmlns="http://www.w3.org/2000/svg">
<path fill-rule="evenodd" clip-rule="evenodd" d="M38.2481 5H72.7519C81.8995 5 88.3109 6.26122 93.7924 8.62952C99.2739 10.9978 103.576 14.4732 106.507 18.9016C109.439 23.3299 111 28.5095 111 35.8996V39.1004C111 46.4905 109.439 51.6701 106.507 56.0984C103.576 60.5268 99.2739 64.0022 93.7924 66.3705C88.3109 68.7388 81.8995 70 72.7519 70H38.2481C29.1005 70 22.6891 68.7388 17.2076 66.3705C11.7261 64.0022 7.42421 60.5268 4.49269 56.0984C1.56116 51.6701 0 46.4905 0 39.1004L0 35.8996C0 28.5095 1.56116 23.3299 4.49269 18.9016C7.42421 14.4732 11.7261 10.9978 17.2076 8.62952C22.6891 6.26122 29.1005 5 38.2481 5Z" fill="#EA9975"/>
<path d="M37.65 0L73.35 0C81.7799 0 88.3109 1.25113 93.7924 3.60048C99.2739 5.94984 103.576 9.39743 106.507 13.7903C109.439 18.1833 111 23.4173 111 30.1731V31.8269C111 38.5827 109.439 43.8167 106.507 48.2097C103.576 52.6026 99.2739 56.0502 93.7924 58.3995C88.3109 60.7489 81.7799 62 73.35 62H37.65C29.2201 62 22.6891 60.7489 17.2076 58.3995C11.7261 56.0502 7.42421 52.6026 4.49269 48.2097C1.56116 43.8167 0 38.5827 0 31.8269L0 30.1731C0 23.4173 1.56116 18.1833 4.49269 13.7903C7.42421 9.39743 11.7261 5.94984 17.2076 3.60048C22.6891 1.25113 29.2201 0 37.65 0Z" fill="#FBC399"/>
<path d="M102.698 33.6492C104.14 32.2179 104.131 29.8959 102.686 28.4727L92.9494 18.8842C88.9411 14.9723 82.9222 20.8401 86.9348 24.7519L86.9764 24.7926C88.2267 26.0004 87.8113 26.9804 86.0501 26.9804H78.2452C75.9025 26.9804 74 28.8428 74 31.1525V31.1037C74 33.4093 75.8983 35.2758 78.2452 35.2758H86.0501C87.8112 35.2758 88.2225 36.2598 86.9764 37.4635L86.9348 37.5042C82.9223 41.416 88.9411 47.2838 92.9494 43.372L102.698 33.6492Z" fill="#B67C62"/>
<path d="M28.3878 23.4545V38H26.044L19.1903 28.0923H19.0696V38H16.4347V23.4545H18.7926L25.6392 33.3693H25.767V23.4545H28.3878ZM35.9748 38.2131C34.881 38.2131 33.9364 37.9858 33.141 37.5312C32.3503 37.072 31.7418 36.4233 31.3157 35.5852C30.8896 34.7424 30.6765 33.7505 30.6765 32.6094C30.6765 31.4872 30.8896 30.5024 31.3157 29.6548C31.7466 28.8026 32.3479 28.1397 33.1197 27.6662C33.8915 27.188 34.7982 26.9489 35.8398 26.9489C36.5122 26.9489 37.1467 27.0578 37.7433 27.2756C38.3446 27.4886 38.8749 27.8201 39.3342 28.2699C39.7982 28.7197 40.1628 29.2926 40.4279 29.9886C40.6931 30.6799 40.8256 31.5038 40.8256 32.4602V33.2486H31.8839V31.5156H38.3612C38.3564 31.0232 38.2499 30.5852 38.0415 30.2017C37.8332 29.8134 37.542 29.508 37.168 29.2855C36.7987 29.063 36.3678 28.9517 35.8754 28.9517C35.3498 28.9517 34.8881 29.0795 34.4904 29.3352C34.0927 29.5862 33.7826 29.9176 33.56 30.3295C33.3422 30.7367 33.2309 31.1842 33.2262 31.6719V33.1847C33.2262 33.8191 33.3422 34.3636 33.5742 34.8182C33.8062 35.268 34.1306 35.6136 34.5472 35.8551C34.9639 36.0919 35.4516 36.2102 36.0103 36.2102C36.3844 36.2102 36.7229 36.1581 37.0259 36.054C37.329 35.9451 37.5917 35.7865 37.8143 35.5781C38.0368 35.3698 38.2049 35.1117 38.3185 34.804L40.7191 35.0739C40.5676 35.7083 40.2788 36.2623 39.8526 36.7358C39.4312 37.2045 38.8915 37.5691 38.2333 37.8295C37.5752 38.0852 36.8223 38.2131 35.9748 38.2131ZM44.8686 27.0909L47.0703 31.1179L49.3075 27.0909H52.0277L48.7393 32.5455L52.0845 38H49.3786L47.0703 34.0724L44.7834 38H42.0561L45.38 32.5455L42.1413 27.0909H44.8686ZM59.4638 27.0909V29.0795H53.1925V27.0909H59.4638ZM54.7408 24.4773H57.3118V34.7188C57.3118 35.0644 57.3639 35.3295 57.468 35.5142C57.5769 35.6941 57.719 35.8172 57.8942 35.8835C58.0694 35.9498 58.2635 35.983 58.4766 35.983C58.6375 35.983 58.7843 35.9711 58.9169 35.9474C59.0542 35.9238 59.1584 35.9025 59.2294 35.8835L59.6626 37.8935C59.5253 37.9408 59.3288 37.9929 59.0732 38.0497C58.8222 38.1065 58.5144 38.1397 58.1499 38.1491C57.5059 38.1681 56.9259 38.071 56.4098 37.858C55.8937 37.6402 55.4841 37.304 55.1811 36.8494C54.8828 36.3949 54.736 35.8267 54.7408 35.1449V24.4773Z" fill="#B67C62"/>
</svg>
