<svg width="106" height="105" viewBox="0 0 106 105" fill="none" xmlns="http://www.w3.org/2000/svg">
<g style="mix-blend-mode:multiply" opacity="0.747442">
<path d="M105.164 52.1637C105.164 23.3545 81.8094 0 53.0002 0C24.1909 0 0.836426 23.3545 0.836426 52.1637C0.836426 80.973 24.1909 104.327 53.0002 104.327C81.8094 104.327 105.164 80.973 105.164 52.1637Z" fill="#232586"/>
</g>
<mask id="mask0_22_3958" style="mask-type:luminance" maskUnits="userSpaceOnUse" x="0" y="0" width="106" height="105">
<path d="M105.164 52.1637C105.164 23.3545 81.8094 0 53.0002 0C24.1909 0 0.836426 23.3545 0.836426 52.1637C0.836426 80.973 24.1909 104.327 53.0002 104.327C81.8094 104.327 105.164 80.973 105.164 52.1637Z" fill="white"/>
</mask>
<g mask="url(#mask0_22_3958)">
<path fill-rule="evenodd" clip-rule="evenodd" d="M55.3833 22.8267C56.3003 23.7113 56.9012 25.0919 56.9012 26.6815V27.4291C57.5332 27.1366 58.2008 27.0086 58.8744 27.0086C60.0307 27.0086 61.2077 27.4053 62.1268 28.2936C63.0459 29.1818 63.6447 30.5762 63.6447 32.1718V35.2323C64.2767 34.9394 64.9659 34.8118 65.6396 34.8118C66.7923 34.8118 67.9534 35.2121 68.8704 36.0968C69.7873 36.9814 70.3882 38.362 70.3882 39.9516V61.2587C70.3882 67.7292 68.1116 72.7691 64.6638 76.0941C61.216 79.4191 56.6578 81.047 52.1309 81.047C47.6039 81.047 43.0675 79.4191 39.6196 76.0941C36.1718 72.7691 33.8735 67.7292 33.8735 61.2587V48.1053C33.8735 46.5143 34.4934 45.1344 35.4131 44.2504C36.3327 43.3664 37.4893 42.9655 38.6438 42.9655C39.3187 42.9655 40.0056 43.0934 40.6387 43.386V32.1484C40.6387 30.5588 41.2396 29.1782 42.1566 28.2936C43.0735 27.4089 44.2564 26.9852 45.4091 26.9852C46.0845 26.9852 46.7488 27.1345 47.3822 27.4291V26.6815C47.3822 25.0919 47.9831 23.7113 48.9001 22.8267C49.817 21.942 50.9782 21.5417 52.1309 21.5417C53.3194 21.5691 54.6258 22.1153 55.3833 22.8267ZM52.1309 24.5321C51.5995 24.5321 51.0893 24.7122 50.7432 25.0461C50.397 25.38 50.1577 25.8341 50.1577 26.6815V50.5351C50.1681 51.325 49.5032 52.0516 48.7699 52.0516C48.0368 52.0516 47.3719 51.325 47.3822 50.5351V32.2652C47.4322 31.5492 47.0866 30.9802 46.7967 30.513C46.4507 30.1791 45.9405 29.9757 45.4091 29.9757C44.8777 29.9757 44.3458 30.1791 43.9997 30.513C43.6536 30.8469 43.4142 31.301 43.4142 32.1484C43.4142 41.7199 43.4142 51.2716 43.4142 60.8381C43.4246 61.6281 42.7597 62.3546 42.0264 62.3546C41.2932 62.3546 40.6284 61.6281 40.6387 60.8381V48.2454C40.6921 47.529 40.347 46.9567 40.0533 46.4933C39.7053 46.1587 39.1795 45.9559 38.6438 45.9559C38.1082 45.9559 37.6042 46.1587 37.2561 46.4933C36.9081 46.8278 36.649 47.2592 36.649 48.1053V61.2587C36.649 66.9867 38.5859 71.1002 41.4628 73.8746C44.3396 76.649 48.2249 78.0565 52.1309 78.0565C56.0368 78.0565 59.9222 76.649 62.7991 73.8746C65.6759 71.1002 67.6127 66.9867 67.6127 61.2587V39.9516C67.6127 39.1042 67.3734 38.6735 67.0273 38.3396C66.6812 38.0057 66.171 37.8023 65.6396 37.8023C65.1081 37.8023 64.5979 38.0057 64.2518 38.3396C63.6972 38.9102 63.6512 39.4207 63.6447 40.1152V53.2218C63.6551 54.0117 62.9902 54.7383 62.257 54.7383C61.5238 54.7383 60.8589 54.0117 60.8692 53.2218C60.8692 46.1989 60.8692 39.1888 60.8692 32.1718C60.8692 31.3171 60.6323 30.8499 60.2838 30.513C59.9352 30.1762 59.4083 29.9757 58.8744 29.9757C58.3405 29.9757 57.8352 30.1762 57.4866 30.513C57.138 30.8499 56.9012 31.3171 56.9012 32.1718V50.7687C56.9116 51.5586 56.2467 52.2852 55.5135 52.2852C54.7803 52.2852 54.1154 51.5586 54.1258 50.7687C54.1188 42.733 54.1258 34.7014 54.1258 26.6815C54.1258 25.8341 53.8647 25.38 53.5187 25.0461C53.1725 24.7122 52.6623 24.5321 52.1309 24.5321Z" fill="white"/>
</g>
</svg>
