<svg width="139" height="211" viewBox="0 0 139 211" fill="none" xmlns="http://www.w3.org/2000/svg">
<path d="M117.888 75.2084C113.298 100.518 113.018 125.668 120.788 150.488C121.468 152.668 120.728 154.008 118.938 155.048C115.308 157.158 111.258 157.678 107.198 158.108C97.7276 159.108 88.2376 158.618 78.7776 158.018C63.2476 157.028 47.7876 155.318 32.3676 153.218C26.2676 152.388 20.1776 151.538 14.0876 150.638C7.78761 149.708 5.0376 146.848 3.8776 140.508C1.6576 128.378 1.6776 116.168 2.5476 103.938C4.0576 82.6384 7.65762 61.6884 13.4676 41.1284C15.6476 33.4384 18.3276 25.9284 21.7176 18.6784C26.5376 8.37839 34.6576 2.8284 45.7876 1.1184C56.4976 -0.521605 67.1776 -0.151627 77.8776 0.908373C97.5376 2.85837 116.818 6.86838 135.928 11.7584C138.918 12.5284 139.358 13.5684 137.948 16.3684C129.928 32.2484 123.658 48.7584 119.778 66.1484C119.118 69.1584 118.648 72.2184 117.858 75.2084H117.888Z" fill="#333333"/>
<path d="M117.888 75.2083C118.208 72.1183 118.708 69.0783 119.808 66.1483C119.588 69.2583 119.188 72.3283 117.888 75.2083Z" fill="#C4A73B"/>
<path d="M62.9076 23.6483C73.4476 18.5583 84.7276 16.1783 96.2576 14.8983C107.538 13.6483 118.838 13.8983 130.098 15.3883C133.248 15.8083 133.228 15.7783 131.868 18.6183C124.288 34.3283 118.608 50.6883 114.768 67.6983C113.988 69.8183 113.768 72.0583 113.398 74.2583C111.418 85.8183 110.138 97.4583 110.238 109.198C110.358 122.868 111.788 136.388 115.768 149.538C116.298 151.288 115.778 151.898 114.178 152.358C109.078 153.808 103.858 153.968 98.6276 154.098C96.0476 154.168 93.4776 154.108 90.8976 154.108C89.6476 153.668 88.3576 154.038 87.0876 153.898C86.3476 153.618 85.5476 153.708 84.7876 153.578C83.8776 153.288 82.9276 153.378 81.9876 153.338C74.0176 151.648 66.0376 150.058 58.0776 148.358C48.6476 146.348 39.2676 144.078 29.6876 142.798C28.5376 142.648 27.4076 142.308 26.2576 142.148C19.0376 141.138 15.1676 136.658 13.5076 129.898C12.7176 126.668 12.2676 123.388 12.1376 120.038C11.7576 110.078 11.3276 100.118 11.1876 90.1583C11.0576 81.2683 11.6476 72.4183 12.8576 63.6083C14.2076 54.8183 16.6476 46.2783 19.2476 37.7983C21.3676 30.8983 23.7876 24.0983 27.3776 17.7883C28.6076 15.6283 29.9476 13.5283 32.1776 12.2083C34.4476 11.1283 36.4176 12.2083 38.3176 13.1883C40.5476 14.3383 42.4276 15.9383 43.9276 18.0283C46.4576 21.5583 48.6176 25.2683 50.3776 29.2383C51.3076 31.3283 51.7476 31.4283 53.4576 29.9683C56.3776 27.4883 59.5176 25.3783 62.9276 23.6483H62.9076Z" fill="#FCF3BC"/>
<path d="M12.8377 63.6084C12.5377 70.7384 12.2477 77.8584 11.9477 84.9884C11.5377 94.5584 12.3477 104.098 12.5477 113.648C12.6677 119.558 12.7377 125.568 14.6577 131.368C16.4777 136.848 19.7677 140.348 25.6277 141.248C43.1677 143.948 60.3777 148.298 77.7977 151.638C79.3377 151.928 80.7177 152.898 82.3677 152.658C83.1377 153.268 84.1277 152.628 84.9177 153.118C85.6077 153.198 86.3577 153.048 86.8977 153.658C84.2077 154.148 81.5477 153.608 78.8777 153.518C75.4277 153.408 72.0077 152.828 68.5577 152.908C68.1477 152.908 67.7377 152.918 67.3577 152.708C62.1977 152.188 57.0477 151.678 51.8877 151.158C47.5477 150.668 43.1977 150.308 38.8877 149.668C30.7377 148.508 22.5877 147.328 14.4377 146.188C10.9777 145.698 9.38767 144.418 8.61767 140.998C6.36767 130.928 6.11767 120.708 6.58767 110.468C7.23767 96.0784 9.08767 81.8184 11.8477 67.6784C12.1177 66.3084 12.1177 64.8684 12.8377 63.6084Z" fill="#F0CA44"/>
<path d="M43.2076 6.37829C63.7176 2.53829 83.7776 5.74829 103.828 9.06829L103.878 9.7083C102.488 9.8383 101.098 9.96829 99.7076 10.0983C98.2176 10.2483 96.7276 10.4083 95.2376 10.5583C81.8676 11.8983 69.1077 15.4083 56.9977 21.2483C55.8777 21.7883 55.1676 22.0083 54.4776 20.5583C51.8576 15.0183 48.5476 9.98831 43.2076 6.36831V6.37829Z" fill="#F0CA44"/>
<path d="M62.9076 23.6484C59.4176 26.2784 55.8776 28.8583 52.4476 31.5683C51.0576 32.6683 50.7876 31.6884 50.3776 30.7684C48.3776 26.2984 46.1876 21.9583 43.1276 18.0783C40.2976 14.4783 36.7876 12.3384 32.1576 12.2084C35.9776 9.11835 39.7376 9.18836 43.3476 12.4284C47.0776 15.7884 49.4676 20.0384 51.4076 24.5884C52.6776 27.5584 53.6476 27.8984 56.5676 26.4884C58.6476 25.4784 60.5876 24.1583 62.8976 23.6583L62.9076 23.6484Z" fill="#EFCA44"/>
<path d="M67.3577 152.718C73.8677 153.038 80.3877 153.348 86.8977 153.668C88.2177 153.908 89.5977 153.558 90.8777 154.118C82.9977 154.368 75.1477 153.998 67.3577 152.718Z" fill="#7C6D33"/>
<path d="M38.8776 149.678C43.2576 149.808 47.5876 150.308 51.8776 151.168C47.4776 151.278 43.1476 150.718 38.8776 149.678Z" fill="#7C6D33"/>
<path d="M113.388 74.2584C113.258 71.9484 113.538 69.7284 114.758 67.6984C114.498 69.9284 114.148 72.1384 113.388 74.2584Z" fill="#CBC49B"/>
<path d="M76.4076 119.628C63.5476 118.408 50.3976 117.158 37.2476 115.908C31.7876 115.388 26.3276 114.848 20.8676 114.338C19.2276 114.188 17.4476 114.048 17.6276 111.828C17.8076 109.618 19.5176 109.738 21.1976 109.898C39.3876 111.648 57.5876 113.378 75.7876 115.108C76.1976 115.148 76.6176 115.158 77.0276 115.198C78.6176 115.368 80.1776 115.748 79.9076 117.798C79.6676 119.608 78.2476 119.878 76.3976 119.618L76.4076 119.628Z" fill="#333333"/>
<path d="M73.7976 104.778C61.8876 103.658 50.2276 102.568 38.5676 101.468C32.3676 100.888 26.1576 100.308 19.9576 99.7183C19.2176 99.6483 18.4576 99.5983 17.7376 99.4183C16.5376 99.1183 15.8376 98.3183 16.0476 97.0483C16.2376 95.8583 16.9676 95.0783 18.2776 95.1783C21.2576 95.3983 24.2476 95.6183 27.2176 95.8983C42.3576 97.3183 57.4876 98.7483 72.6276 100.178C73.3676 100.248 74.1076 100.388 74.8476 100.458C76.2976 100.588 77.2276 101.258 77.1376 102.818C77.0476 104.428 75.9676 104.868 74.5376 104.788C74.2076 104.768 73.8776 104.788 73.7876 104.788L73.7976 104.778Z" fill="#333333"/>
<path d="M32.4076 79.1884C45.8976 80.3884 59.3876 81.5784 72.8776 82.7784C73.3776 82.8184 73.8677 82.8984 74.3577 82.9584C75.7977 83.1484 76.6576 83.8584 76.5376 85.4284C76.4076 87.0884 75.2676 87.4484 73.8976 87.3384C69.0076 86.9484 64.1277 86.5284 59.2477 86.0884C46.2577 84.9184 33.2677 83.7284 20.2777 82.5684C19.0477 82.4584 17.9477 82.2284 17.4477 80.9384C16.9077 79.5284 17.8477 78.7984 18.8377 78.1084C23.3777 78.3184 27.8877 78.8584 32.4177 79.1684L32.4076 79.1884Z" fill="#333333"/>
<path d="M63.7176 135.418C52.6276 134.108 41.3876 132.778 30.1476 131.458C27.1776 131.108 24.1876 130.818 21.2176 130.438C19.7576 130.258 18.6076 129.608 18.8376 127.868C19.0676 126.178 20.2676 125.758 21.7676 125.938C35.9776 127.648 50.1776 129.378 64.3976 131.058C66.0676 131.258 67.1576 131.878 66.9076 133.698C66.6576 135.468 65.2976 135.568 63.7176 135.418Z" fill="#343433"/>
<path d="M80.5576 37.1683C83.8976 38.8483 86.6976 40.2483 89.4876 41.6583C90.3776 42.1083 91.2576 42.5783 92.1276 43.0683C93.3576 43.7583 93.6576 44.8383 93.0576 46.0383C92.4276 47.3083 91.2676 47.5283 90.0776 46.9383C84.9376 44.3883 79.7876 41.8483 74.7276 39.1483C72.8776 38.1683 72.9376 36.2783 74.8076 35.2083C79.2176 32.6983 83.6875 30.2883 88.1676 27.9083C89.3675 27.2683 90.6776 27.2783 91.3776 28.7083C92.0276 30.0483 91.5275 31.1183 90.2275 31.8283C87.1775 33.4983 84.1376 35.1783 80.5476 37.1583L80.5576 37.1683Z" fill="#343433"/>
<path d="M29.0676 46.1684C27.9376 46.2184 27.0876 45.7784 26.8076 44.6384C26.4776 43.2984 27.0876 42.3384 28.3176 41.8484C31.4076 40.6284 34.4876 39.3684 37.6376 38.3184C39.6976 37.6284 39.5376 37.0084 37.9876 35.8784C36.4476 34.7484 34.9976 33.4884 33.5476 32.2484C32.4376 31.3084 32.1576 30.1384 33.1076 28.9684C33.9976 27.8584 35.1876 27.9384 36.2176 28.7584C39.4076 31.2884 42.6076 33.8184 45.6876 36.4884C47.0376 37.6584 46.7876 39.5084 45.1576 40.1684C39.9976 42.2484 34.7676 44.1484 29.5576 46.1084C29.4076 46.1684 29.2276 46.1584 29.0676 46.1784V46.1684Z" fill="#343434"/>
<path d="M52.9576 46.6683C52.6576 48.5383 53.0876 50.1583 55.1876 50.4083C57.4476 50.6783 58.1476 49.0483 58.3776 47.1183C58.5276 45.8783 58.6676 44.6383 58.8976 43.4183C59.1376 42.1183 59.9376 41.2483 61.3076 41.4483C62.5876 41.6383 63.4276 42.5183 63.2576 43.9083C63.0076 45.9683 62.8576 48.0683 62.2576 50.0383C61.0276 54.1183 56.5276 56.0483 52.6176 54.3683C49.0276 52.8283 47.1976 47.9583 48.8876 44.4283C49.3976 43.3683 50.2876 42.9783 51.3576 43.2583C53.1976 43.7283 53.1276 45.1983 52.9576 46.6683Z" fill="#353534"/>
<path d="M92.6076 58.8284C90.3076 58.6984 87.7776 58.8684 86.7776 56.1184C86.0876 54.2084 87.8376 51.9984 90.9376 50.7084C93.6776 49.5684 96.5276 49.1484 99.4176 50.1284C102.548 51.1884 103.118 53.7884 100.628 55.9684C98.3576 57.9484 95.6476 58.8884 92.6076 58.8384V58.8284Z" fill="#D94791"/>
<path d="M26.3076 57.8383C23.0976 57.6583 20.0776 56.9983 17.8376 54.4183C16.2376 52.5783 16.6076 50.6883 18.7576 49.5083C22.1876 47.6183 29.1976 49.0883 31.5576 52.1983C33.0676 54.1883 32.5276 56.2583 30.2276 57.2283C28.9876 57.7483 27.6776 57.9083 26.3176 57.8383H26.3076Z" fill="#D94791"/>
<path d="M32.4076 79.1883C27.8376 79.3483 23.3276 78.7883 18.8276 78.1283C20.4376 77.2183 22.0376 78.1783 23.6276 78.2383C26.5676 78.3583 29.5276 78.4583 32.4076 79.1883Z" fill="#807D67"/>
<path d="M84.9176 153.118C84.0476 153.078 83.0976 153.478 82.3676 152.658C83.2376 152.718 84.1676 152.428 84.9176 153.118Z" fill="#F4D762"/>
<path d="M28 150L32.6999 204.519C32.7862 205.52 31.4035 206.094 30.6753 205.401C25.0963 200.091 14.659 195.622 4 208" stroke="#333333" stroke-width="8"/>
</svg>
