<svg width="87" height="101" viewBox="0 0 87 101" fill="none" xmlns="http://www.w3.org/2000/svg">
<mask id="mask0_22_2481" style="mask-type:luminance" maskUnits="userSpaceOnUse" x="0" y="0" width="87" height="101">
<path d="M0 0.466187H86.6428V100.737H0V0.466187Z" fill="#7AB2CC"/>
</mask>
<g mask="url(#mask0_22_2481)">
<path fill-rule="evenodd" clip-rule="evenodd" d="M33.5362 1.60433C14.4793 5.43973 -2.04679 24.8164 0.206412 50.6119C2.45961 76.4084 22.8039 107.841 68.4995 99.3104C87.4791 94.7214 85.7118 73.6752 84.8154 63.298C83.92 52.9218 91.793 34.7443 80.4214 17.3078C69.0508 -0.127594 46.9577 -1.09724 33.5362 1.60433Z" fill="#7AB2CC"/>
</g>
<path fill-rule="evenodd" clip-rule="evenodd" d="M15.1246 44.7305C5.19841 49.6708 5.28409 70.5383 17.6592 77.3172C30.0354 84.096 47.9908 80.2246 50.9429 74.834C55.3944 66.7025 44.978 51.7701 34.7987 46.4459C26.1816 41.9395 20.151 42.2282 15.1246 44.7305Z" fill="#68A2BD"/>
<path fill-rule="evenodd" clip-rule="evenodd" d="M21.3389 51.2864C13.9462 55.0078 13.9383 69.0576 23.1555 74.1626C32.3736 79.2686 44.2511 76.5012 46.3785 72.4041C48.8671 67.6132 43.5742 56.589 35.992 52.5786C29.5743 49.1839 25.0826 49.4027 21.3389 51.2864Z" fill="white"/>
<path fill-rule="evenodd" clip-rule="evenodd" d="M85.1257 62.8013C84.5144 55.9696 87.8704 45.7293 86.7806 34.5587C84.6139 30.9958 80.8769 29.5761 75.0023 32.5221C68.7307 35.667 57.7196 48.5391 63.7459 64.5475C65.9498 70.4032 77.5772 72.4017 84.0137 65.8491C84.441 65.4139 84.8532 64.8522 85.2483 64.1962C85.2071 63.7153 85.1659 63.245 85.1257 62.8013Z" fill="#68A2BD"/>
<path fill-rule="evenodd" clip-rule="evenodd" d="M72.9575 38.1248C68.5375 40.4818 62.1489 49.5324 66.396 61.5289C67.9499 65.9168 74.7721 68.0104 79.3082 63.0993C84.0059 58.0143 86.3429 30.987 72.9575 38.1248Z" fill="white"/>
<path fill-rule="evenodd" clip-rule="evenodd" d="M76.1212 47.9352C74.3307 48.0955 72.8331 50.1162 71.8521 51.5247C70.5478 53.3971 69.3621 55.5761 70.3896 57.8662C70.7042 58.5685 71.5469 59.0854 72.2909 58.8911C74.6151 58.281 75.471 56.1631 76.1677 53.9241C76.689 52.2491 77.4539 49.9158 76.652 48.2218C76.5468 47.9993 76.344 47.9152 76.1212 47.9352Z" fill="#1B122E"/>
<path fill-rule="evenodd" clip-rule="evenodd" d="M28.0478 64.5009C28.8205 65.9271 31.1517 66.6569 32.8045 67.1792C35.0568 67.8906 37.2686 68.4456 39.3436 67.165C40.0029 66.7574 40.168 65.912 39.8277 65.3194C38.7299 63.4036 36.2984 63.0755 33.9418 62.9683C32.1574 62.888 29.5273 62.8419 28.1825 63.9861C28.0154 64.1284 27.9455 64.3125 28.0478 64.5009Z" fill="#1B122E"/>
<path fill-rule="evenodd" clip-rule="evenodd" d="M68.9872 70.4006C69.3952 69.2506 59.9693 53.7658 56.7532 55.0026C54.1208 56.0174 52.0661 75.6915 53.4385 75.9324" fill="#68A2BD"/>
<path fill-rule="evenodd" clip-rule="evenodd" d="M62.0189 76.7743C55.5427 78.7298 44.7146 81.996 47.4278 89.7003C49.7641 96.3312 61.9982 93.8024 66.4241 91.2861C70.416 89.0179 80.0247 86.2169 78.9108 78.1854C77.7959 70.1539 65.3162 75.7791 62.0189 76.7743Z" fill="#68A2BD"/>
<path fill-rule="evenodd" clip-rule="evenodd" d="M61.7337 78.0646C56.6739 79.5313 48.215 81.9811 50.334 87.7586C52.1593 92.7313 61.7175 90.8351 65.1752 88.9475C68.2946 87.2467 75.8005 85.1457 74.9303 79.1217C74.0601 73.0986 64.31 77.3175 61.7337 78.0646Z" fill="white"/>
<path fill-rule="evenodd" clip-rule="evenodd" d="M57.8149 57.9826C55.8402 58.7055 54.2998 72.754 55.3288 72.926C56.3577 73.0969 66.6839 69.7966 66.9904 68.9759C67.2958 68.1552 60.226 57.0993 57.8149 57.9826Z" fill="white"/>
<path fill-rule="evenodd" clip-rule="evenodd" d="M54.4998 37.4779C54.5588 37.4779 54.5588 37.3869 54.4998 37.3869C54.4408 37.3869 54.4408 37.4779 54.4998 37.4779Z" fill="#FFD91D"/>
<path fill-rule="evenodd" clip-rule="evenodd" d="M33.0325 24.7363C31.9568 23.1834 29.4266 22.5464 27.5779 23.1682C24.6596 24.1506 23.266 27.1003 24.386 29.7225C25.1058 31.4081 26.367 33.0854 28.665 32.9212C30.0587 32.8232 31.626 31.8677 32.546 30.9424C34.3375 29.142 34.4423 26.7718 33.0325 24.7363Z" fill="#68A2BD"/>
<path fill-rule="evenodd" clip-rule="evenodd" d="M12.2521 27.9713C9.38363 27.673 6.5194 29.1103 6.07478 31.5318C5.49254 34.7062 8.38427 37.3755 12.1689 37.8745C15.5672 38.3213 18.101 36.1147 17.9969 33.4735C17.8939 30.8795 15.5676 28.3162 12.2521 27.9713Z" fill="#68A2BD"/>
<path fill-rule="evenodd" clip-rule="evenodd" d="M14.0957 21.332C14.9696 22.0035 16.3316 22.1337 17.3041 21.6108C18.5676 20.9317 19.561 19.6496 19.9429 18.2517C20.2873 15.7602 19.0299 13.7871 17.3364 13.1948C16.1364 12.7288 14.8179 12.8581 13.6303 13.7871C11.0739 15.7889 11.7497 19.53 14.0957 21.332Z" fill="#68A2BD"/>
</svg>
