<svg width="132" height="77" viewBox="0 0 132 77" fill="none" xmlns="http://www.w3.org/2000/svg">
<g style="mix-blend-mode:multiply" opacity="0.747442">
<path d="M66.0001 0.409363C102.012 0.409363 131.205 29.6025 131.205 65.614C131.205 70.0807 130.756 74.4424 129.9 78.6565H2.10006C1.24452 74.4424 0.79541 70.0807 0.79541 65.614C0.79541 29.6025 29.9885 0.409363 66.0001 0.409363Z" fill="#232586"/>
</g>
<mask id="mask0_22_3942" style="mask-type:luminance" maskUnits="userSpaceOnUse" x="0" y="0" width="132" height="94">
<path d="M66.0001 0.409363C102.012 0.409363 131.205 34.9539 131.205 77.5667C131.205 82.8521 130.756 88.0134 129.9 93H2.10006C1.24452 88.0134 0.79541 82.8521 0.79541 77.5667C0.79541 34.9539 29.9885 0.409363 66.0001 0.409363Z" fill="white" stroke="white" stroke-width="0.652047"/>
</mask>
<g mask="url(#mask0_22_3942)">
<path d="M56.4656 22.7429L51.2616 27.9335C50.9167 28.2776 50.9167 28.8337 51.2616 29.1778C51.6066 29.5218 52.1641 29.5218 52.509 29.1778L56.2962 25.4002V28.5556C56.2962 34.2523 61.3935 38.4126 66.324 42.4356C71.1478 46.3724 75.7042 50.0918 75.7042 54.9534C75.7042 55.4391 76.0986 55.8333 76.5864 55.8333C77.0742 55.8333 77.4686 55.4391 77.4686 54.9534C77.4686 49.2568 72.3713 45.0965 67.4408 41.0735C62.6171 37.1367 58.0606 33.419 58.0606 28.5556V25.5252L61.8584 29.1883C62.2086 29.5262 62.767 29.5165 63.1058 29.1681C63.2716 28.9965 63.3537 28.7756 63.3537 28.5556C63.3537 28.3251 63.2637 28.0963 63.0846 27.923L57.968 22.9884C57.8259 22.6927 57.5286 22.485 57.1784 22.485C57.1617 22.485 57.1484 22.4938 57.1325 22.4947C56.8926 22.4824 56.6491 22.5598 56.4656 22.7429Z" fill="white" stroke="white" stroke-width="0.652047"/>
<path d="M74.0316 22.9883L68.9149 27.923C68.5656 28.26 68.5568 28.817 68.8947 29.1672C69.2334 29.5156 69.7918 29.5253 70.1421 29.1874L73.9398 25.5252V28.5556C73.9398 31.2799 72.546 33.8466 69.4213 36.8788C69.072 37.2185 69.0631 37.7746 69.4037 38.1231C69.7433 38.4715 70.3026 38.4794 70.6511 38.1407C74.1454 34.7494 75.7042 31.7938 75.7042 28.5556V25.4002L79.4914 29.1777C79.8363 29.5218 80.3939 29.5218 80.7388 29.1777C80.9108 29.0062 80.9973 28.7809 80.9973 28.5556C80.9973 28.3304 80.9108 28.1051 80.7388 27.9335L75.5348 22.7428C75.3513 22.5598 75.1087 22.4824 74.8679 22.4947C74.852 22.4938 74.8388 22.485 74.822 22.485C74.4709 22.485 74.1745 22.6927 74.0316 22.9883Z" fill="white" stroke="white" stroke-width="0.652047"/>
<path d="M56.2961 54.9534C56.2961 54.451 56.3464 53.9459 56.4443 53.4522C57.0698 50.2977 59.6881 47.6087 61.8997 45.6183C62.0929 45.4449 62.1908 45.2056 62.1908 44.9645C62.1908 44.7542 62.1158 44.543 61.9632 44.3758C61.6368 44.015 61.0793 43.9869 60.7176 44.3125C58.3039 46.485 55.4404 49.4486 54.7135 53.1108C54.5926 53.7162 54.5317 54.3366 54.5317 54.9534C54.5317 55.4391 54.927 55.8333 55.4139 55.8333C55.9009 55.8333 56.2961 55.44 56.2961 54.9534Z" fill="white" stroke="white" stroke-width="0.652047"/>
<path d="M37.384 74.0934V62.7122H41.2296C42.1188 62.7122 42.8486 62.8641 43.4192 63.1679C43.9897 63.468 44.4121 63.8811 44.6862 64.4072C44.9604 64.9332 45.0975 65.5316 45.0975 66.2021C45.0975 66.8727 44.9604 67.4673 44.6862 67.986C44.4121 68.5047 43.9916 68.9122 43.4247 69.2086C42.8579 69.5013 42.1336 69.6476 41.2519 69.6476H38.1398V68.4028H41.2074C41.815 68.4028 42.304 68.3139 42.6745 68.136C43.0487 67.9582 43.3192 67.7063 43.4859 67.3803C43.6563 67.0505 43.7415 66.6578 43.7415 66.2021C43.7415 65.7464 43.6563 65.3482 43.4859 65.0073C43.3155 64.6665 43.0431 64.4034 42.669 64.2182C42.2948 64.0293 41.8002 63.9348 41.1852 63.9348H38.7622V74.0934H37.384ZM42.7412 68.9807L45.542 74.0934H43.9416L41.1852 68.9807H42.7412ZM49.728 74.2934C49.1871 74.2934 48.6962 74.1916 48.2554 73.9878C47.8145 73.7803 47.4644 73.4821 47.205 73.0931C46.9457 72.7004 46.816 72.2262 46.816 71.6704C46.816 71.1814 46.9124 70.785 47.105 70.4812C47.2977 70.1737 47.5551 69.9329 47.8775 69.7588C48.1998 69.5846 48.5554 69.455 48.9445 69.3697C49.3372 69.2808 49.7317 69.2104 50.1281 69.1586C50.6468 69.0919 51.0673 69.0419 51.3896 69.0085C51.7156 68.9715 51.9528 68.9104 52.1009 68.8251C52.2528 68.7399 52.3288 68.5917 52.3288 68.3806V68.3361C52.3288 67.7878 52.1788 67.3617 51.8787 67.0579C51.5823 66.7542 51.1321 66.6023 50.5283 66.6023C49.9021 66.6023 49.4113 66.7393 49.0556 67.0135C48.6999 67.2876 48.4499 67.5803 48.3054 67.8915L47.0606 67.447C47.2828 66.9283 47.5792 66.5245 47.9497 66.2355C48.3239 65.9428 48.7314 65.739 49.1723 65.6242C49.6169 65.5056 50.054 65.4464 50.4838 65.4464C50.758 65.4464 51.0729 65.4797 51.4285 65.5464C51.7879 65.6094 52.1343 65.7409 52.4677 65.9409C52.8049 66.141 53.0846 66.4429 53.3069 66.8468C53.5292 67.2506 53.6403 67.7915 53.6403 68.4695V74.0934H52.3288V72.9375H52.2621C52.1732 73.1227 52.025 73.3209 51.8175 73.5321C51.6101 73.7433 51.3341 73.923 50.9895 74.0712C50.645 74.2193 50.2245 74.2934 49.728 74.2934ZM49.9281 73.1153C50.4468 73.1153 50.8839 73.0134 51.2396 72.8097C51.5989 72.6059 51.8694 72.3429 52.0509 72.0205C52.2362 71.6982 52.3288 71.3592 52.3288 71.0036V69.8032C52.2732 69.8699 52.151 69.931 51.962 69.9866C51.7768 70.0385 51.5619 70.0848 51.3174 70.1255C51.0766 70.1626 50.8413 70.1959 50.6116 70.2256C50.3856 70.2515 50.2022 70.2737 50.0615 70.2922C49.7206 70.3367 49.402 70.4089 49.1056 70.509C48.8129 70.6053 48.5758 70.7516 48.3943 70.948C48.2165 71.1406 48.1275 71.4037 48.1275 71.7371C48.1275 72.1928 48.2961 72.5374 48.6332 72.7708C48.9741 73.0005 49.4057 73.1153 49.9281 73.1153ZM57.3456 68.9585V74.0934H56.0341V65.5575H57.3011V66.8912H57.4123C57.6123 66.4578 57.9161 66.1095 58.3236 65.8465C58.7312 65.5797 59.2573 65.4464 59.9019 65.4464C60.4798 65.4464 60.9855 65.5649 61.419 65.802C61.8525 66.0354 62.1896 66.3911 62.4304 66.869C62.6712 67.3432 62.7916 67.9434 62.7916 68.6695V74.0934H61.4801V68.7585C61.4801 68.0879 61.306 67.5655 60.9578 67.1913C60.6095 66.8134 60.1316 66.6245 59.524 66.6245C59.1054 66.6245 58.7312 66.7153 58.4014 66.8968C58.0754 67.0783 57.8179 67.3432 57.629 67.6915C57.44 68.0397 57.3456 68.4621 57.3456 68.9585ZM68.4114 74.2712C67.7001 74.2712 67.0721 74.0915 66.5275 73.7322C65.9829 73.3691 65.5568 72.8578 65.2493 72.1984C64.9418 71.5352 64.7881 70.7516 64.7881 69.8477C64.7881 68.9511 64.9418 68.1731 65.2493 67.5136C65.5568 66.8542 65.9847 66.3448 66.533 65.9854C67.0814 65.626 67.7149 65.4464 68.4336 65.4464C68.9893 65.4464 69.4284 65.539 69.7507 65.7242C70.0767 65.9058 70.3249 66.1132 70.4953 66.3466C70.6695 66.5763 70.8047 66.7653 70.901 66.9135H71.0122V62.7122H72.3237V74.0934H71.0566V72.7819H70.901C70.8047 72.9375 70.6676 73.1338 70.4898 73.3709C70.3119 73.6043 70.0582 73.8137 69.7284 73.9989C69.3987 74.1804 68.9597 74.2712 68.4114 74.2712ZM68.5892 73.0931C69.1153 73.0931 69.5599 72.956 69.9229 72.6819C70.286 72.404 70.562 72.0205 70.751 71.5315C70.9399 71.0388 71.0344 70.4701 71.0344 69.8254C71.0344 69.1882 70.9418 68.6306 70.7565 68.1527C70.5713 67.6711 70.2971 67.2969 69.9341 67.0302C69.571 66.7597 69.1227 66.6245 68.5892 66.6245C68.0335 66.6245 67.5704 66.7671 67.1999 67.0524C66.8331 67.334 66.5571 67.7174 66.3719 68.2027C66.1903 68.6844 66.0996 69.2253 66.0996 69.8254C66.0996 70.433 66.1922 70.985 66.3774 71.4815C66.5664 71.9742 66.8442 72.3669 67.211 72.6596C67.5815 72.9486 68.0409 73.0931 68.5892 73.0931ZM78.3755 74.2712C77.6049 74.2712 76.9287 74.0878 76.3471 73.7211C75.7691 73.3543 75.3171 72.8412 74.9911 72.1817C74.6688 71.5222 74.5076 70.7516 74.5076 69.8699C74.5076 68.9807 74.6688 68.2046 74.9911 67.5414C75.3171 66.8783 75.7691 66.3633 76.3471 65.9965C76.9287 65.6297 77.6049 65.4464 78.3755 65.4464C79.1461 65.4464 79.8203 65.6297 80.3983 65.9965C80.98 66.3633 81.4319 66.8783 81.7543 67.5414C82.0803 68.2046 82.2433 68.9807 82.2433 69.8699C82.2433 70.7516 82.0803 71.5222 81.7543 72.1817C81.4319 72.8412 80.98 73.3543 80.3983 73.7211C79.8203 74.0878 79.1461 74.2712 78.3755 74.2712ZM78.3755 73.0931C78.9608 73.0931 79.4425 72.943 79.8203 72.643C80.1982 72.3429 80.478 71.9483 80.6595 71.4593C80.841 70.9702 80.9318 70.4404 80.9318 69.8699C80.9318 69.2994 80.841 68.7677 80.6595 68.275C80.478 67.7822 80.1982 67.384 79.8203 67.0802C79.4425 66.7764 78.9608 66.6245 78.3755 66.6245C77.7901 66.6245 77.3085 66.7764 76.9306 67.0802C76.5527 67.384 76.273 67.7822 76.0915 68.275C75.9099 68.7677 75.8192 69.2994 75.8192 69.8699C75.8192 70.4404 75.9099 70.9702 76.0915 71.4593C76.273 71.9483 76.5527 72.3429 76.9306 72.643C77.3085 72.943 77.7901 73.0931 78.3755 73.0931ZM84.2453 74.0934V65.5575H85.5123V66.8912H85.6235C85.8013 66.4355 86.0884 66.0817 86.4848 65.8298C86.8813 65.5742 87.3573 65.4464 87.913 65.4464C88.4762 65.4464 88.9448 65.5742 89.319 65.8298C89.6969 66.0817 89.9914 66.4355 90.2026 66.8912H90.2915C90.5101 66.4504 90.838 66.1003 91.2752 65.8409C91.7123 65.5779 92.2366 65.4464 92.8479 65.4464C93.611 65.4464 94.2353 65.6853 94.7206 66.1632C95.206 66.6375 95.4486 67.3766 95.4486 68.3806V74.0934H94.1371V68.3806C94.1371 67.7507 93.9649 67.3006 93.6203 67.0302C93.2758 66.7597 92.8701 66.6245 92.4033 66.6245C91.8031 66.6245 91.3381 66.806 91.0084 67.1691C90.6787 67.5285 90.5138 67.9841 90.5138 68.5362V74.0934H89.1801V68.2472C89.1801 67.7619 89.0226 67.371 88.7077 67.0746C88.3928 66.7745 87.9871 66.6245 87.4907 66.6245C87.1499 66.6245 86.8312 66.7153 86.5349 66.8968C86.2422 67.0783 86.0051 67.3303 85.8235 67.6526C85.6457 67.9712 85.5568 68.3398 85.5568 68.7585V74.0934H84.2453Z" fill="white"/>
</g>
</svg>
