<svg width="66" height="52" viewBox="0 0 66 52" fill="none" xmlns="http://www.w3.org/2000/svg">
<path fill-rule="evenodd" clip-rule="evenodd" d="M22.7421 4H43.2579C48.697 4 52.5092 4.92826 55.7685 6.67133C59.0277 8.4144 61.5856 10.9723 63.3287 14.2315C65.0717 17.4908 66 21.303 66 26.7421V29.0979C66 34.537 65.0717 38.3492 63.3287 41.6085C61.5856 44.8677 59.0277 47.4256 55.7685 49.1687C52.5092 50.9117 48.697 51.84 43.2579 51.84H22.7421C17.303 51.84 13.4908 50.9117 10.2315 49.1687C6.97228 47.4256 4.4144 44.8677 2.67133 41.6085C0.928256 38.3492 0 34.537 0 29.0979V26.7421C0 21.303 0.928256 17.4908 2.67133 14.2315C4.4144 10.9723 6.97228 8.4144 10.2315 6.67133C13.4908 4.92826 17.303 4 22.7421 4Z" fill="#EA9975"/>
<path d="M22.3865 0L43.6135 0C48.6259 0 52.5092 0.928256 55.7685 2.67133C59.0277 4.4144 61.5856 6.97228 63.3287 10.2315C65.0717 13.4908 66 17.3741 66 22.3865V23.6135C66 28.6259 65.0717 32.5092 63.3287 35.7685C61.5856 39.0277 59.0277 41.5856 55.7685 43.3287C52.5092 45.0717 48.6259 46 43.6135 46H22.3865C17.3741 46 13.4908 45.0717 10.2315 43.3287C6.97228 41.5856 4.4144 39.0277 2.67133 35.7685C0.928256 32.5092 0 28.6259 0 23.6135V22.3865C0 17.3741 0.928256 13.4908 2.67133 10.2315C4.4144 6.97228 6.97228 4.4144 10.2315 2.67133C13.4908 0.928256 17.3741 0 22.3865 0Z" fill="#FBC399"/>
<mask id="mask0_23_6125" style="mask-type:luminance" maskUnits="userSpaceOnUse" x="0" y="0" width="66" height="46">
<path d="M22.3865 0L43.6135 0C48.6259 0 52.5092 0.928256 55.7685 2.67133C59.0277 4.4144 61.5856 6.97228 63.3287 10.2315C65.0717 13.4908 66 17.3741 66 22.3865V23.6135C66 28.6259 65.0717 32.5092 63.3287 35.7685C61.5856 39.0277 59.0277 41.5856 55.7685 43.3287C52.5092 45.0717 48.6259 46 43.6135 46H22.3865C17.3741 46 13.4908 45.0717 10.2315 43.3287C6.97228 41.5856 4.4144 39.0277 2.67133 35.7685C0.928256 32.5092 0 28.6259 0 23.6135V22.3865C0 17.3741 0.928256 13.4908 2.67133 10.2315C4.4144 6.97228 6.97228 4.4144 10.2315 2.67133C13.4908 0.928256 17.3741 0 22.3865 0Z" fill="#B67C62"/>
</mask>
<g mask="url(#mask0_23_6125)">
<path d="M33.5619 12.6813V9.56382C33.5619 9.09906 33.0239 8.82555 32.674 9.12576L26.4333 14.1589C26.1643 14.378 26.1643 14.8149 26.4333 15.0339L32.674 20.0395C33.0239 20.3408 33.5619 20.0673 33.5619 19.6014V16.5928C37.3815 17.0309 40.2871 20.5587 39.8561 24.6335C39.5072 27.9712 36.8435 30.6787 33.5619 31.0342C29.4733 31.499 25.9487 28.4359 25.5988 24.4421C25.5714 24.0863 25.2762 23.8128 24.9262 23.8128H22.4243C22.0208 23.8128 21.7244 24.1408 21.7517 24.551C22.1563 30.3782 26.9175 35 32.7547 35C39.0228 35 44.1065 29.6121 43.7304 23.1301C43.408 17.6045 38.9956 13.0916 33.5619 12.6813Z" fill="#B67C62"/>
</g>
</svg>
