<svg width="164" height="388" viewBox="0 0 164 388" fill="none" xmlns="http://www.w3.org/2000/svg">
<mask id="mask0_22_4674" style="mask-type:luminance" maskUnits="userSpaceOnUse" x="3" y="35" width="51" height="90">
<path d="M3.2749 40.1678L43.1286 35.2744L53.5285 119.975L13.6748 124.868L3.2749 40.1678Z" fill="#EA9975"/>
</mask>
<g mask="url(#mask0_22_4674)">
<path fill-rule="evenodd" clip-rule="evenodd" d="M25.0592 116.885L25.5839 117.498C31.6072 123.48 41.3365 123.444 47.3126 117.415C53.289 111.388 53.2476 101.653 47.2263 95.6718L31.881 80.4343L39.525 57.952C42.2593 49.9148 37.9611 41.1789 29.9275 38.4424C21.8929 35.7062 13.1651 40.0036 10.4336 48.0419C3.30158 71.9835 8.81049 97.9135 25.0592 116.885Z" fill="#EA9975"/>
</g>
<path fill-rule="evenodd" clip-rule="evenodd" d="M72.8163 139.868C101.182 137.232 122.038 112.087 119.399 83.6973L118.328 68.6918C115.686 40.3032 90.5558 19.4297 62.1872 22.0678C33.8218 24.7034 12.9663 49.8489 15.6054 78.2382L16.6781 93.2414C19.3174 121.632 44.4521 142.506 72.8163 139.868Z" fill="#FBC399"/>
<path fill-rule="evenodd" clip-rule="evenodd" d="M48.2683 127.964L67.7803 418.053C69.85 434.909 101.05 444.951 117.895 442.883C134.74 440.814 154.8 424.479 152.731 407.622L109.268 120.474C107.198 103.615 91.8655 91.6274 75.0204 93.6957C58.1754 95.764 46.1984 111.105 48.2683 127.964Z" fill="#FBC399"/>
<path fill-rule="evenodd" clip-rule="evenodd" d="M25.7889 67.7492L26.8616 82.752C28.4941 100.308 38.7322 114.978 53.0131 123.001C57.1118 125.304 59.7366 129.559 60.0445 134.252L77.9642 407.564C80.0338 424.42 119.317 433.467 136.162 431.399C140.779 430.832 145.009 429.242 148.705 426.923C144.024 434.888 127.769 441.67 117.895 442.883C101.05 444.951 69.85 434.909 67.7803 418.053L49.664 141.741C49.4631 138.679 47.6395 135.973 44.8999 134.594C29.5441 126.863 18.3885 111.634 16.6778 93.2415L15.6051 78.2383C13.9062 59.9692 21.9461 43.0555 35.4466 32.608C28.3179 42.4042 24.5783 54.7314 25.7889 67.7492Z" fill="#EA9975"/>
<path fill-rule="evenodd" clip-rule="evenodd" d="M29.3747 68.3311C30.1904 74.9741 36.225 79.7078 42.8702 78.9102C49.525 78.1092 54.2719 72.0632 53.4723 65.4021L48.5561 24.4621L48.5523 24.4307C47.7366 17.7874 41.7014 13.0516 35.0567 13.851C28.4025 14.6498 23.6547 20.6962 24.4543 27.357L29.3705 68.297L29.3747 68.3311Z" fill="#FBC399"/>
<path fill-rule="evenodd" clip-rule="evenodd" d="M29.5708 26.7289C29.5708 26.7289 30.1904 74.9742 29.3747 68.3313L29.3705 68.2968L24.4544 27.3571C23.655 20.696 28.4028 14.6499 35.057 13.8511C35.9264 13.7468 36.7847 13.7406 37.6223 13.8172C32.3531 15.6544 28.8782 20.957 29.5708 26.7289Z" fill="#EA9975"/>
<path d="M45.3944 102.073L43.8731 84.6852L49.7484 84.1711C51.1068 84.0523 52.2422 84.1868 53.1545 84.5747C54.0662 84.9569 54.7667 85.5316 55.2559 86.2987C55.7451 87.0658 56.0345 87.9616 56.1241 88.9861C56.2137 90.0106 56.0838 90.9373 55.7343 91.7664C55.3847 92.5955 54.7968 93.2743 53.9704 93.8029C53.1435 94.3258 52.0565 94.6462 50.7094 94.7641L45.9548 95.18L45.7884 93.2782L50.475 92.8682C51.4033 92.787 52.1386 92.5858 52.6808 92.2645C53.2287 91.9428 53.6083 91.5218 53.8194 91.0014C54.0357 90.4749 54.1134 89.8635 54.0525 89.1673C53.9916 88.4711 53.8081 87.874 53.5022 87.3761C53.1963 86.8781 52.7451 86.5126 52.1487 86.2796C51.5517 86.041 50.7835 85.9628 49.8439 86.045L46.1421 86.3688L47.4999 101.889L45.3944 102.073ZM52.8956 93.5462L57.8581 100.983L55.4129 101.197L50.5183 93.7541L52.8956 93.5462ZM74.5981 90.7577C74.7585 92.5916 74.5661 94.2054 74.0207 95.5992C73.4753 96.9929 72.657 98.1025 71.5657 98.9281C70.4744 99.7536 69.1873 100.231 67.7043 100.361C66.2213 100.491 64.8708 100.244 63.6527 99.6204C62.4347 98.9969 61.4361 98.0462 60.657 96.7683C59.8779 95.4905 59.4081 93.9346 59.2476 92.1007C59.0872 90.2668 59.2797 88.653 59.825 87.2592C60.3704 85.8655 61.1887 84.7558 62.28 83.9303C63.3713 83.1048 64.6585 82.6271 66.1414 82.4974C67.6244 82.3676 68.9749 82.6145 70.193 83.238C71.4111 83.8615 72.4097 84.8122 73.1888 86.09C73.9679 87.3679 74.4377 88.9238 74.5981 90.7577ZM72.5604 90.936C72.4287 89.4303 72.0657 88.1817 71.4713 87.1899C70.8826 86.1977 70.1376 85.4729 69.2363 85.0156C68.3408 84.5579 67.3666 84.375 66.3138 84.4671C65.261 84.5592 64.3305 84.9087 63.5224 85.5156C62.7199 86.1219 62.1121 86.965 61.6989 88.0449C61.2915 89.1243 61.1536 90.4168 61.2853 91.9224C61.417 93.428 61.7773 94.6769 62.366 95.6692C62.9604 96.6609 63.7053 97.3857 64.6009 97.8435C65.5022 98.3007 66.4792 98.4833 67.532 98.3912C68.5848 98.2991 69.5124 97.9499 70.3149 97.3436C71.123 96.7367 71.7308 95.8936 72.1383 94.8142C72.5514 93.7343 72.6922 92.4416 72.5604 90.936ZM91.8453 85.9635L89.7397 86.1477C89.5622 85.553 89.2978 85.04 88.9463 84.6088C88.6006 84.177 88.1933 83.8248 87.7246 83.5521C87.261 83.2733 86.7563 83.0779 86.2104 82.966C85.6644 82.854 85.1028 82.8233 84.5255 82.8738C83.4727 82.9659 82.5422 83.3154 81.7341 83.9222C80.9316 84.5286 80.3238 85.3717 79.9106 86.4516C79.5032 87.531 79.3653 88.8235 79.497 90.3291C79.6287 91.8347 79.9889 93.0836 80.5777 94.0759C81.172 95.0676 81.917 95.7924 82.8126 96.2501C83.7138 96.7074 84.6909 96.89 85.7437 96.7979C86.321 96.7474 86.8688 96.6196 87.387 96.4146C87.9051 96.2096 88.3685 95.9323 88.7771 95.5829C89.1909 95.2273 89.5306 94.8069 89.7961 94.3217C90.0668 93.8303 90.2382 93.2792 90.3102 92.6683L92.4158 92.4841C92.3351 93.3866 92.116 94.2071 91.7585 94.9456C91.4011 95.6841 90.9326 96.3268 90.353 96.8737C89.773 97.415 89.1064 97.8469 88.3532 98.1694C87.6057 98.4915 86.7933 98.6909 85.916 98.7677C84.433 98.8974 83.0825 98.6505 81.8644 98.027C80.6464 97.4036 79.6478 96.4529 78.8687 95.175C78.0896 93.8972 77.6198 92.3413 77.4593 90.5074C77.2989 88.6735 77.4913 87.0596 78.0367 85.6659C78.5821 84.2721 79.4004 83.1625 80.4917 82.337C81.583 81.5115 82.8702 81.0338 84.3531 80.9041C85.2305 80.8273 86.0652 80.8826 86.8572 81.07C87.655 81.2568 88.3867 81.5693 89.0524 82.0072C89.7176 82.4395 90.2903 82.9883 90.7706 83.6535C91.2504 84.3131 91.6086 85.0831 91.8453 85.9635ZM96.2937 97.6202L94.7724 80.2321L96.878 80.0478L97.6327 88.674L97.8365 88.6562L104.893 79.3466L107.644 79.106L101.028 87.5898L109.165 96.4941L106.618 96.7169L99.8656 89.163L97.9061 91.7984L98.3993 97.436L96.2937 97.6202Z" fill="black"/>
<mask id="mask1_22_4674" style="mask-type:luminance" maskUnits="userSpaceOnUse" x="42" y="5" width="34" height="71">
<path d="M42.957 8.22174L67.1609 5.24988L75.425 72.5556L51.2211 75.5274L42.957 8.22174Z" fill="#FBC399"/>
</mask>
<g mask="url(#mask1_22_4674)">
<path fill-rule="evenodd" clip-rule="evenodd" d="M49.7411 63.473C50.5567 70.116 56.5926 74.8496 63.239 74.0518C69.8938 73.2508 74.6401 67.2024 73.8399 60.5439L68.6449 17.336L68.6413 17.3066C67.8254 10.6615 61.7895 5.92766 55.1446 6.72497C48.4886 7.52614 43.7431 13.5744 44.5434 20.2332L49.7372 63.4413L49.7411 63.473Z" fill="#FBC399"/>
</g>
<mask id="mask2_22_4674" style="mask-type:luminance" maskUnits="userSpaceOnUse" x="42" y="6" width="23" height="59">
<path d="M42.957 8.22168L57.4109 6.44697L64.2697 62.3075L49.8158 64.0822L42.957 8.22168Z" fill="#EA9975"/>
</mask>
<g mask="url(#mask2_22_4674)">
<path fill-rule="evenodd" clip-rule="evenodd" d="M49.1521 19.6672C49.1521 19.6672 50.5567 70.1159 49.7411 63.4729L49.7372 63.4411L44.5434 20.2331C43.7431 13.5742 48.4886 7.52631 55.1446 6.72484C55.92 6.6321 56.6869 6.62097 57.4388 6.6737C52.0364 8.43063 48.4478 13.8095 49.1521 19.6672Z" fill="#EA9975"/>
</g>
<path fill-rule="evenodd" clip-rule="evenodd" d="M66.4914 19.0808L66.4952 19.1122L71.8696 61.9645C72.7054 68.6211 78.7737 73.3391 85.4249 72.5064C92.0654 71.6727 96.7753 65.6173 95.9599 58.9767L95.9557 58.9426L90.5817 16.0927C89.7461 9.43606 83.6773 4.71597 77.0266 5.55077C70.3859 6.38445 65.6757 12.4378 66.4914 19.0808Z" fill="#FBC399"/>
<path fill-rule="evenodd" clip-rule="evenodd" d="M70.8829 18.5416L70.8867 18.573C70.8867 18.573 72.7059 68.6211 71.8701 61.9644L66.4957 19.1122L66.4919 19.0807C65.6762 12.4377 70.3863 6.38441 77.0268 5.55077C77.7906 5.45491 78.5443 5.44052 79.2862 5.48537C73.8036 7.20591 70.158 12.638 70.8829 18.5416Z" fill="#EA9975"/>
<path fill-rule="evenodd" clip-rule="evenodd" d="M88.1454 22.7876L88.1493 22.8191L93.5234 65.6693C94.3592 72.3256 100.428 77.046 107.079 76.2109C113.719 75.3772 118.429 69.3242 117.614 62.6812L117.61 62.6495L112.236 19.7975C111.4 13.1408 105.331 8.42285 98.6804 9.25556C92.0397 10.0892 87.3297 16.1443 88.1454 22.7876Z" fill="#FBC399"/>
<path fill-rule="evenodd" clip-rule="evenodd" d="M92.5351 22.2486L92.5389 22.2801C92.5389 22.2801 94.3587 72.3256 93.5232 65.6693L88.1488 22.8191L88.1449 22.7877C87.3293 16.1444 92.0395 10.0892 98.68 9.25558C99.4434 9.15946 100.197 9.14534 100.94 9.19229C95.4567 10.9129 91.8099 16.3426 92.5351 22.2486Z" fill="#EA9975"/>
<path d="M91.4453 138.875L96.625 145.019" stroke="#EA9975" stroke-width="1.81125" stroke-linecap="round"/>
<path d="M69.562 131.05L69.1089 139.074" stroke="#EA9975" stroke-width="1.81125" stroke-linecap="round"/>
<path d="M80.5835 151.205L82.6388 158.975" stroke="#EA9975" stroke-width="1.81125" stroke-linecap="round"/>
<path d="M99.9175 125.77L101.973 133.54" stroke="#EA9975" stroke-width="1.81125" stroke-linecap="round"/>
<path d="M100.447 202.487L102.502 210.257" stroke="#EA9975" stroke-width="1.81125" stroke-linecap="round"/>
<path d="M118.94 326.886L120.996 334.656" stroke="#EA9975" stroke-width="1.81125" stroke-linecap="round"/>
<path d="M103.215 274.696L105.271 282.467" stroke="#EA9975" stroke-width="1.81125" stroke-linecap="round"/>
<path d="M106.827 229.393L110.073 236.745" stroke="#EA9975" stroke-width="1.81125" stroke-linecap="round"/>
<path d="M116.962 296.96L120.208 304.312" stroke="#EA9975" stroke-width="1.81125" stroke-linecap="round"/>
<path d="M115.94 214.326L117.996 222.096" stroke="#EA9975" stroke-width="1.81125" stroke-linecap="round"/>
<path d="M128.791 316.394L133.146 323.149" stroke="#EA9975" stroke-width="1.81125" stroke-linecap="round"/>
<path d="M105.271 307.717L105.996 315.656" stroke="#EA9975" stroke-width="1.81125" stroke-linecap="round"/>
<path d="M122.94 279.886L124.996 287.656" stroke="#EA9975" stroke-width="1.81125" stroke-linecap="round"/>
<path d="M91.232 177.48L90.4968 185.484" stroke="#EA9975" stroke-width="1.81125" stroke-linecap="round"/>
<path d="M77.6421 303.715L76.9069 311.719" stroke="#EA9975" stroke-width="1.81125" stroke-linecap="round"/>
<path d="M89.9815 219.117L89.2463 227.121" stroke="#EA9975" stroke-width="1.81125" stroke-linecap="round"/>
<path d="M83.5596 268.085L82.8244 276.089" stroke="#EA9975" stroke-width="1.81125" stroke-linecap="round"/>
<path d="M90.6421 289.715L89.9069 297.719" stroke="#EA9975" stroke-width="1.81125" stroke-linecap="round"/>
<path d="M97.8145 246.173L99.5949 254.011" stroke="#EA9975" stroke-width="1.81125" stroke-linecap="round"/>
<path d="M69.8322 162.131L66.1887 169.292" stroke="#EA9975" stroke-width="1.81125" stroke-linecap="round"/>
<path d="M57.8737 152.217L54.2302 159.379" stroke="#EA9975" stroke-width="1.81125" stroke-linecap="round"/>
<path d="M76.8712 200.11L74.7119 207.851" stroke="#EA9975" stroke-width="1.81125" stroke-linecap="round"/>
<path d="M74.5294 225.849L71.704 233.372" stroke="#EA9975" stroke-width="1.81125" stroke-linecap="round"/>
<path d="M75.5866 179.714L71.9431 186.876" stroke="#EA9975" stroke-width="1.81125" stroke-linecap="round"/>
<path d="M79.9728 246.108L76.3293 253.27" stroke="#EA9975" stroke-width="1.81125" stroke-linecap="round"/>
<path d="M63.9845 252.931L60.341 260.093" stroke="#EA9975" stroke-width="1.81125" stroke-linecap="round"/>
<path d="M59.6601 182.816L53.5081 187.982" stroke="#EA9975" stroke-width="1.81125" stroke-linecap="round"/>
<path d="M101.435 161.347L106.045 167.929" stroke="#EA9975" stroke-width="1.81125" stroke-linecap="round"/>
<path d="M106.686 187.317L111.297 193.899" stroke="#EA9975" stroke-width="1.81125" stroke-linecap="round"/>
<path d="M91.2803 324.438L89.3379 332.236" stroke="#EA9975" stroke-width="1.81125" stroke-linecap="round"/>
<path d="M114.35 254.311L118.96 260.893" stroke="#EA9975" stroke-width="1.81125" stroke-linecap="round"/>
</svg>
