<svg width="176" height="160" viewBox="0 0 176 160" fill="none" xmlns="http://www.w3.org/2000/svg">
<path d="M0.0191768 63.6661C0.0691768 55.4361 2.55918 49.4061 8.02918 44.5361C20.6492 33.3161 33.1492 21.9661 45.7492 10.7261C48.0592 8.66608 50.8092 7.23603 53.7992 6.35603C59.3792 4.70603 65.0092 3.20604 70.5492 1.43604C75.7492 -0.223958 80.8292 -0.463953 86.2292 0.816047C100.289 4.15605 114.459 7.08603 128.559 10.236C133.879 11.426 137.969 14.566 140.589 19.246C151.349 38.486 162.089 57.736 172.589 77.126C177.089 85.426 176.719 93.946 171.729 102.066C165.159 112.766 158.429 123.386 151.869 134.096C148.289 139.946 143.269 143.336 136.429 144.266C127.539 145.476 118.689 146.946 109.799 148.216C105.559 148.826 101.329 147.986 97.1092 147.676C88.4092 147.056 79.7192 146.166 71.0292 145.436C59.3492 144.446 47.6792 143.436 35.9892 142.546C32.2392 142.266 28.5292 142.106 25.1692 140.116C19.8492 136.966 16.6692 132.246 15.1892 126.366C10.3992 107.436 5.67918 88.4861 0.929177 69.5361C0.359177 67.2661 -0.100823 64.9861 0.0191768 63.6561V63.6661Z" fill="#333333"/>
<path d="M15.0992 44.436C21.6392 38.526 28.1492 32.6061 34.7092 26.7261C39.2892 22.6161 43.9492 18.596 48.5492 14.506C52.4192 11.056 56.8092 10.206 61.7692 11.556C73.3192 14.696 84.8792 17.756 96.4392 20.856C96.8292 20.966 97.1992 21.176 97.5792 21.336C99.5192 22.046 100.909 23.406 102.159 25.006C106.729 30.826 109.259 37.606 111.299 44.566C115.469 58.756 116.859 73.286 116.219 88.026C115.949 94.166 114.539 100.036 111.299 105.376C106.399 113.456 98.9192 116.596 89.9092 115.976C79.9192 115.296 69.9392 115.786 59.9592 115.566C55.6292 115.466 51.3092 115.236 47.0492 114.466C40.7892 113.326 34.7092 111.606 29.5692 107.576C23.8092 103.056 20.3092 96.946 17.7492 90.266C13.6192 79.476 11.9292 68.236 12.4392 56.716C12.6292 52.536 12.7192 48.1961 15.0892 44.4161L15.0992 44.436Z" fill="#CBCBCB"/>
<path d="M15.0992 44.436C13.4592 50.826 12.6992 57.3161 13.1092 63.8961C13.8592 75.7561 16.1392 87.236 22.0392 97.736C27.6292 107.696 36.6992 112.226 47.5492 113.846C59.3692 115.616 71.2792 114.666 83.1492 114.826C87.3492 114.886 91.4892 115.626 95.7792 114.986C102.519 113.996 107.269 110.526 110.719 104.976C114.239 99.3161 115.339 92.996 115.569 86.426C116.059 72.146 114.559 58.1061 110.509 44.3961C108.249 36.7461 105.469 29.2661 99.7492 23.3461C99.0592 22.6361 98.2992 21.996 97.5792 21.326C102.769 22.646 108.329 22.9861 112.639 26.7261C115.929 29.5861 117.709 33.3061 118.429 37.5161C121.829 57.3561 125.169 77.1961 128.539 97.0361C129.389 102.036 130.239 107.036 131.099 112.036C132.219 118.536 130.589 124.236 126.109 129.086C122.839 132.636 119.579 136.186 116.239 139.676C113.449 142.586 110.009 144.166 105.939 143.846C90.6792 142.636 75.4192 141.356 60.1692 140.106C51.3792 139.386 42.5992 138.576 33.8092 137.946C26.5392 137.426 22.1092 133.296 20.0692 126.736C17.9992 120.076 16.5492 113.226 14.8492 106.446C11.7092 93.946 8.64919 81.426 5.42919 68.946C3.02919 59.656 5.32919 52.036 12.9592 46.106C13.6792 45.546 14.3792 44.9761 15.0892 44.4061L15.0992 44.436Z" fill="#B2B2B2"/>
<path d="M66.5592 7.41606C69.7292 6.44606 72.8992 5.44603 76.0792 4.51603C78.2792 3.87603 80.5092 4.08602 82.6892 4.56602C97.4192 7.82602 112.129 11.146 126.859 14.386C131.389 15.376 134.749 17.906 136.959 21.856C143.369 33.316 149.649 44.846 156.019 56.336C159.759 63.096 163.449 69.896 167.359 76.556C172.289 84.966 172.429 93.0961 167.039 101.406C160.529 111.436 154.199 121.596 147.959 131.796C145.209 136.296 141.529 139.016 136.269 139.716C131.189 140.386 126.139 141.216 120.339 142.086C123.299 138.836 125.639 135.966 128.289 133.416C135.069 126.916 136.639 118.956 135.199 110.096C133.189 97.7561 131.119 85.426 129.029 73.106C127.149 62.006 125.089 50.926 123.329 39.806C122.519 34.716 121.229 29.926 117.999 25.796C115.499 22.606 112.279 20.4661 108.409 19.4161C95.0392 15.8061 81.6392 12.276 68.2492 8.70604C68.0092 8.64604 67.7892 8.50605 67.5592 8.40605C67.3392 7.95605 66.2492 8.37605 66.5592 7.40605V7.41606Z" fill="#666666"/>
<path d="M32.3892 39.6161C32.4692 35.4161 34.3392 32.1361 37.6992 29.7161C39.2292 28.6161 40.9492 27.9161 42.8092 29.0261C44.5892 30.0961 45.0792 31.8561 44.9592 33.7561C44.7092 37.7761 43.0392 41.1161 39.7592 43.5261C38.1592 44.7061 36.3792 45.4361 34.4192 44.3761C32.5292 43.3561 32.2992 41.5461 32.3792 39.6161H32.3892Z" fill="#333333"/>
<path d="M76.8891 52.926C77.1391 49.056 78.4491 45.726 81.4791 43.296C84.5591 40.836 87.7891 41.9361 88.6191 45.7761C89.5291 49.9961 88.0192 53.656 85.2392 56.746C83.8192 58.336 81.9192 59.416 79.6692 58.5061C77.1492 57.486 77.0292 55.146 76.8792 52.926H76.8891Z" fill="#333333"/>
<path d="M90.0192 58.8361C92.4692 58.6861 94.6192 59.5161 96.4592 61.0361C99.7192 63.7161 99.2392 67.6461 95.4092 69.4161C92.0792 70.9561 88.7592 70.5661 85.6992 68.6461C83.7492 67.4261 82.5492 65.6261 83.0492 63.1961C83.5692 60.6661 85.5592 59.6261 87.8092 59.0161C88.5192 58.8261 89.2892 58.8861 90.0292 58.8361H90.0192Z" fill="#D94691"/>
<path d="M51.0792 51.8961C50.9792 55.1061 52.9092 57.8261 55.7292 58.4561C58.9392 59.1661 61.7392 57.8061 63.0292 54.6961C63.6792 53.1361 64.4592 51.8161 66.2792 52.5661C68.2692 53.3861 67.7392 55.0761 67.1192 56.6161C65.1792 61.3861 59.9392 64.0461 54.8692 62.8561C49.7692 61.6561 46.1792 56.8961 46.6492 51.8261C46.7992 50.2061 46.7692 48.1861 49.2192 48.3361C51.6092 48.4761 51.2092 50.3161 51.0792 51.8961Z" fill="#343434"/>
<path d="M26.7892 52.9661C24.2292 53.0261 22.4692 52.5661 20.9592 51.4561C17.9092 49.2061 18.0992 45.9261 21.3392 44.0361C23.7092 42.6561 28.4392 43.1561 30.4992 45.0061C31.8492 46.2161 32.9392 47.5761 32.3892 49.5461C31.8592 51.4461 30.2892 52.2561 28.5792 52.7661C27.7992 52.9961 26.9392 52.9561 26.7892 52.9661Z" fill="#D94691"/>
<path d="M44 151.5C41.7909 151.5 40 153.291 40 155.5C40 157.709 41.7909 159.5 44 159.5V151.5ZM53.7971 155.057L57.1188 157.286L53.7971 155.057ZM80.714 117.726L77.018 119.255L80.714 117.726ZM78.9596 117.551L75.6379 115.322L78.9596 117.551ZM95.6961 143.471L84.4101 116.196L77.018 119.255L88.3039 146.529L95.6961 143.471ZM75.6379 115.322L50.4754 152.829L57.1188 157.286L82.2813 119.779L75.6379 115.322ZM52.9667 151.5H44V159.5H52.9667V151.5ZM50.4754 152.829C51.0325 151.998 51.9667 151.5 52.9667 151.5V159.5C54.6333 159.5 56.1903 158.67 57.1188 157.286L50.4754 152.829ZM84.4101 116.196C82.8836 112.507 77.8621 112.007 75.6379 115.322L82.2813 119.779C80.9467 121.769 77.9339 121.468 77.018 119.255L84.4101 116.196Z" fill="#333333"/>
<path d="M4 148.5C1.79086 148.5 0 150.291 0 152.5C0 154.709 1.79086 156.5 4 156.5V148.5ZM13.7971 152.057L17.1188 154.286L13.7971 152.057ZM40.714 114.726L37.018 116.255L40.714 114.726ZM38.9596 114.551L35.6379 112.322L38.9596 114.551ZM55.6961 140.471L44.4101 113.196L37.018 116.255L48.3039 143.529L55.6961 140.471ZM35.6379 112.322L10.4754 149.829L17.1188 154.286L42.2813 116.779L35.6379 112.322ZM12.9667 148.5H4V156.5H12.9667V148.5ZM10.4754 149.829C11.0325 148.998 11.9667 148.5 12.9667 148.5V156.5C14.6333 156.5 16.1903 155.67 17.1188 154.286L10.4754 149.829ZM44.4101 113.196C42.8836 109.507 37.8621 109.007 35.6379 112.322L42.2813 116.779C40.9467 118.769 37.9339 118.468 37.018 116.255L44.4101 113.196Z" fill="#333333"/>
</svg>
