<svg width="239" height="49" viewBox="0 0 239 49" fill="none" xmlns="http://www.w3.org/2000/svg">
<path d="M0.545455 48V1.45454H18.9091C22.4242 1.45454 25.4242 2.08333 27.9091 3.34091C30.4091 4.58333 32.3106 6.34848 33.6136 8.63636C34.9318 10.9091 35.5909 13.5833 35.5909 16.6591C35.5909 19.75 34.9242 22.4091 33.5909 24.6364C32.2576 26.8485 30.3258 28.5455 27.7955 29.7273C25.2803 30.9091 22.2348 31.5 18.6591 31.5H6.36364V23.5909H17.0682C18.947 23.5909 20.5076 23.3333 21.75 22.8182C22.9924 22.303 23.9167 21.5303 24.5227 20.5C25.1439 19.4697 25.4545 18.1894 25.4545 16.6591C25.4545 15.1136 25.1439 13.8106 24.5227 12.75C23.9167 11.6894 22.9848 10.8864 21.7273 10.3409C20.4848 9.7803 18.9167 9.5 17.0227 9.5H10.3864V48H0.545455ZM25.6818 26.8182L37.25 48H26.3864L15.0682 26.8182H25.6818ZM78.9261 20.8864V28.5682H57.6989V20.8864H78.9261Z" fill="#D94690"/>
<path d="M102.17 48V1.45454H120.534C124.064 1.45454 127.072 2.12879 129.557 3.47727C132.042 4.81061 133.936 6.66667 135.239 9.04545C136.557 11.4091 137.216 14.1364 137.216 17.2273C137.216 20.3182 136.549 23.0455 135.216 25.4091C133.883 27.7727 131.951 29.6136 129.42 30.9318C126.905 32.25 123.86 32.9091 120.284 32.9091H108.58V25.0227H118.693C120.587 25.0227 122.148 24.697 123.375 24.0455C124.617 23.3788 125.542 22.4621 126.148 21.2955C126.769 20.1136 127.08 18.7576 127.08 17.2273C127.08 15.6818 126.769 14.3333 126.148 13.1818C125.542 12.0151 124.617 11.1136 123.375 10.4773C122.133 9.82576 120.557 9.5 118.648 9.5H112.011V48H102.17ZM179.989 20.8864V28.5682H158.761V20.8864H179.989Z" fill="#F0CA44"/>
<path d="M228.483 14.8409C228.301 13.0076 227.521 11.5833 226.142 10.5682C224.763 9.55303 222.892 9.04545 220.528 9.04545C218.922 9.04545 217.566 9.27273 216.46 9.72727C215.354 10.1667 214.506 10.7803 213.915 11.5682C213.339 12.3561 213.051 13.25 213.051 14.25C213.021 15.0833 213.195 15.8106 213.574 16.4318C213.968 17.053 214.506 17.5909 215.188 18.0455C215.869 18.4848 216.657 18.8712 217.551 19.2045C218.445 19.5227 219.4 19.7955 220.415 20.0227L224.597 21.0227C226.627 21.4773 228.491 22.0833 230.188 22.8409C231.884 23.5985 233.354 24.5303 234.597 25.6364C235.839 26.7424 236.801 28.0455 237.483 29.5455C238.18 31.0455 238.536 32.7652 238.551 34.7045C238.536 37.553 237.809 40.0227 236.369 42.1136C234.945 44.1894 232.884 45.803 230.188 46.9545C227.506 48.0909 224.271 48.6591 220.483 48.6591C216.725 48.6591 213.453 48.0833 210.665 46.9318C207.892 45.7803 205.725 44.0758 204.165 41.8182C202.619 39.5455 201.809 36.7348 201.733 33.3864H211.256C211.362 34.947 211.809 36.25 212.597 37.2955C213.4 38.3258 214.468 39.1061 215.801 39.6364C217.15 40.1515 218.672 40.4091 220.369 40.4091C222.036 40.4091 223.483 40.1667 224.71 39.6818C225.953 39.197 226.915 38.5227 227.597 37.6591C228.278 36.7955 228.619 35.803 228.619 34.6818C228.619 33.6364 228.309 32.7576 227.688 32.0455C227.081 31.3333 226.188 30.7273 225.006 30.2273C223.839 29.7273 222.407 29.2727 220.71 28.8636L215.642 27.5909C211.718 26.6364 208.619 25.1439 206.347 23.1136C204.074 21.0833 202.945 18.3485 202.96 14.9091C202.945 12.0909 203.695 9.62879 205.21 7.52273C206.741 5.41667 208.839 3.77273 211.506 2.59091C214.172 1.40909 217.203 0.81818 220.597 0.81818C224.051 0.81818 227.066 1.40909 229.642 2.59091C232.233 3.77273 234.248 5.41667 235.688 7.52273C237.127 9.62879 237.869 12.0682 237.915 14.8409H228.483Z" fill="#5BC6E0"/>
</svg>
