<svg width="154" height="379" viewBox="0 0 154 379" fill="none" xmlns="http://www.w3.org/2000/svg">
<path fill-rule="evenodd" clip-rule="evenodd" d="M27.4679 178.248L27.9665 178.875C33.727 185.031 43.3644 185.336 49.49 179.553C55.6161 173.773 55.9085 164.096 50.1503 157.942L35.4743 142.261L43.8158 120.185C46.7993 112.293 42.842 103.46 34.9791 100.459C27.115 97.4592 18.3238 101.424 15.3426 109.318C7.45829 132.862 12.0252 158.825 27.4679 178.248Z" fill="#EA9975"/>
<path fill-rule="evenodd" clip-rule="evenodd" d="M73.9795 202.761C102.164 201.134 123.683 176.874 122.042 148.568L121.496 133.617C119.852 105.311 95.6782 83.6867 67.4911 85.3154C39.3067 86.942 17.7887 111.202 19.4296 139.508L19.9773 154.456C21.618 182.765 45.7968 204.389 73.9795 202.761Z" fill="#FBC399"/>
<mask id="mask0_23_8256" style="mask-type:luminance" maskUnits="userSpaceOnUse" x="31" y="153" width="116" height="357">
<path d="M31.6279 160.985L116.122 153.593L146.615 502.125L62.1205 509.518L31.6279 160.985Z" fill="#FBC399"/>
</mask>
<g mask="url(#mask0_23_8256)">
<path fill-rule="evenodd" clip-rule="evenodd" d="M50.0755 190.07L59.4551 479.052C60.9271 495.876 91.4842 506.949 108.239 505.483C124.993 504.017 145.422 488.484 143.95 471.659L110.748 184.762C109.276 167.936 94.5009 155.485 77.7462 156.951C60.9916 158.416 48.6033 173.244 50.0755 190.07Z" fill="#FBC399"/>
</g>
<mask id="mask1_23_8256" style="mask-type:luminance" maskUnits="userSpaceOnUse" x="18" y="131" width="123" height="380">
<path d="M18.417 139.597L107.898 131.769L140.348 502.674L50.867 510.502L18.417 139.597Z" fill="#EA9975"/>
</mask>
<g mask="url(#mask1_23_8256)">
<path fill-rule="evenodd" clip-rule="evenodd" d="M54.0954 193.313C58.3462 195.229 60.5297 200.065 60.6735 204.741L69.9005 468.984C71.3724 485.808 109.97 496.175 126.724 494.709C131.316 494.307 135.56 492.875 139.3 490.701C134.391 498.452 118.059 504.624 108.239 505.483C91.4839 506.949 60.9268 495.876 59.4548 479.052L50.9848 203.812C50.8911 200.761 49.1778 198.008 46.5116 196.541C31.5677 188.32 17.6302 173.282 19.4295 139.509C19.4295 139.509 17.6828 176.902 54.0954 193.313Z" fill="#EA9975"/>
</g>
<path fill-rule="evenodd" clip-rule="evenodd" d="M31.2053 124.911C32.5668 131.426 38.923 135.612 45.4191 134.267C51.9233 132.917 56.1042 126.527 54.7565 119.995L46.0108 77.6126C46.0088 77.6035 34.5292 22.6695 34.5275 22.6603C33.1655 16.1434 26.8093 11.9569 20.3144 13.3026C13.8091 14.6524 9.62933 21.0422 10.9767 27.574L31.1987 124.88C31.2006 124.889 31.2031 124.9 31.2053 124.911Z" fill="#FBC399"/>
<path fill-rule="evenodd" clip-rule="evenodd" d="M15.4799 26.6281C15.4799 26.6281 32.5664 131.426 31.2049 124.911C31.2027 124.9 31.2002 124.889 31.1983 124.88L10.9763 27.5738C9.62894 21.0421 13.8087 14.6523 20.314 13.3024C21.072 13.1454 21.8284 13.0702 22.5753 13.0597C17.3877 15.2519 14.2943 20.8819 15.4799 26.6281Z" fill="#EA9975"/>
<path fill-rule="evenodd" clip-rule="evenodd" d="M71.8574 82.4976L71.8601 82.529L75.7138 125.305C76.3135 131.95 82.1619 136.851 88.7777 136.256C95.3834 135.66 100.256 129.807 99.6759 123.179L99.673 123.145L95.8195 80.3713C95.2198 73.7265 89.3712 68.8231 82.7556 69.4199C76.1498 70.016 71.2773 75.867 71.8574 82.4976Z" fill="#FBC399"/>
<path fill-rule="evenodd" clip-rule="evenodd" d="M78.9479 81.9279C78.9459 81.939 78.9469 81.9166 78.9479 81.9279C78.9479 81.9279 76.5117 106.325 76.4303 115.475L74.8094 116.239L71.8601 82.5291L71.8574 82.4977C71.2772 75.8668 76.1483 69.9981 82.7556 69.4201C86.0925 69.1281 86.8599 69.9056 87.5928 69.9762C82.1038 71.4942 80.0054 75.9653 78.9479 81.9279Z" fill="#EA9975"/>
<path fill-rule="evenodd" clip-rule="evenodd" d="M52.373 115.699C52.4476 122.355 57.8732 127.701 64.5068 127.65C71.1492 127.596 76.4876 122.144 76.4301 115.475L76.0544 72.1995C76.0542 72.1905 75.4262 16.0712 75.426 16.0622C75.3516 9.40455 69.926 4.05793 63.2939 4.10964C56.65 4.16358 51.3127 9.61475 51.3702 16.2841L52.3727 115.667C52.3728 115.677 52.3729 115.688 52.373 115.699Z" fill="#FBC399"/>
<mask id="mask2_23_8256" style="mask-type:luminance" maskUnits="userSpaceOnUse" x="92" y="72" width="31" height="70">
<path d="M92.123 74.9053L116.198 72.799L122.047 139.65L97.9718 141.757L92.123 74.9053Z" fill="#FBC399"/>
</mask>
<g mask="url(#mask2_23_8256)">
<path fill-rule="evenodd" clip-rule="evenodd" d="M93.1759 86.9394L93.1787 86.9711L97.0322 129.745C97.6318 136.389 103.48 141.293 110.096 140.696C116.702 140.1 121.574 134.249 120.994 127.618L120.992 127.587L117.138 84.8111C116.538 78.1663 110.69 73.2649 104.074 73.8597C97.4682 74.4557 92.5958 80.3089 93.1759 86.9394Z" fill="#FBC399"/>
</g>
<path fill-rule="evenodd" clip-rule="evenodd" d="M97.5425 86.5575L97.5453 86.5891C97.5453 86.5891 96.5853 124.428 95.986 117.783L93.1787 86.9712L93.1759 86.9395C92.5958 80.3089 97.4685 74.4558 104.074 73.8597C104.833 73.7912 105.581 73.8033 106.314 73.876C100.825 75.3939 97.0267 80.6625 97.5425 86.5575Z" fill="#EA9975"/>
<path fill-rule="evenodd" clip-rule="evenodd" d="M55.9715 16.2356C55.9715 16.2356 52.1006 88.6983 52.1007 88.6892L51.3702 16.2841C51.3127 9.61476 56.65 4.16359 63.2936 4.10967C64.0678 4.1037 64.8244 4.17762 65.559 4.31283C60.0455 5.45059 55.9206 10.3687 55.9715 16.2356Z" fill="#EA9975"/>
<path d="M26.7593 16.2391L29.4414 27.5624C29.7416 28.8026 29.6843 30.1024 29.276 31.3106C27.8998 35.3835 23.12 37.1257 19.4586 34.889L18.7742 34.4707" stroke="#EA9975" stroke-width="1.8" stroke-linecap="round"/>
<path d="M70.3303 9.76891L70.8186 21.3962C70.8782 22.6707 70.5757 23.9356 69.9459 25.0436C67.823 28.7786 62.7996 29.5755 59.6286 26.6806L59.0357 26.1391" stroke="#EA9975" stroke-width="1.8" stroke-linecap="round"/>
<path d="M92.6416 202.243L97.561 208.53" stroke="#EA9975" stroke-width="1.8" stroke-linecap="round"/>
<path d="M71.2355 193.7L70.5117 201.659" stroke="#EA9975" stroke-width="1.8" stroke-linecap="round"/>
<path d="M81.4609 214.117L83.2302 221.911" stroke="#EA9975" stroke-width="1.8" stroke-linecap="round"/>
<path d="M101.481 189.516L103.251 197.309" stroke="#EA9975" stroke-width="1.8" stroke-linecap="round"/>
<path d="M99.376 265.777L101.145 273.572" stroke="#EA9975" stroke-width="1.8" stroke-linecap="round"/>
<path d="M97.6426 337.813L99.4119 345.607" stroke="#EA9975" stroke-width="1.8" stroke-linecap="round"/>
<path d="M104.772 292.741L107.736 300.161" stroke="#EA9975" stroke-width="1.8" stroke-linecap="round"/>
<path d="M114.315 278.086L116.085 285.88" stroke="#EA9975" stroke-width="1.8" stroke-linecap="round"/>
<path d="M91.1062 240.603L90.1036 248.531" stroke="#EA9975" stroke-width="1.8" stroke-linecap="round"/>
<path d="M88.4402 281.938L87.4376 289.867" stroke="#EA9975" stroke-width="1.8" stroke-linecap="round"/>
<path d="M83.1374 326.22L82.1348 334.148" stroke="#EA9975" stroke-width="1.8" stroke-linecap="round"/>
<path d="M95.2705 309.102L96.7652 316.953" stroke="#EA9975" stroke-width="1.8" stroke-linecap="round"/>
<path d="M70.4377 224.598L66.5835 231.589" stroke="#EA9975" stroke-width="1.8" stroke-linecap="round"/>
<path d="M58.9337 214.328L55.0796 221.318" stroke="#EA9975" stroke-width="1.8" stroke-linecap="round"/>
<path d="M76.1077 262.59L73.7037 270.207" stroke="#EA9975" stroke-width="1.8" stroke-linecap="round"/>
<path d="M72.9051 288.088L69.8488 295.465" stroke="#EA9975" stroke-width="1.8" stroke-linecap="round"/>
<path d="M75.5343 242.275L71.6802 249.265" stroke="#EA9975" stroke-width="1.8" stroke-linecap="round"/>
<path d="M77.6027 308.413L73.7485 315.403" stroke="#EA9975" stroke-width="1.8" stroke-linecap="round"/>
<path d="M61.5334 314.633L57.6792 321.624" stroke="#EA9975" stroke-width="1.8" stroke-linecap="round"/>
<path d="M59.6535 244.8L53.3833 249.719" stroke="#EA9975" stroke-width="1.8" stroke-linecap="round"/>
<path d="M101.765 224.926L106.106 231.629" stroke="#EA9975" stroke-width="1.8" stroke-linecap="round"/>
<path d="M106.075 250.92L110.416 257.622" stroke="#EA9975" stroke-width="1.8" stroke-linecap="round"/>
<path d="M114.319 311.876L118.66 318.579" stroke="#EA9975" stroke-width="1.8" stroke-linecap="round"/>
<path d="M114.678 331.301L119.597 337.588" stroke="#EA9975" stroke-width="1.8" stroke-linecap="round"/>
<path d="M115.561 345.921L117.33 353.715" stroke="#EA9975" stroke-width="1.8" stroke-linecap="round"/>
</svg>
