<svg width="156" height="369" viewBox="0 0 156 369" fill="none" xmlns="http://www.w3.org/2000/svg">
<path opacity="0.390485" fill-rule="evenodd" clip-rule="evenodd" d="M39.192 240.576L41.5505 283.46C41.9072 289.929 47.269 294.927 53.6531 294.877C53.8425 294.876 54.0329 294.871 54.2245 294.86C57.7649 294.665 60.8619 292.95 62.9249 290.381C63.825 294.854 67.1628 298.379 71.4217 299.597C72.1062 299.849 73.1769 300.157 75.3756 300.041C77.9517 299.906 80.291 298.959 82.1703 297.465L82.1695 297.497C82.1691 297.507 80.8382 353.613 80.8381 353.623C80.7284 358.235 83.2107 362.307 86.9511 364.433C90.905 367.212 96.3497 366.948 100.024 363.62C102.889 361.485 104.785 358.1 104.887 354.24L106.683 281.911C107.889 281.494 109.075 281.032 110.238 280.529L112.384 293.136C112.385 293.145 121.941 348.446 121.942 348.455C122.62 352.377 125.111 355.528 128.402 357.19L128.409 357.227C133.394 360.633 140.202 359.153 143.333 353.981L143.817 353.181L143.801 353.096C145.445 350.619 146.189 347.533 145.65 344.367L133.155 271.574C137.911 270.594 142.118 267.354 144.139 262.521C152.556 240.026 149.407 214.863 135.836 195.184C131.426 186.099 124.911 179.94 117.955 175.455C117.238 174.983 116.508 174.528 115.767 174.091C114.115 173.023 112.892 171.445 112.273 169.629L112.308 155.199C117.403 151.919 116.639 150.15 112.322 149.556L112.343 141.132C116.324 139.278 121.968 135.619 122.009 132.95C122.071 128.879 118.311 127.269 112.377 127.33L112.957 -108.528C112.073 -125.393 81.9214 -137.525 65.1258 -136.645C64.8404 -136.63 64.5536 -136.615 64.2668 -136.587C64.1022 -136.575 63.9334 -136.558 63.7657 -136.542C63.673 -136.534 63.5807 -136.526 63.4878 -136.516C53.5413 -135.521 38.467 -130.126 33.5669 -122.956C35.1606 -123.81 36.8387 -124.528 38.5869 -125.096C32.1621 -119.335 27.8452 -111.935 28.2564 -104.089L48.6374 149.151C39.1608 154.793 36.2449 159.097 47.8218 158.267L49.339 157.872L49.6537 161.78C39.1588 166.127 32.8776 171.099 36.853 175.812C38.7705 178.085 46.7898 177.665 50.8643 176.822L51.4254 183.793C51.4399 184.07 51.4586 184.346 51.4802 184.622C43.3672 193.941 38.5671 206.217 38.8742 219.571L38.898 234.531C38.9334 236.064 39.0392 237.579 39.205 239.075C39.1722 239.558 39.1644 240.048 39.1904 240.544L39.192 240.576Z" fill="#232586"/>
<path fill-rule="evenodd" clip-rule="evenodd" d="M124.682 192.352L124.2 191.767C118.652 186.039 109.537 185.91 103.842 191.479C98.1466 197.047 98.0303 206.203 103.575 211.929L117.708 226.517L110.188 247.532C107.498 255.044 111.385 263.332 118.868 266.041C126.352 268.749 134.596 264.854 137.284 257.34C144.348 234.944 139.601 210.466 124.682 192.352Z" fill="#F2BCA7"/>
<path fill-rule="evenodd" clip-rule="evenodd" d="M80.3079 169.935C53.6919 171.937 33.751 195.235 35.7703 221.978L36.5334 236.108C38.5558 262.85 61.7656 282.903 88.3847 280.898C115.001 278.896 134.94 255.598 132.921 228.856L132.156 214.728C130.137 187.983 106.923 167.931 80.3079 169.935Z" fill="#FCD9C3"/>
<mask id="mask0_22_4643" style="mask-type:luminance" maskUnits="userSpaceOnUse" x="6" y="-121" width="116" height="339">
<path d="M121.035 208.746L41.2837 217.128L6.69269 -111.983L86.4442 -120.366L121.035 208.746Z" fill="#FCD9C3"/>
</mask>
<g mask="url(#mask0_22_4643)">
<path fill-rule="evenodd" clip-rule="evenodd" d="M103.115 181.543L89.4678 -91.5975C87.798 -107.484 58.7288 -117.453 42.9146 -115.791C27.1005 -114.128 8.04655 -99.1022 9.71633 -83.2153L45.8486 187.562C47.5186 203.451 61.6915 214.983 77.5056 213.321C93.3198 211.659 104.785 197.432 103.115 181.543Z" fill="#FCD9C3"/>
</g>
<mask id="mask1_22_4643" style="mask-type:luminance" maskUnits="userSpaceOnUse" x="12" y="-122" width="122" height="360">
<path d="M133.877 228.755L49.4188 237.632L12.6074 -112.605L97.0656 -121.482L133.877 228.755Z" fill="#F2BCA7"/>
</mask>
<g mask="url(#mask1_22_4643)">
<path d="M56.6212 127.957C55.7802 128.179 55.174 128.683 54.8026 129.469C54.4312 130.256 54.319 131.172 54.4661 132.219C54.5736 132.984 54.7915 133.636 55.1197 134.175C55.4472 134.709 55.85 135.106 56.3283 135.365C56.8059 135.62 57.3203 135.708 57.8717 135.63C58.3331 135.566 58.7144 135.4 59.0155 135.134C59.3102 134.863 59.5427 134.538 59.7132 134.158C59.8779 133.779 60.0038 133.389 60.0907 132.986C60.1719 132.585 60.2322 132.218 60.2715 131.885L60.4975 130.063C60.5524 129.596 60.6451 129.073 60.7758 128.492C60.9057 127.906 61.1151 127.334 61.4041 126.777C61.6866 126.215 62.083 125.729 62.5934 125.319C63.1038 124.909 63.7641 124.647 64.5743 124.533C65.5083 124.401 66.3867 124.528 67.2094 124.911C68.0314 125.289 68.7302 125.914 69.306 126.785C69.881 127.651 70.2618 128.748 70.4484 130.076C70.6223 131.314 70.5732 132.414 70.3011 133.376C70.0281 134.332 69.5707 135.119 68.9289 135.737C68.2863 136.35 67.4971 136.756 66.5613 136.957L66.2577 134.796C66.9024 134.648 67.4118 134.353 67.7856 133.91C68.153 133.463 68.3993 132.929 68.5245 132.309C68.6432 131.684 68.6543 131.028 68.5579 130.342C68.4456 129.543 68.2153 128.844 67.8672 128.244C67.5134 127.645 67.0769 127.193 66.5577 126.888C66.0329 126.583 65.4554 126.474 64.8252 126.563C64.2513 126.644 63.8068 126.87 63.4918 127.241C63.1768 127.612 62.9435 128.075 62.792 128.63C62.6405 129.185 62.523 129.778 62.4396 130.41L62.1309 132.622C61.9324 134.027 61.5284 135.174 60.9189 136.063C60.3095 136.952 59.4224 137.478 58.2577 137.642C57.2899 137.778 56.4092 137.635 55.6154 137.213C54.8153 136.786 54.153 136.156 53.6286 135.323C53.0977 134.485 52.7548 133.515 52.5998 132.412C52.4433 131.298 52.5038 130.28 52.7815 129.357C53.0536 128.435 53.4973 127.673 54.1126 127.07C54.727 126.462 55.4683 126.082 56.3365 125.931L56.6212 127.957ZM54.9452 108.193L55.2394 110.286C54.6547 110.495 54.1563 110.786 53.744 111.159C53.331 111.527 53.0005 111.952 52.7528 112.435C52.4986 112.912 52.3299 113.426 52.2466 113.977C52.1634 114.528 52.1622 115.091 52.2428 115.665C52.3899 116.711 52.7876 117.622 53.4359 118.398C54.0834 119.167 54.9572 119.73 56.0572 120.086C57.1564 120.436 58.4544 120.507 59.951 120.296C61.4477 120.086 62.6761 119.661 63.6361 119.021C64.5954 118.375 65.2802 117.594 65.6905 116.675C66.0999 115.751 66.2311 114.766 66.0841 113.72C66.0034 113.146 65.8471 112.605 65.6153 112.099C65.3834 111.592 65.0823 111.144 64.7119 110.754C64.3352 110.359 63.8976 110.042 63.3991 109.802C62.8943 109.558 62.3349 109.415 61.7211 109.375L61.4269 107.282C62.3324 107.316 63.1633 107.492 63.9195 107.81C64.6757 108.128 65.3421 108.562 65.9186 109.113C66.4894 109.663 66.9556 110.307 67.3171 111.042C67.6779 111.771 67.9195 112.572 68.0421 113.444C68.2493 114.919 68.0734 116.28 67.5145 117.529C66.9557 118.778 66.0586 119.825 64.8232 120.67C63.5879 121.515 62.0587 122.066 60.2357 122.322C58.4127 122.578 56.791 122.47 55.3707 121.999C53.9503 121.527 52.7993 120.768 51.9178 119.721C51.0363 118.675 50.492 117.414 50.2848 115.94C50.1622 115.068 50.1738 114.231 50.3194 113.431C50.4643 112.624 50.738 111.877 51.1405 111.189C51.5374 110.503 52.0554 109.902 52.6946 109.387C53.3281 108.874 54.0783 108.476 54.9452 108.193ZM48.7742 103.477L66.0589 101.048L66.3531 103.141L49.0684 105.57L48.7742 103.477ZM51.1771 89.2205C50.3361 89.442 49.7299 89.9461 49.3585 90.7327C48.9871 91.5193 48.8749 92.4359 49.022 93.4824C49.1295 94.2476 49.3474 94.8998 49.6757 95.4389C50.0031 95.9724 50.406 96.369 50.8843 96.6288C51.3618 96.883 51.8763 96.9714 52.4277 96.8939C52.889 96.8291 53.2703 96.6636 53.5714 96.3975C53.8661 96.1266 54.0987 95.8013 54.2691 95.4216C54.4339 95.0427 54.5597 94.6521 54.6466 94.2497C54.7279 93.8481 54.7882 93.481 54.8275 93.1485L55.0534 91.3266C55.1083 90.8598 55.2011 90.3361 55.3318 89.7555C55.4617 89.1692 55.6711 88.5976 55.96 88.0406C56.2425 87.4787 56.639 86.9927 57.1493 86.5824C57.6597 86.1722 58.32 85.9101 59.1302 85.7963C60.0642 85.665 60.9426 85.7911 61.7654 86.1747C62.5873 86.5526 63.2862 87.1773 63.8619 88.0489C64.4369 88.9148 64.8177 90.0117 65.0043 91.3395C65.1783 92.5773 65.1292 93.6773 64.857 94.6393C64.584 95.5957 64.1267 96.3829 63.4848 97.001C62.8422 97.6134 62.053 98.0198 61.1173 98.2202L60.8136 96.0596C61.4584 95.9116 61.9677 95.6162 62.3415 95.1735C62.709 94.726 62.9553 94.1922 63.0804 93.5722C63.1991 92.9473 63.2103 92.2916 63.1138 91.6052C63.0015 90.8062 62.7713 90.107 62.4231 89.5076C62.0693 88.909 61.6328 88.4568 61.1136 88.1511C60.5888 87.8462 60.0113 87.738 59.3811 87.8266C58.8072 87.9072 58.3628 88.1332 58.0477 88.5045C57.7327 88.8758 57.4994 89.3389 57.3479 89.8938C57.1964 90.4487 57.0789 91.0419 56.9956 91.6733L56.6868 93.8855C56.4883 95.2904 56.0844 96.4374 55.4749 97.3263C54.8654 98.2152 53.9783 98.7415 52.8136 98.9052C51.8459 99.0412 50.9651 98.8982 50.1714 98.4762C49.3712 98.0493 48.7089 97.4194 48.1845 96.5866C47.6537 95.7489 47.3108 94.7786 47.1558 93.6758C46.9992 92.5618 47.0598 91.5434 47.3375 90.6208C47.6096 89.699 48.0532 88.9366 48.6685 88.3338C49.283 87.7253 50.0243 87.3457 50.8924 87.195L51.1771 89.2205ZM49.0471 74.0648C48.2061 74.2863 47.5999 74.7903 47.2285 75.5769C46.8571 76.3635 46.7449 77.2801 46.892 78.3267C46.9995 79.0919 47.2174 79.744 47.5457 80.2831C47.8731 80.8166 48.276 81.2133 48.7543 81.4731C49.2318 81.7273 49.7463 81.8156 50.2977 81.7382C50.759 81.6733 51.1403 81.5078 51.4414 81.2418C51.7361 80.9708 51.9687 80.6455 52.1391 80.2658C52.3039 79.887 52.4297 79.4963 52.5166 79.0939C52.5979 78.6924 52.6582 78.3253 52.6975 77.9927L52.9234 76.1708C52.9783 75.7041 53.0711 75.1804 53.2018 74.5997C53.3317 74.0135 53.5411 73.4418 53.83 72.8848C54.1125 72.323 54.509 71.8369 55.0193 71.4267C55.5297 71.0164 56.19 70.7544 57.0002 70.6405C57.9342 70.5093 58.8126 70.6354 59.6354 71.0189C60.4573 71.3969 61.1562 72.0216 61.7319 72.8931C62.3069 73.759 62.6877 74.8559 62.8743 76.1838C63.0483 77.4216 62.9992 78.5215 62.727 79.4835C62.454 80.4399 61.9967 81.2272 61.3548 81.8452C60.7122 82.4577 59.923 82.8641 58.9873 83.0644L58.6836 80.9038C59.3284 80.7559 59.8377 80.4605 60.2115 80.0178C60.579 79.5703 60.8253 79.0365 60.9504 78.4164C61.0691 77.7916 61.0803 77.1359 60.9838 76.4495C60.8715 75.6505 60.6413 74.9513 60.2931 74.3519C59.9393 73.7532 59.5028 73.3011 58.9836 72.9954C58.4588 72.6904 57.8813 72.5822 57.2511 72.6708C56.6772 72.7515 56.2328 72.9775 55.9177 73.3488C55.6027 73.7201 55.3694 74.1832 55.2179 74.7381C55.0664 75.293 54.9489 75.8861 54.8655 76.5175L54.5568 78.7298C54.3583 80.1347 53.9544 81.2816 53.3449 82.1705C52.7354 83.0595 51.8483 83.5858 50.6836 83.7495C49.7159 83.8855 48.8351 83.7425 48.0414 83.3204C47.2412 82.8935 46.5789 82.2637 46.0545 81.4308C45.5237 80.5931 45.1808 79.6229 45.0258 78.5201C44.8692 77.406 44.9298 76.3877 45.2075 75.4651C45.4795 74.5432 45.9232 73.7809 46.5385 73.178C47.153 72.5695 47.8943 72.1899 48.7624 72.0392L49.0471 74.0648ZM50.5171 53.1704C52.3401 52.9142 53.9618 53.0219 55.3822 53.4936C56.8026 53.9653 57.9535 54.7244 58.835 55.771C59.7165 56.8176 60.2609 58.078 60.468 59.5521C60.6752 61.0263 60.4994 62.3878 59.9405 63.6369C59.3816 64.8859 58.4845 65.9329 57.2491 66.7778C56.0138 67.6227 54.4846 68.1733 52.6616 68.4295C50.8387 68.6857 49.217 68.578 47.7966 68.1063C46.3762 67.6346 45.2253 66.8754 44.3438 65.8289C43.4622 64.7823 42.9179 63.5219 42.7107 62.0477C42.5035 60.5736 42.6794 59.212 43.2383 57.963C43.7972 56.7139 44.6943 55.667 45.9296 54.822C47.165 53.9771 48.6941 53.4266 50.5171 53.1704ZM50.8018 55.1959C49.3051 55.4062 48.0772 55.8342 47.1179 56.4796C46.1578 57.1195 45.473 57.9014 45.0636 58.8253C44.6533 59.7436 44.5217 60.726 44.6688 61.7726C44.8158 62.8191 45.2135 63.73 45.8618 64.5053C46.5093 65.2749 47.3831 65.8378 48.4831 66.1938C49.5824 66.5442 50.8803 66.6143 52.377 66.4039C53.8736 66.1936 55.102 65.7685 56.0621 65.1287C57.0213 64.4832 57.7061 63.7013 58.1164 62.783C58.5259 61.8591 58.6571 60.8738 58.51 59.8273C58.3629 58.7808 57.9656 57.8727 57.3181 57.103C56.6698 56.3277 55.7961 55.7649 54.6968 55.4145C53.5968 55.0584 52.2984 54.9856 50.8018 55.1959ZM58.6648 48.4364L41.3802 50.8656L40.5594 45.0252C40.3696 43.6749 40.4445 42.534 40.7841 41.6027C41.118 40.6722 41.6553 39.9426 42.3957 39.4139C43.1362 38.8853 44.0156 38.5494 45.034 38.4063C46.0524 38.2631 46.9847 38.3444 47.8309 38.6501C48.6772 38.9557 49.3858 39.5073 49.9569 40.3049C50.5224 41.1033 50.8993 42.1721 51.0875 43.5112L51.7517 48.2375L49.8612 48.5032L49.2064 43.8444C49.0768 42.9216 48.8373 42.1979 48.4882 41.6732C48.1382 41.1429 47.6979 40.7859 47.1672 40.6023C46.6301 40.4139 46.0155 40.3683 45.3234 40.4656C44.6313 40.5628 44.0447 40.7772 43.5634 41.1088C43.0821 41.4404 42.7408 41.9101 42.5393 42.5179C42.3322 43.1265 42.2943 43.8978 42.4256 44.8318L42.9427 48.5116L58.3707 46.3433L58.6648 48.4364ZM49.7568 41.3917L56.9236 36.0468L57.2652 38.4774L50.0889 43.7548L49.7568 41.3917ZM42.2363 25.6035C41.3953 25.825 40.7891 26.3291 40.4177 27.1157C40.0463 27.9023 39.9341 28.8189 40.0812 29.8654C40.1888 30.6306 40.4066 31.2828 40.7349 31.8219C41.0623 32.3554 41.4652 32.752 41.9435 33.0119C42.421 33.2661 42.9355 33.3544 43.4869 33.2769C43.9483 33.2121 44.3295 33.0466 44.6306 32.7805C44.9253 32.5096 45.1579 32.1843 45.3283 31.8046C45.4931 31.4257 45.6189 31.0351 45.7058 30.6327C45.7871 30.2311 45.8474 29.864 45.8867 29.5315L46.1126 27.7096C46.1675 27.2428 46.2603 26.7191 46.391 26.1385C46.5209 25.5522 46.7303 24.9806 47.0192 24.4236C47.3017 23.8617 47.6982 23.3757 48.2086 22.9654C48.7189 22.5552 49.3792 22.2931 50.1894 22.1793C51.1234 22.048 52.0018 22.1741 52.8246 22.5577C53.6465 22.9356 54.3454 23.5603 54.9211 24.4319C55.4961 25.2978 55.8769 26.3947 56.0635 27.7225C56.2375 28.9604 56.1884 30.0603 55.9162 31.0223C55.6433 31.9787 55.1859 32.7659 54.5441 33.384C53.9014 33.9964 53.1123 34.4028 52.1765 34.6032L51.8728 32.4426C52.5176 32.2946 53.0269 31.9993 53.4008 31.5566C53.7682 31.109 54.0145 30.5752 54.1396 29.9552C54.2584 29.3303 54.2695 28.6747 54.173 27.9882C54.0607 27.1892 53.8305 26.4901 53.4823 25.8906C53.1285 25.292 52.692 24.8398 52.1728 24.5341C51.648 24.2292 51.0705 24.121 50.4404 24.2096C49.8664 24.2902 49.422 24.5162 49.107 24.8875C48.7919 25.2589 48.5587 25.722 48.4071 26.2769C48.2556 26.8318 48.1382 27.4249 48.0548 28.0563L47.746 30.2685C47.5476 31.6734 47.1436 32.8204 46.5341 33.7093C45.9246 34.5982 45.0375 35.1245 43.8728 35.2882C42.9051 35.4242 42.0243 35.2812 41.2306 34.8592C40.4304 34.4323 39.7681 33.8024 39.2437 32.9696C38.7129 32.1319 38.37 31.1616 38.215 30.0588C38.0584 28.9448 38.119 27.9265 38.3967 27.0038C38.6688 26.082 39.1124 25.3196 39.7277 24.7168C40.3422 24.1083 41.0835 23.7287 41.9517 23.578L42.2363 25.6035Z" fill="black"/>
</g>
<mask id="mask2_22_4643" style="mask-type:luminance" maskUnits="userSpaceOnUse" x="12" y="-122" width="122" height="360">
<path d="M133.877 228.755L49.4188 237.632L12.6074 -112.605L97.0656 -121.482L133.877 228.755Z" fill="#F2BCA7"/>
</mask>
<g mask="url(#mask2_22_4643)">
<path fill-rule="evenodd" clip-rule="evenodd" d="M99.261 178.542C95.2109 176.8 93.0668 172.263 92.8536 167.844L79.7598 -81.9038C78.09 -97.791 41.4321 -106.959 25.6179 -105.297C21.284 -104.841 17.2959 -103.418 13.7957 -101.299C18.3087 -108.711 33.6453 -114.816 42.9144 -115.79C58.7286 -117.453 87.7978 -107.484 89.4676 -91.5974L102.028 168.563C102.167 171.446 103.832 174.022 106.377 175.364C120.639 182.893 134.064 196.886 132.921 228.856C132.921 228.856 133.954 193.463 99.261 178.542Z" fill="#F2BCA7"/>
</g>
<path fill-rule="evenodd" clip-rule="evenodd" d="M122.032 242.854C120.637 236.715 114.559 232.861 108.44 234.241C102.314 235.624 98.4678 241.736 99.8499 247.891L108.818 287.829C108.82 287.838 120.581 339.601 120.583 339.609C121.978 345.75 128.056 349.605 134.174 348.225C140.301 346.842 144.146 340.73 142.764 334.575L122.039 242.883C122.037 242.875 122.034 242.865 122.032 242.854Z" fill="#FCD9C3"/>
<path fill-rule="evenodd" clip-rule="evenodd" d="M138.522 335.543C138.522 335.543 120.637 236.715 122.031 242.854C122.034 242.865 122.036 242.875 122.038 242.884L142.764 334.575C144.146 340.73 140.3 346.842 134.173 348.225C133.459 348.386 132.745 348.47 132.039 348.492C136.907 346.333 139.738 340.958 138.522 335.543Z" fill="#F2BCA7"/>
<path fill-rule="evenodd" clip-rule="evenodd" d="M84.3044 283.635L84.3013 283.605L79.9506 243.215C79.2739 236.941 73.6642 232.402 67.4198 233.073C61.1854 233.746 56.6763 239.361 57.3341 245.62L57.3375 245.652L61.6878 286.04C62.3646 292.315 67.9745 296.856 74.2185 296.182C80.4531 295.51 84.9625 289.896 84.3044 283.635Z" fill="#FCD9C3"/>
<path fill-rule="evenodd" clip-rule="evenodd" d="M77.611 284.29C77.6127 284.28 77.6121 284.301 77.611 284.29C77.611 284.29 79.5101 261.177 79.4359 252.523L80.9556 251.773L84.3012 283.605L84.3044 283.635C84.9625 289.896 80.4549 295.527 74.2184 296.182C71.0689 296.513 70.3305 295.79 69.6366 295.736C74.8003 294.21 76.7099 289.947 77.611 284.29Z" fill="#F2BCA7"/>
<path fill-rule="evenodd" clip-rule="evenodd" d="M102.173 251.915C101.993 245.622 96.7755 240.655 90.5058 240.813C84.2275 240.973 79.2709 246.216 79.4356 252.523L80.5069 293.443C80.507 293.452 82.0293 346.514 82.0294 346.523C82.2099 352.818 87.4273 357.785 93.6961 357.627C99.9755 357.466 104.931 352.223 104.766 345.917L102.174 251.945C102.174 251.936 102.174 251.926 102.173 251.915Z" fill="#FCD9C3"/>
<path fill-rule="evenodd" clip-rule="evenodd" d="M64.0776 279.785L64.0745 279.755L59.7241 239.367C59.0473 233.093 53.4374 228.552 47.1932 229.225C40.9588 229.898 36.4495 235.511 37.1075 241.773L37.1107 241.802L41.4613 282.192C42.1381 288.467 47.7477 293.006 53.9919 292.334C60.2266 291.662 64.7357 286.046 64.0776 279.785Z" fill="#FCD9C3"/>
<path fill-rule="evenodd" clip-rule="evenodd" d="M59.9561 280.218L59.953 280.189C59.953 280.189 60.2344 244.388 60.9109 250.662L64.0745 279.755L64.0776 279.785C64.7357 286.046 60.2263 291.662 53.9919 292.334C53.2751 292.412 52.5685 292.413 51.874 292.356C57.038 290.83 60.5412 285.785 59.9561 280.218Z" fill="#F2BCA7"/>
<path fill-rule="evenodd" clip-rule="evenodd" d="M100.417 346.039C100.417 346.039 102.878 277.446 102.878 277.454L104.766 345.917C104.931 352.223 99.9754 357.466 93.696 357.627C92.9645 357.645 92.2478 357.588 91.5511 357.472C96.7446 356.305 100.562 351.586 100.417 346.039Z" fill="#F2BCA7"/>
<path fill-rule="evenodd" clip-rule="evenodd" d="M127.123 347.575L123.929 335.065C123.572 333.695 123.61 332.252 124.039 330.904C125.326 326.865 129.63 324.816 133.452 326.103C134.154 326.34 134.805 326.708 135.405 327.144C137.222 328.464 138.486 330.416 138.953 332.619L141.47 342.991L141.052 343.77C138.352 348.81 131.998 350.546 127.123 347.575Z" fill="#CE4EAA"/>
<path fill-rule="evenodd" clip-rule="evenodd" d="M86.6922 355.142L86.3139 342.235C86.2655 340.821 86.6188 339.422 87.3326 338.202C89.4717 334.546 94.12 333.498 97.5677 335.598C98.2004 335.984 98.7551 336.486 99.245 337.044C100.729 338.733 101.536 340.916 101.508 343.168L101.695 353.839L101.117 354.508C97.3792 358.827 90.799 359.116 86.6922 355.142Z" fill="#CE4EAA"/>
<path d="M100.539 158.482C128.541 140.315 17.3261 165.408 31.6948 180.745C33.831 183.025 42.9152 181.792 46.0911 180.671" stroke="#FFB600" stroke-width="1.701"/>
<path d="M41.182 163.63C6.30271 167.975 109.201 115.215 109.973 136.047C110.088 139.144 102.301 144.07 99.0564 145.271" stroke="#FFB600" stroke-width="1.701"/>
</svg>
