<svg width="126" height="199" viewBox="0 0 126 199" fill="none" xmlns="http://www.w3.org/2000/svg">
<path d="M69.4829 134.839C69.783 136.559 70.1229 138.269 70.3729 139.999C71.7929 149.849 67.4929 156.879 59.4629 162.059C46.2529 170.579 24.0629 169.269 12.0529 150.989C6.20293 142.089 3.32294 132.199 2.38294 121.679C1.45294 111.349 2.38293 101.249 5.96293 91.4591C6.56293 89.8191 7.06293 88.0591 8.05293 86.6691C10.0029 83.9491 9.59294 81.6091 8.25294 78.6891C1.26294 63.5391 -0.867073 47.5291 0.302927 30.9691C0.962927 21.5391 2.59293 12.3191 5.43293 3.30908C6.56293 -0.28092 7.17293 -0.58092 10.6229 0.66908C36.7729 10.1191 54.8129 28.0991 65.8529 53.3791C66.5829 55.0591 67.4629 55.6991 69.2429 55.9891C78.7729 57.5491 86.9929 62.0391 94.5029 67.8891C107.653 78.1291 117.813 90.6691 123.093 106.709C126.713 117.699 126.683 128.519 120.433 138.709C116.443 145.209 110.853 150.029 103.773 152.859C94.7129 156.479 87.0229 153.539 80.2029 147.309C76.3729 143.809 73.1929 139.749 70.4429 135.349C70.1296 134.889 69.8163 134.726 69.5029 134.859L69.4829 134.839Z" fill="#333333"/>
<path d="M69.4829 134.839C69.0329 134.559 68.7129 133.839 69.1429 133.779C70.0529 133.649 70.3629 134.489 70.4129 135.329C70.1029 135.169 69.7929 134.999 69.4729 134.839H69.4829Z" fill="#39646D"/>
<path d="M44.7829 83.4491C47.5029 94.0591 52.9629 103.349 57.3429 113.119C61.6029 122.639 65.1329 132.599 66.1729 143.139C66.5729 147.199 64.9929 150.779 62.2429 153.839C50.7829 166.599 29.3429 165.449 18.0329 151.459C12.1129 144.139 8.92289 135.639 7.41289 126.479C5.30289 113.639 6.23289 101.119 11.7229 89.1191C12.6529 87.0991 13.8329 86.5491 15.9329 86.6591C22.8329 87.0291 29.7329 87.0991 36.6029 85.9591C39.4029 85.4891 42.0529 84.5891 44.7829 83.4591V83.4491Z" fill="#5BC6E0"/>
<path d="M104.453 83.8291C104.773 84.1791 105.093 84.5391 105.423 84.8891C105.943 85.5391 106.413 86.2391 107.053 86.7891C113.203 94.1091 117.473 102.409 119.883 111.659C120.073 112.379 120.243 113.099 120.423 113.819C121.343 118.319 121.483 122.819 120.413 127.319C118.003 136.879 112.153 143.679 103.493 148.099C97.5029 151.149 91.6929 150.339 86.3229 146.479C80.6729 142.429 76.5029 137.009 73.0029 131.119C65.5329 118.539 58.0829 105.929 52.4529 92.3691C50.8529 88.5191 49.6329 84.5491 48.7229 80.4891C48.5329 79.6591 48.3929 78.8891 48.9429 78.1091C53.0529 72.2391 57.2929 66.4991 62.9629 61.9691C65.0429 60.3091 67.1929 59.9791 69.7229 60.5391C81.0629 63.0791 90.2029 69.4191 98.5229 77.1791C99.9129 78.4691 101.413 79.6891 102.443 81.3291C102.723 81.6791 102.733 82.0191 102.423 82.3491C101.013 82.5391 100.363 81.3991 99.5829 80.6091C94.9029 75.8791 89.5329 72.1491 83.5129 69.3291C79.3729 67.3891 74.9829 66.5591 70.4629 66.2491C69.6229 66.1891 68.8029 66.3991 68.0129 66.6591C65.5929 67.4691 63.7229 69.5891 63.8129 71.4091C63.8929 73.1191 65.8129 74.7891 68.4229 75.3691C71.4229 76.0391 74.5029 76.2591 77.4829 77.1191C87.6929 80.0591 96.3529 85.4091 103.203 93.5391C108.463 99.7791 110.993 107.219 112.043 115.219C112.223 116.629 112.443 118.029 112.713 119.409C112.893 120.319 112.863 121.739 114.203 121.599C115.263 121.479 115.213 120.209 115.243 119.309C115.373 115.559 115.273 111.829 114.463 108.129C112.553 99.4291 108.913 91.5891 103.193 84.7491C102.663 84.1191 102.003 83.5391 102.223 82.5691C103.673 81.7291 103.753 83.3391 104.463 83.8291H104.453Z" fill="#5BC6E0"/>
<path d="M8.72294 10.399C10.6029 16.039 12.5029 21.669 14.3629 27.319C17.8829 37.979 21.5529 48.599 24.8229 59.329C26.1429 63.649 28.4529 67.059 31.5929 70.119C34.3929 72.849 37.0329 75.739 39.7829 78.519C40.9629 79.719 40.8529 80.389 39.1629 80.869C36.1029 81.739 32.9529 82.119 29.8129 82.259C25.4929 82.449 21.1629 82.259 16.8329 82.339C15.3529 82.369 14.6129 81.749 13.9629 80.489C6.15293 65.249 3.62293 49.019 4.71293 32.079C5.12293 25.679 5.91295 19.329 7.39295 13.079C7.60295 12.199 7.84294 11.329 8.06294 10.449C8.28294 10.429 8.50293 10.409 8.71293 10.389L8.72294 10.399Z" fill="#B2B2B2"/>
<path d="M36.383 68.3591C31.003 64.6491 29.353 58.8091 27.483 53.0191C22.753 38.3991 17.883 23.8191 13.063 9.21908C12.783 8.35908 12.5129 7.48908 12.0229 5.92908C26.1129 11.6791 37.723 19.8091 46.973 31.2591C51.703 38.5991 52.063 46.4991 49.943 54.6991C48.563 60.0391 45.853 64.4891 41.013 67.3891C39.613 68.2291 38.173 69.2391 36.383 68.3491V68.3591Z" fill="#CBCBCB"/>
<path d="M36.3829 68.359C42.1429 67.289 45.7429 63.509 47.9129 58.439C51.7529 49.469 51.2929 40.519 47.0029 31.759C46.9329 31.619 46.9729 31.429 46.9629 31.269C52.6729 37.519 56.9329 44.709 60.4829 52.349C62.4329 56.539 62.3829 56.539 58.9529 59.389C53.6529 63.799 49.6629 69.339 45.7429 74.909C44.5629 76.589 43.8429 76.559 42.5929 75.139C40.5729 72.829 38.4529 70.619 36.3729 68.369L36.3829 68.359Z" fill="#B2B2B2"/>
<path d="M120.403 127.319C120.943 122.819 120.873 118.319 120.413 113.819C121.873 118.319 121.923 122.819 120.403 127.319Z" fill="#3B666F"/>
<path d="M102.403 82.3391C102.403 81.9991 102.403 81.6591 102.413 81.3291C103.283 82.0091 104.233 82.6291 104.443 83.8391C103.763 83.3391 103.083 82.8391 102.393 82.3391H102.403Z" fill="#5CC4DA"/>
<path d="M107.043 86.789C106.113 86.489 105.513 85.899 105.413 84.889C106.293 85.229 106.713 85.969 107.043 86.789Z" fill="#5CC4DA"/>
<path d="M40.4229 148.399C33.5229 148.319 28.9729 144.869 25.1629 140.209C16.0329 129.049 14.1729 109.969 20.9729 97.279C23.2829 92.979 26.4429 89.769 31.8029 89.669C35.2329 89.609 37.6629 91.039 39.3629 93.989C44.6029 103.109 48.5029 112.829 52.4029 122.549C53.8929 126.259 55.1229 130.049 56.1529 133.909C56.8829 136.649 56.4829 139.119 54.4929 141.329C50.5729 145.679 45.8629 148.279 40.4329 148.399H40.4229Z" fill="#333333"/>
<path d="M79.4329 81.779C93.6629 86.719 103.523 96.019 107.593 110.739C109.333 117.009 109.343 123.369 104.823 128.749C100.333 134.079 94.3829 135.909 87.5829 135.189C85.9229 135.009 84.7629 133.909 83.7729 132.589C79.1729 126.519 75.8229 119.709 72.3229 112.999C69.2129 107.019 66.2729 100.949 63.9429 94.619C61.6729 88.459 63.4129 84.439 69.4229 81.709C72.7729 80.649 76.1129 80.749 79.4429 81.769L79.4329 81.779Z" fill="#333333"/>
<path d="M102.403 82.3391C104.563 85.7591 107.323 88.7591 109.243 92.3391C113.923 101.079 116.603 110.269 115.873 120.279C115.793 121.359 115.493 122.559 114.183 122.739C112.643 122.959 112.513 121.579 112.313 120.589C111.793 118.079 111.353 115.559 110.963 113.029C108.813 98.8391 100.593 89.1091 88.3929 82.3191C82.4529 79.0091 76.1029 76.9891 69.3129 76.2791C65.4829 75.8791 62.5629 73.1491 63.0229 70.7991C63.6629 67.5391 67.6329 65.3791 71.3329 65.6591C83.3229 66.5791 92.5129 72.7391 100.723 80.8791C101.253 81.3991 101.843 81.8591 102.413 82.3391H102.403Z" fill="#7BEBF8"/>
<path d="M79.433 81.7791C76.093 81.1991 72.763 80.9791 69.413 81.7191C72.763 80.1891 76.103 80.2791 79.433 81.7791Z" fill="#4CA0B4"/>
<path d="M31.5129 45.3791C28.4629 45.3791 26.5929 43.7691 25.3929 40.5491C24.4129 37.9291 25.6029 36.2391 27.5529 34.7791C27.7529 34.6291 27.9629 34.4891 28.1629 34.3491C31.6429 31.8991 31.6729 31.8991 33.9829 35.5591C34.7429 36.7491 35.4829 37.9591 36.2229 39.1591C37.9329 41.9191 37.5629 43.2191 34.6729 44.6191C33.6029 45.1291 32.4929 45.4191 31.5029 45.3791H31.5129Z" fill="#343434"/>
<path d="M31.5329 22.3191C33.3429 22.3191 34.8529 22.5191 35.2529 24.1591C35.6529 25.8091 34.3629 26.7191 33.0629 27.3391C31.2129 28.2391 29.2729 28.5791 27.4229 27.3891C26.5529 26.8291 26.3929 25.8491 26.8829 24.9691C27.9529 23.0391 29.7929 22.4291 31.5329 22.3291V22.3191Z" fill="#363636"/>
<path d="M41.2729 45.8691C41.3029 42.9391 43.713 40.1291 45.883 40.2091C47.533 40.2691 47.963 41.3491 47.923 42.7491C47.863 45.2691 45.3029 48.2791 43.2729 48.1891C41.6329 48.1191 41.2929 46.9391 41.2729 45.8691Z" fill="#363636"/>
<path d="M45.0929 56.3091C43.0529 56.3091 40.4929 53.9191 40.5729 52.1091C40.6329 50.6691 41.3029 49.5091 42.9629 49.4391C44.8329 49.3691 47.3729 51.9891 47.2829 53.9391C47.2129 55.3991 46.2229 56.0891 45.0829 56.3091H45.0929Z" fill="#D94992"/>
<path d="M20.3529 18.4391C20.2529 17.1391 20.4829 15.7491 22.3429 15.5391C23.8929 15.3591 25.4029 17.2891 25.4529 19.3891C25.4829 20.9091 25.2429 22.2791 23.3329 22.4091C21.4729 22.5391 20.3829 21.1391 20.3529 18.4491V18.4391Z" fill="#D94892"/>
<path d="M21.393 113.599C21.283 109.659 22.393 104.509 24.753 99.6291C25.643 97.8091 26.8729 96.2291 28.5829 95.1191C31.5429 93.1891 34.173 93.8091 35.893 96.8991C39.343 103.079 42.2429 109.519 44.9329 116.059C47.4329 122.129 49.9529 128.179 51.6829 134.539C52.1929 136.419 51.723 137.709 50.483 139.029C44.203 145.729 35.343 145.449 29.443 138.369C23.813 131.609 21.353 123.789 21.383 113.609L21.393 113.599Z" fill="#5BC6E0"/>
<path d="M89.7729 130.969C88.4829 131.119 87.4929 130.279 86.6329 128.999C80.9029 120.479 76.3429 111.329 71.9729 102.079C70.4429 98.8491 69.0929 95.5291 67.8229 92.1991C66.7929 89.5191 67.5929 87.8191 70.1229 86.4391C72.5629 85.1191 75.0729 85.3291 77.6429 85.9391C90.6329 89.0091 102.463 102.319 103.963 115.609C105.183 126.399 97.2929 130.679 89.7729 130.979V130.969Z" fill="#5BC6E0"/>
<path d="M100.862 193.337C99.9436 195.346 100.828 197.719 102.837 198.638C104.846 199.556 107.219 198.672 108.138 196.663L100.862 193.337ZM81.1277 167.378L82.4412 163.6L81.1277 167.378ZM85.4648 148.128L77.0224 164.075L84.0927 167.818L92.5352 151.872L85.4648 148.128ZM79.8143 171.157C85.0638 172.982 91.9 176.284 96.5867 180.522C98.9163 182.628 100.498 184.771 101.239 186.856C101.937 188.819 101.968 190.919 100.862 193.337L108.138 196.663C110.124 192.318 110.158 188.062 108.777 184.177C107.439 180.414 104.86 177.216 101.952 174.587C96.1643 169.355 88.2224 165.61 82.4412 163.6L79.8143 171.157ZM77.0224 164.075C75.5619 166.834 76.9581 170.164 79.8143 171.157L82.4412 163.6C84.1229 164.185 84.9714 166.159 84.0927 167.818L77.0224 164.075Z" fill="#333333"/>
</svg>
