<svg width="105" height="105" viewBox="0 0 105 105" fill="none" xmlns="http://www.w3.org/2000/svg">
<g style="mix-blend-mode:multiply" opacity="0.747442">
<path d="M104.357 52.3685C104.357 23.5592 81.0023 0.204712 52.193 0.204712C23.3838 0.204712 0.0292969 23.5592 0.0292969 52.3685C0.0292969 81.1777 23.3838 104.532 52.193 104.532C81.0023 104.532 104.357 81.1777 104.357 52.3685Z" fill="#232586"/>
</g>
<mask id="mask0_22_3952" style="mask-type:luminance" maskUnits="userSpaceOnUse" x="0" y="0" width="105" height="105">
<path d="M104.357 52.3685C104.357 23.5592 81.0023 0.204712 52.193 0.204712C23.3838 0.204712 0.0292969 23.5592 0.0292969 52.3685C0.0292969 81.1777 23.3838 104.532 52.193 104.532C81.0023 104.532 104.357 81.1777 104.357 52.3685Z" fill="white"/>
</mask>
<g mask="url(#mask0_22_3952)">
<path fill-rule="evenodd" clip-rule="evenodd" d="M38.5775 24.2155C38.3456 23.1036 39.0662 22.0102 40.1853 21.7791C41.3059 21.5507 42.405 22.2646 42.6377 23.3771L47.4198 46.2405C47.5746 46.9797 48.3021 47.4556 49.0475 47.301C49.2451 47.2607 49.4213 47.178 49.5741 47.0672C50.0208 46.888 50.3628 46.4846 50.4282 45.9759L53.4167 22.5367C53.4862 21.9911 53.7649 21.5049 54.2027 21.1678C54.6411 20.8307 55.1842 20.6823 55.7334 20.7527C56.2826 20.8218 56.772 21.0994 57.1113 21.5343C57.4506 21.9685 57.5993 22.5087 57.5298 23.0544L54.5764 46.2213C54.5083 46.7547 54.7623 47.2511 55.1849 47.5294C55.4436 47.8488 55.827 48.0477 56.2434 48.0477C57.0026 48.0477 57.62 47.4344 57.62 46.6802V44.9707C57.62 43.6509 58.7012 42.5774 60.0289 42.5774C61.3573 42.5774 62.4379 43.6509 62.4379 44.9707V49.4153C62.4379 50.1696 63.0559 50.7829 63.8144 50.7829C64.5736 50.7829 65.1909 50.1696 65.1909 49.4153V46.9229C65.4188 46.8224 66.0017 46.6802 66.3466 46.6802C67.3287 46.6802 68.1897 47.4788 68.1897 48.3896C68.1897 54.7394 67.6673 65.851 66.2667 68.6341C64.2157 72.7102 61.921 76.084 54.5799 76.084C47.8541 76.084 42.0237 72.9016 38.1632 67.1222C35.6978 63.4318 34.578 55.8485 38.4351 52.3659C38.8267 52.0124 39.6306 51.5317 39.7676 51.4503L40.7263 58.0291C40.8261 58.7102 41.4146 59.2011 42.087 59.2011C42.1524 59.2011 42.2192 59.1963 42.286 59.1874C43.0382 59.0787 43.5599 58.3854 43.4512 57.638L38.592 24.2975L38.5775 24.2155ZM66.3018 43.9443C66.0403 43.9443 65.5764 43.9963 65.0292 44.1351C64.6231 41.696 62.4619 39.8415 59.9353 39.8415C59.3117 39.8415 58.6992 39.9667 58.1217 40.1834L60.2609 23.3983C60.4233 22.1278 60.0771 20.8703 59.287 19.8583C58.4975 18.8456 57.3584 18.2001 56.0796 18.0394C54.8001 17.8767 53.5351 18.2213 52.5157 19.0063C51.4971 19.7906 50.8467 20.923 50.6849 22.1935L48.6084 38.4801L45.3329 22.8205C44.792 20.2324 42.2316 18.5632 39.6258 19.1014C37.0351 19.6361 35.3599 22.1538 35.8733 24.7276L39.3202 48.3808C38.1825 49.0051 36.85 49.946 36.7784 49.9972C32.6935 52.917 31.392 61.8809 35.9036 68.6327C40.2907 75.2012 46.929 78.8185 54.5957 78.8185C63.4854 78.8185 66.4567 74.3909 68.7383 69.856C70.9229 65.516 70.9477 49.0864 70.9477 48.3896C70.9477 45.9806 68.8202 43.945 66.3018 43.9443Z" fill="white"/>
</g>
</svg>
