<svg width="165" height="70" viewBox="0 0 165 70" fill="none" xmlns="http://www.w3.org/2000/svg">
<path fill-rule="evenodd" clip-rule="evenodd" d="M56.8552 5H108.145C121.742 5 131.273 6.26122 139.421 8.62952C147.569 10.9978 153.964 14.4732 158.322 18.9016C162.679 23.3299 165 28.5095 165 35.8996V39.1004C165 46.4905 162.679 51.6701 158.322 56.0984C153.964 60.5268 147.569 64.0022 139.421 66.3705C131.273 68.7388 121.742 70 108.145 70H56.8552C43.2575 70 33.727 68.7388 25.5789 66.3705C17.4307 64.0022 11.036 60.5268 6.67832 56.0984C2.32064 51.6701 0 46.4905 0 39.1004L0 35.8996C0 28.5095 2.32064 23.3299 6.67832 18.9016C11.036 14.4732 17.4307 10.9978 25.5789 8.62952C33.727 6.26122 43.2575 5 56.8552 5Z" fill="#EA9975"/>
<path d="M55.9663 0L109.034 0C121.565 0 131.273 1.25113 139.421 3.60048C147.569 5.94984 153.964 9.39743 158.322 13.7903C162.679 18.1833 165 23.4173 165 30.1731V31.8269C165 38.5827 162.679 43.8167 158.322 48.2097C153.964 52.6026 147.569 56.0502 139.421 58.3995C131.273 60.7489 121.565 62 109.034 62H55.9663C43.4353 62 33.727 60.7489 25.5789 58.3995C17.4307 56.0502 11.036 52.6026 6.67832 48.2097C2.32064 43.8167 0 38.5827 0 31.8269L0 30.1731C0 23.4173 2.32064 18.1833 6.67832 13.7903C11.036 9.39743 17.4307 5.94984 25.5789 3.60048C33.727 1.25113 43.4353 0 55.9663 0Z" fill="#FBC399"/>
<path d="M148.698 34.0551C150.14 32.6237 150.131 30.3018 148.686 28.8786L138.949 19.2901C134.941 15.3782 128.922 21.246 132.935 25.1578L132.976 25.1985C134.227 26.4063 133.811 27.3862 132.05 27.3862H124.245C121.902 27.3862 120 29.2487 120 31.5583V31.5096C120 33.8151 121.898 35.6816 124.245 35.6816H132.05C133.811 35.6816 134.223 36.6657 132.976 37.8694L132.935 37.9101C128.922 41.8219 134.941 47.6897 138.949 43.7778L148.698 34.0551Z" fill="#B67C62"/>
<path d="M17.4347 38V23.4545H20.0696V35.7912H26.4759V38H17.4347ZM33.4787 38.2131C32.3849 38.2131 31.4403 37.9858 30.6449 37.5312C29.8542 37.072 29.2457 36.4233 28.8196 35.5852C28.3935 34.7424 28.1804 33.7505 28.1804 32.6094C28.1804 31.4872 28.3935 30.5024 28.8196 29.6548C29.2505 28.8026 29.8518 28.1397 30.6236 27.6662C31.3954 27.188 32.3021 26.9489 33.3438 26.9489C34.0161 26.9489 34.6506 27.0578 35.2472 27.2756C35.8485 27.4886 36.3788 27.8201 36.8381 28.2699C37.3021 28.7197 37.6667 29.2926 37.9318 29.9886C38.197 30.6799 38.3295 31.5038 38.3295 32.4602V33.2486H29.3878V31.5156H35.8651C35.8603 31.0232 35.7538 30.5852 35.5455 30.2017C35.3371 29.8134 35.0459 29.508 34.6719 29.2855C34.3026 29.063 33.8717 28.9517 33.3793 28.9517C32.8537 28.9517 32.392 29.0795 31.9943 29.3352C31.5966 29.5862 31.2865 29.9176 31.0639 30.3295C30.8461 30.7367 30.7348 31.1842 30.7301 31.6719V33.1847C30.7301 33.8191 30.8461 34.3636 31.0781 34.8182C31.3101 35.268 31.6345 35.6136 32.0511 35.8551C32.4678 36.0919 32.9555 36.2102 33.5142 36.2102C33.8883 36.2102 34.2268 36.1581 34.5298 36.054C34.8329 35.9451 35.0956 35.7865 35.3182 35.5781C35.5407 35.3698 35.7088 35.1117 35.8224 34.804L38.223 35.0739C38.0715 35.7083 37.7827 36.2623 37.3565 36.7358C36.9351 37.2045 36.3954 37.5691 35.7372 37.8295C35.0791 38.0852 34.3262 38.2131 33.4787 38.2131ZM45.9521 27.0909V29.0795H39.6808V27.0909H45.9521ZM41.229 24.4773H43.8001V34.7188C43.8001 35.0644 43.8522 35.3295 43.9563 35.5142C44.0652 35.6941 44.2073 35.8172 44.3825 35.8835C44.5576 35.9498 44.7518 35.983 44.9648 35.983C45.1258 35.983 45.2726 35.9711 45.4052 35.9474C45.5425 35.9238 45.6467 35.9025 45.7177 35.8835L46.1509 37.8935C46.0136 37.9408 45.8171 37.9929 45.5614 38.0497C45.3105 38.1065 45.0027 38.1397 44.6381 38.1491C43.9942 38.1681 43.4142 38.071 42.8981 37.858C42.382 37.6402 41.9724 37.304 41.6694 36.8494C41.3711 36.3949 41.2243 35.8267 41.229 35.1449V24.4773ZM50.7905 23.4545V24.9034C50.7905 25.3201 50.71 25.7533 50.549 26.2031C50.3928 26.6482 50.1773 27.0743 49.9027 27.4815C49.6281 27.884 49.3156 28.2296 48.9652 28.5185L47.772 27.7443C48.0324 27.3513 48.2597 26.9276 48.4538 26.473C48.648 26.0137 48.745 25.4953 48.745 24.9176V23.4545H50.7905ZM60.0838 29.9744L57.7401 30.2301C57.6738 29.9934 57.5578 29.7708 57.392 29.5625C57.2311 29.3542 57.0133 29.1861 56.7386 29.0582C56.464 28.9304 56.1278 28.8665 55.7301 28.8665C55.1951 28.8665 54.7453 28.9825 54.3807 29.2145C54.0208 29.4465 53.8433 29.7472 53.848 30.1165C53.8433 30.4337 53.9593 30.6918 54.196 30.8906C54.4375 31.0895 54.8352 31.2528 55.3892 31.3807L57.25 31.7784C58.2822 32.0009 59.0492 32.3537 59.5511 32.8366C60.0578 33.3196 60.3134 33.9517 60.3182 34.733C60.3134 35.4195 60.1122 36.0256 59.7145 36.5511C59.3215 37.072 58.7746 37.4792 58.0739 37.7727C57.3731 38.0663 56.5682 38.2131 55.6591 38.2131C54.3239 38.2131 53.2491 37.9337 52.4347 37.375C51.6203 36.8116 51.1349 36.0279 50.9787 35.0241L53.4858 34.7827C53.5994 35.2751 53.8409 35.6468 54.2102 35.8977C54.5795 36.1487 55.0601 36.2741 55.652 36.2741C56.2628 36.2741 56.7528 36.1487 57.1222 35.8977C57.4962 35.6468 57.6832 35.3366 57.6832 34.9673C57.6832 34.6548 57.5625 34.3968 57.321 34.1932C57.0843 33.9896 56.715 33.8333 56.2131 33.7244L54.3523 33.3338C53.3059 33.116 52.5317 32.7491 52.0298 32.233C51.5279 31.7121 51.2794 31.054 51.2841 30.2585C51.2794 29.5862 51.4616 29.0038 51.831 28.5114C52.205 28.0142 52.7235 27.6307 53.3864 27.3608C54.054 27.0862 54.8234 26.9489 55.6946 26.9489C56.973 26.9489 57.9792 27.2211 58.7131 27.7656C59.4517 28.3101 59.9086 29.0464 60.0838 29.9744ZM75.4176 27.4531C75.3513 26.8329 75.072 26.3499 74.5795 26.0043C74.0919 25.6586 73.4574 25.4858 72.6761 25.4858C72.1269 25.4858 71.6558 25.5687 71.2628 25.7344C70.8698 25.9001 70.5691 26.125 70.3608 26.4091C70.1525 26.6932 70.0459 27.0175 70.0412 27.3821C70.0412 27.6851 70.1098 27.9479 70.2472 28.1705C70.3892 28.393 70.581 28.5824 70.8224 28.7386C71.0639 28.8902 71.3314 29.018 71.625 29.1222C71.9186 29.2263 72.2145 29.3139 72.5128 29.3849L73.8764 29.7259C74.4257 29.8537 74.9536 30.0265 75.4602 30.2443C75.9716 30.4621 76.4285 30.7367 76.831 31.0682C77.2382 31.3996 77.5601 31.7997 77.7969 32.2685C78.0336 32.7372 78.152 33.2865 78.152 33.9162C78.152 34.7685 77.9342 35.5189 77.4986 36.1676C77.063 36.8116 76.4332 37.3158 75.6094 37.6804C74.7902 38.0402 73.7983 38.2202 72.6335 38.2202C71.5019 38.2202 70.5194 38.045 69.6861 37.6946C68.8575 37.3442 68.2088 36.8329 67.7401 36.1605C67.276 35.4882 67.0251 34.669 66.9872 33.7031H69.5795C69.6174 34.2098 69.7737 34.6312 70.0483 34.9673C70.3229 35.3035 70.6804 35.5545 71.1207 35.7202C71.5658 35.8859 72.063 35.9688 72.6122 35.9688C73.1851 35.9688 73.687 35.8835 74.1179 35.7131C74.5535 35.5379 74.8944 35.2964 75.1406 34.9886C75.3868 34.6761 75.5123 34.3116 75.517 33.8949C75.5123 33.5161 75.401 33.2036 75.1832 32.9574C74.9654 32.7064 74.66 32.4981 74.267 32.3324C73.8788 32.1619 73.4242 32.0104 72.9034 31.8778L71.2486 31.4517C70.0507 31.1439 69.1037 30.6776 68.4077 30.0526C67.7164 29.4228 67.3707 28.5871 67.3707 27.5455C67.3707 26.6884 67.6027 25.938 68.0668 25.294C68.5355 24.6501 69.1723 24.1506 69.9773 23.7955C70.7822 23.4356 71.6937 23.2557 72.7116 23.2557C73.7438 23.2557 74.6482 23.4356 75.4247 23.7955C76.206 24.1506 76.8191 24.6454 77.2642 25.2798C77.7093 25.9096 77.9389 26.634 77.9531 27.4531H75.4176ZM85.8349 27.0909V29.0795H79.5636V27.0909H85.8349ZM81.1119 24.4773H83.6829V34.7188C83.6829 35.0644 83.735 35.3295 83.8391 35.5142C83.948 35.6941 84.0901 35.8172 84.2653 35.8835C84.4405 35.9498 84.6346 35.983 84.8477 35.983C85.0086 35.983 85.1554 35.9711 85.288 35.9474C85.4253 35.9238 85.5295 35.9025 85.6005 35.8835L86.0337 37.8935C85.8964 37.9408 85.6999 37.9929 85.4442 38.0497C85.1933 38.1065 84.8855 38.1397 84.521 38.1491C83.877 38.1681 83.297 38.071 82.7809 37.858C82.2648 37.6402 81.8552 37.304 81.5522 36.8494C81.2539 36.3949 81.1071 35.8267 81.1119 35.1449V24.4773ZM91.1243 38.2202C90.433 38.2202 89.8104 38.0971 89.2564 37.8509C88.7071 37.5999 88.2715 37.2306 87.9496 36.7429C87.6323 36.2552 87.4737 35.6539 87.4737 34.9389C87.4737 34.3234 87.5874 33.8144 87.8146 33.4119C88.0419 33.0095 88.352 32.6875 88.745 32.446C89.138 32.2045 89.5807 32.0223 90.0732 31.8991C90.5703 31.7713 91.084 31.679 91.6143 31.6222C92.2536 31.5559 92.772 31.4967 93.1697 31.4446C93.5675 31.3878 93.8563 31.3026 94.0362 31.1889C94.2209 31.0705 94.3132 30.8883 94.3132 30.642V30.5994C94.3132 30.0644 94.1546 29.6501 93.8374 29.3565C93.5201 29.063 93.0632 28.9162 92.4666 28.9162C91.8369 28.9162 91.3374 29.0535 90.968 29.3281C90.6035 29.6027 90.3572 29.9271 90.2294 30.3011L87.8288 29.9602C88.0182 29.2973 88.3307 28.7434 88.7663 28.2983C89.2019 27.8485 89.7346 27.5123 90.3643 27.2898C90.9941 27.0625 91.6901 26.9489 92.4524 26.9489C92.978 26.9489 93.5012 27.0104 94.022 27.1335C94.5429 27.2566 95.0187 27.4602 95.4496 27.7443C95.8804 28.0237 96.2261 28.4048 96.4865 28.8878C96.7517 29.3707 96.8842 29.9744 96.8842 30.6989V38H94.4126V36.5014H94.3274C94.1712 36.8045 93.951 37.0885 93.6669 37.3537C93.3875 37.6141 93.0348 37.8248 92.6087 37.9858C92.1873 38.142 91.6925 38.2202 91.1243 38.2202ZM91.7919 36.331C92.308 36.331 92.7554 36.2292 93.1342 36.0256C93.513 35.8172 93.8042 35.5426 94.0078 35.2017C94.2161 34.8608 94.3203 34.4891 94.3203 34.0866V32.8011C94.2398 32.8674 94.1025 32.929 93.9084 32.9858C93.719 33.0426 93.5059 33.0923 93.2692 33.1349C93.0324 33.1776 92.7981 33.2154 92.5661 33.2486C92.334 33.2817 92.1328 33.3101 91.9624 33.3338C91.5788 33.3859 91.2356 33.4711 90.9325 33.5895C90.6295 33.7079 90.3904 33.8736 90.2152 34.0866C90.04 34.295 89.9524 34.5649 89.9524 34.8963C89.9524 35.3698 90.1252 35.7273 90.4709 35.9688C90.8165 36.2102 91.2569 36.331 91.7919 36.331ZM99.4695 38V27.0909H101.962V28.9091H102.076C102.275 28.2794 102.616 27.794 103.099 27.4531C103.586 27.1075 104.143 26.9347 104.768 26.9347C104.91 26.9347 105.068 26.9418 105.244 26.956C105.424 26.9654 105.573 26.982 105.691 27.0057V29.3707C105.582 29.3329 105.409 29.2997 105.173 29.2713C104.941 29.2382 104.716 29.2216 104.498 29.2216C104.029 29.2216 103.608 29.3234 103.234 29.527C102.864 29.7259 102.573 30.0028 102.36 30.358C102.147 30.7131 102.04 31.1226 102.04 31.5866V38H99.4695ZM113.433 27.0909V29.0795H107.161V27.0909H113.433ZM108.71 24.4773H111.281V34.7188C111.281 35.0644 111.333 35.3295 111.437 35.5142C111.546 35.6941 111.688 35.8172 111.863 35.8835C112.038 35.9498 112.232 35.983 112.445 35.983C112.606 35.983 112.753 35.9711 112.886 35.9474C113.023 35.9238 113.127 35.9025 113.198 35.8835L113.631 37.8935C113.494 37.9408 113.298 37.9929 113.042 38.0497C112.791 38.1065 112.483 38.1397 112.119 38.1491C111.475 38.1681 110.895 38.071 110.379 37.858C109.862 37.6402 109.453 37.304 109.15 36.8494C108.852 36.3949 108.705 35.8267 108.71 35.1449V24.4773Z" fill="#B67C62"/>
</svg>
