<svg width="105" height="105" viewBox="0 0 105 105" fill="none" xmlns="http://www.w3.org/2000/svg">
<g style="mix-blend-mode:multiply" opacity="0.747442">
<path d="M104.971 52.3685C104.971 23.5592 81.6161 0.204712 52.8068 0.204712C23.9976 0.204712 0.643066 23.5592 0.643066 52.3685C0.643066 81.1777 23.9976 104.532 52.8068 104.532C81.6161 104.532 104.971 81.1777 104.971 52.3685Z" fill="#232586"/>
</g>
<mask id="mask0_22_3964" style="mask-type:luminance" maskUnits="userSpaceOnUse" x="0" y="-1" width="106" height="106">
<path d="M104.971 52.3685C104.971 23.5592 81.6161 0.204712 52.8068 0.204712C23.9976 0.204712 0.643066 23.5592 0.643066 52.3685C0.643066 81.1777 23.9976 104.532 52.8068 104.532C81.6161 104.532 104.971 81.1777 104.971 52.3685Z" fill="white" stroke="white" stroke-width="0.652047"/>
</mask>
<g mask="url(#mask0_22_3964)">
<path d="M71.2715 40.8163C71.2715 41.5642 71.2452 59.1809 68.9655 63.7813C66.5961 68.5643 63.5103 73.2339 54.2887 73.2339C46.2815 73.2339 39.3469 69.3947 34.762 62.4242C30.2852 55.6194 31.5828 46.8269 35.547 43.1909C36.7452 42.0932 37.7032 41.4956 38.3239 41.1803L38.3159 38.2399C38.3159 35.035 40.4283 32.7112 43.3388 32.7112C44.4852 32.7112 45.4958 33.0649 46.2983 33.6948C47.0394 31.1309 49.5425 29.7642 51.9215 29.7642C54.1201 29.7642 55.9988 31.1721 56.7188 33.1415C57.6002 32.4128 58.7268 31.9745 59.9536 31.9745C62.629 31.9745 64.8319 34.0595 65.0481 36.7045C65.7089 36.4945 66.3544 36.395 66.7078 36.395C69.1817 36.3958 71.2715 38.4204 71.2715 40.8163ZM69.0758 40.8163C69.0758 39.639 68.02 38.6061 66.7553 38.6061C66.2587 38.6061 65.1642 38.8742 65.1642 39.0805V41.9215C65.1642 42.5315 64.6735 43.0266 64.0689 43.0266C63.4643 43.0266 62.9736 42.5315 62.9736 41.9215V37.1325C62.9736 35.5072 61.6637 34.1855 60.0529 34.1855C58.4421 34.1855 57.1321 35.5072 57.1321 37.1325V38.9744C57.1321 39.5845 56.6414 40.0796 56.0368 40.0796C55.4322 40.0796 54.9415 39.5845 54.9415 38.9744V34.9222C54.9415 33.2969 53.6316 31.9752 52.0208 31.9752C50.5531 31.9752 48.3698 32.8578 48.3698 35.2906V38.2377C48.3698 38.8477 47.7959 39.3428 47.1913 39.3428C46.5867 39.3428 46.0376 38.8477 46.0376 38.2377C46.0376 36.7082 45.2899 34.9222 43.2673 34.9222C41.3104 34.9222 40.3378 36.5873 40.3378 38.2377V51.5002C40.3378 52.4521 40.0172 52.9737 39.3608 52.9737C38.7043 52.9737 38.3918 52.4211 38.3918 51.5002L38.4028 43.7789C38.4028 43.7789 37.3841 44.383 36.8986 44.8288C32.6321 48.741 33.8785 57.1401 36.5517 61.2041C40.7167 67.5373 47.0219 71.0251 54.2712 71.0251C62.2602 71.0251 64.7655 67.2978 66.997 62.794C68.699 59.3592 69.0758 45.7645 69.0758 40.8163Z" fill="white" stroke="white" stroke-width="0.652047"/>
</g>
</svg>
